<?xml version="1.0" encoding="utf-8" standalone="no"?>
<!DOCTYPE svg PUBLIC "-//W3C//DTD SVG 1.1//EN"
  "http://www.w3.org/Graphics/SVG/1.1/DTD/svg11.dtd">
<svg height="178.692691pt" version="1.1" viewBox="0 0 290.871475 178.692691" width="290.871475pt" xmlns="http://www.w3.org/2000/svg" xmlns:xlink="http://www.w3.org/1999/xlink">
 <metadata>
  <rdf:RDF xmlns:cc="http://creativecommons.org/ns#" xmlns:dc="http://purl.org/dc/elements/1.1/" xmlns:rdf="http://www.w3.org/1999/02/22-rdf-syntax-ns#">
   <cc:Work>
    <dc:type rdf:resource="http://purl.org/dc/dcmitype/StillImage"/>
    <dc:date>2021-04-28T09:19:28.500612</dc:date>
    <dc:format>image/svg+xml</dc:format>
    <dc:creator>
     <cc:Agent>
      <dc:title>Matplotlib v3.4.1, https://matplotlib.org/</dc:title>
     </cc:Agent>
    </dc:creator>
   </cc:Work>
  </rdf:RDF>
 </metadata>
 <defs>
  <style type="text/css">*{stroke-linecap:butt;stroke-linejoin:round;}</style>
 </defs>
 <g id="figure_1">
  <g id="patch_1">
   <path d="M -0 178.692691 
L 290.871475 178.692691 
L 290.871475 0 
L -0 0 
z
" style="fill:#ffffff;"/>
  </g>
  <g id="axes_1">
   <g id="patch_2">
    <path d="M 48.429375 126.5465 
L 197.037375 126.5465 
L 197.037375 24.3785 
L 48.429375 24.3785 
z
" style="fill:#ffffff;"/>
   </g>
   <g id="patch_3">
    <path clip-path="url(#pefc8c98a73)" d="M 52.144575 126.5465 
L 59.574975 126.5465 
L 59.574975 99.15055 
L 52.144575 99.15055 
z
" style="fill:#d62728;"/>
   </g>
   <g id="patch_4">
    <path clip-path="url(#pefc8c98a73)" d="M 67.005375 126.5465 
L 74.435775 126.5465 
L 74.435775 97.355643 
L 67.005375 97.355643 
z
" style="fill:#d62728;"/>
   </g>
   <g id="patch_5">
    <path clip-path="url(#pefc8c98a73)" d="M 81.866175 126.5465 
L 89.296575 126.5465 
L 89.296575 88.320378 
L 81.866175 88.320378 
z
" style="fill:#d62728;"/>
   </g>
   <g id="patch_6">
    <path clip-path="url(#pefc8c98a73)" d="M 96.726975 126.5465 
L 104.157375 126.5465 
L 104.157375 100.843858 
L 96.726975 100.843858 
z
" style="fill:#d62728;"/>
   </g>
   <g id="patch_7">
    <path clip-path="url(#pefc8c98a73)" d="M 111.587775 126.5465 
L 119.018175 126.5465 
L 119.018175 100.349577 
L 111.587775 100.349577 
z
" style="fill:#d62728;"/>
   </g>
   <g id="patch_8">
    <path clip-path="url(#pefc8c98a73)" d="M 126.448575 126.5465 
L 133.878975 126.5465 
L 133.878975 94.774138 
L 126.448575 94.774138 
z
" style="fill:#d62728;"/>
   </g>
   <g id="patch_9">
    <path clip-path="url(#pefc8c98a73)" d="M 141.309375 126.5465 
L 148.739775 126.5465 
L 148.739775 105.508044 
L 141.309375 105.508044 
z
" style="fill:#d62728;"/>
   </g>
   <g id="patch_10">
    <path clip-path="url(#pefc8c98a73)" d="M 156.170175 126.5465 
L 163.600575 126.5465 
L 163.600575 105.393705 
L 156.170175 105.393705 
z
" style="fill:#d62728;"/>
   </g>
   <g id="patch_11">
    <path clip-path="url(#pefc8c98a73)" d="M 171.030975 126.5465 
L 178.461375 126.5465 
L 178.461375 84.845276 
L 171.030975 84.845276 
z
" style="fill:#d62728;"/>
   </g>
   <g id="patch_12">
    <path clip-path="url(#pefc8c98a73)" d="M 185.891775 126.5465 
L 193.322175 126.5465 
L 193.322175 85.576876 
L 185.891775 85.576876 
z
" style="fill:#d62728;"/>
   </g>
   <g id="patch_13">
    <path clip-path="url(#pefc8c98a73)" d="M 52.144575 99.15055 
L 59.574975 99.15055 
L 59.574975 77.422727 
L 52.144575 77.422727 
z
" style="fill:#ff7f0e;"/>
   </g>
   <g id="patch_14">
    <path clip-path="url(#pefc8c98a73)" d="M 67.005375 97.355643 
L 74.435775 97.355643 
L 74.435775 80.675153 
L 67.005375 80.675153 
z
" style="fill:#ff7f0e;"/>
   </g>
   <g id="patch_15">
    <path clip-path="url(#pefc8c98a73)" d="M 81.866175 88.320378 
L 89.296575 88.320378 
L 89.296575 65.732214 
L 81.866175 65.732214 
z
" style="fill:#ff7f0e;"/>
   </g>
   <g id="patch_16">
    <path clip-path="url(#pefc8c98a73)" d="M 96.726975 100.843858 
L 104.157375 100.843858 
L 104.157375 80.648926 
L 96.726975 80.648926 
z
" style="fill:#ff7f0e;"/>
   </g>
   <g id="patch_17">
    <path clip-path="url(#pefc8c98a73)" d="M 111.587775 100.349577 
L 119.018175 100.349577 
L 119.018175 90.993533 
L 111.587775 90.993533 
z
" style="fill:#ff7f0e;"/>
   </g>
   <g id="patch_18">
    <path clip-path="url(#pefc8c98a73)" d="M 126.448575 94.774138 
L 133.878975 94.774138 
L 133.878975 76.902185 
L 126.448575 76.902185 
z
" style="fill:#ff7f0e;"/>
   </g>
   <g id="patch_19">
    <path clip-path="url(#pefc8c98a73)" d="M 141.309375 105.508044 
L 148.739775 105.508044 
L 148.739775 89.729203 
L 141.309375 89.729203 
z
" style="fill:#ff7f0e;"/>
   </g>
   <g id="patch_20">
    <path clip-path="url(#pefc8c98a73)" d="M 156.170175 105.393705 
L 163.600575 105.393705 
L 163.600575 96.932587 
L 156.170175 96.932587 
z
" style="fill:#ff7f0e;"/>
   </g>
   <g id="patch_21">
    <path clip-path="url(#pefc8c98a73)" d="M 171.030975 84.845276 
L 178.461375 84.845276 
L 178.461375 75.578337 
L 171.030975 75.578337 
z
" style="fill:#ff7f0e;"/>
   </g>
   <g id="patch_22">
    <path clip-path="url(#pefc8c98a73)" d="M 185.891775 85.576876 
L 193.322175 85.576876 
L 193.322175 54.849658 
L 185.891775 54.849658 
z
" style="fill:#ff7f0e;"/>
   </g>
   <g id="patch_23">
    <path clip-path="url(#pefc8c98a73)" d="M 52.144575 77.422727 
L 59.574975 77.422727 
L 59.574975 54.750217 
L 52.144575 54.750217 
z
" style="fill:#aa40fc;"/>
   </g>
   <g id="patch_24">
    <path clip-path="url(#pefc8c98a73)" d="M 67.005375 80.675153 
L 74.435775 80.675153 
L 74.435775 65.384704 
L 67.005375 65.384704 
z
" style="fill:#aa40fc;"/>
   </g>
   <g id="patch_25">
    <path clip-path="url(#pefc8c98a73)" d="M 81.866175 65.732214 
L 89.296575 65.732214 
L 89.296575 53.569357 
L 81.866175 53.569357 
z
" style="fill:#aa40fc;"/>
   </g>
   <g id="patch_26">
    <path clip-path="url(#pefc8c98a73)" d="M 96.726975 80.648926 
L 104.157375 80.648926 
L 104.157375 67.797605 
L 96.726975 67.797605 
z
" style="fill:#aa40fc;"/>
   </g>
   <g id="patch_27">
    <path clip-path="url(#pefc8c98a73)" d="M 111.587775 90.993533 
L 119.018175 90.993533 
L 119.018175 70.410236 
L 111.587775 70.410236 
z
" style="fill:#aa40fc;"/>
   </g>
   <g id="patch_28">
    <path clip-path="url(#pefc8c98a73)" d="M 126.448575 76.902185 
L 133.878975 76.902185 
L 133.878975 64.98755 
L 126.448575 64.98755 
z
" style="fill:#aa40fc;"/>
   </g>
   <g id="patch_29">
    <path clip-path="url(#pefc8c98a73)" d="M 141.309375 89.729203 
L 148.739775 89.729203 
L 148.739775 63.431133 
L 141.309375 63.431133 
z
" style="fill:#aa40fc;"/>
   </g>
   <g id="patch_30">
    <path clip-path="url(#pefc8c98a73)" d="M 156.170175 96.932587 
L 163.600575 96.932587 
L 163.600575 63.088115 
L 156.170175 63.088115 
z
" style="fill:#aa40fc;"/>
   </g>
   <g id="patch_31">
    <path clip-path="url(#pefc8c98a73)" d="M 171.030975 75.578337 
L 178.461375 75.578337 
L 178.461375 61.677929 
L 171.030975 61.677929 
z
" style="fill:#aa40fc;"/>
   </g>
   <g id="patch_32">
    <path clip-path="url(#pefc8c98a73)" d="M 185.891775 54.849658 
L 193.322175 54.849658 
L 193.322175 44.607252 
L 185.891775 44.607252 
z
" style="fill:#aa40fc;"/>
   </g>
   <g id="patch_33">
    <path clip-path="url(#pefc8c98a73)" d="M 52.144575 54.750217 
L 59.574975 54.750217 
L 59.574975 44.35865 
L 52.144575 44.35865 
z
" style="fill:#1f77b4;"/>
   </g>
   <g id="patch_34">
    <path clip-path="url(#pefc8c98a73)" d="M 67.005375 65.384704 
L 74.435775 65.384704 
L 74.435775 45.924133 
L 67.005375 45.924133 
z
" style="fill:#1f77b4;"/>
   </g>
   <g id="patch_35">
    <path clip-path="url(#pefc8c98a73)" d="M 81.866175 53.569357 
L 89.296575 53.569357 
L 89.296575 37.931398 
L 81.866175 37.931398 
z
" style="fill:#1f77b4;"/>
   </g>
   <g id="patch_36">
    <path clip-path="url(#pefc8c98a73)" d="M 96.726975 67.797605 
L 104.157375 67.797605 
L 104.157375 42.094964 
L 96.726975 42.094964 
z
" style="fill:#1f77b4;"/>
   </g>
   <g id="patch_37">
    <path clip-path="url(#pefc8c98a73)" d="M 111.587775 70.410236 
L 119.018175 70.410236 
L 119.018175 42.342104 
L 111.587775 42.342104 
z
" style="fill:#1f77b4;"/>
   </g>
   <g id="patch_38">
    <path clip-path="url(#pefc8c98a73)" d="M 126.448575 64.98755 
L 133.878975 64.98755 
L 133.878975 59.030232 
L 126.448575 59.030232 
z
" style="fill:#1f77b4;"/>
   </g>
   <g id="patch_39">
    <path clip-path="url(#pefc8c98a73)" d="M 141.309375 63.431133 
L 148.739775 63.431133 
L 148.739775 52.911905 
L 141.309375 52.911905 
z
" style="fill:#1f77b4;"/>
   </g>
   <g id="patch_40">
    <path clip-path="url(#pefc8c98a73)" d="M 156.170175 63.088115 
L 163.600575 63.088115 
L 163.600575 41.93532 
L 156.170175 41.93532 
z
" style="fill:#1f77b4;"/>
   </g>
   <g id="patch_41">
    <path clip-path="url(#pefc8c98a73)" d="M 171.030975 61.677929 
L 178.461375 61.677929 
L 178.461375 43.144051 
L 171.030975 43.144051 
z
" style="fill:#1f77b4;"/>
   </g>
   <g id="patch_42">
    <path clip-path="url(#pefc8c98a73)" d="M 185.891775 44.607252 
L 193.322175 44.607252 
L 193.322175 39.486049 
L 185.891775 39.486049 
z
" style="fill:#1f77b4;"/>
   </g>
   <g id="patch_43">
    <path clip-path="url(#pefc8c98a73)" d="M 52.144575 44.35865 
L 59.574975 44.35865 
L 59.574975 29.243643 
L 52.144575 29.243643 
z
" style="fill:#279e68;"/>
   </g>
   <g id="patch_44">
    <path clip-path="url(#pefc8c98a73)" d="M 67.005375 45.924133 
L 74.435775 45.924133 
L 74.435775 29.243643 
L 67.005375 29.243643 
z
" style="fill:#279e68;"/>
   </g>
   <g id="patch_45">
    <path clip-path="url(#pefc8c98a73)" d="M 81.866175 37.931398 
L 89.296575 37.931398 
L 89.296575 29.243643 
L 81.866175 29.243643 
z
" style="fill:#279e68;"/>
   </g>
   <g id="patch_46">
    <path clip-path="url(#pefc8c98a73)" d="M 96.726975 42.094964 
L 104.157375 42.094964 
L 104.157375 29.243643 
L 96.726975 29.243643 
z
" style="fill:#279e68;"/>
   </g>
   <g id="patch_47">
    <path clip-path="url(#pefc8c98a73)" d="M 111.587775 42.342104 
L 119.018175 42.342104 
L 119.018175 29.243643 
L 111.587775 29.243643 
z
" style="fill:#279e68;"/>
   </g>
   <g id="patch_48">
    <path clip-path="url(#pefc8c98a73)" d="M 126.448575 59.030232 
L 133.878975 59.030232 
L 133.878975 29.243643 
L 126.448575 29.243643 
z
" style="fill:#279e68;"/>
   </g>
   <g id="patch_49">
    <path clip-path="url(#pefc8c98a73)" d="M 141.309375 52.911905 
L 148.739775 52.911905 
L 148.739775 29.243643 
L 141.309375 29.243643 
z
" style="fill:#279e68;"/>
   </g>
   <g id="patch_50">
    <path clip-path="url(#pefc8c98a73)" d="M 156.170175 41.93532 
L 163.600575 41.93532 
L 163.600575 29.243643 
L 156.170175 29.243643 
z
" style="fill:#279e68;"/>
   </g>
   <g id="patch_51">
    <path clip-path="url(#pefc8c98a73)" d="M 171.030975 43.144051 
L 178.461375 43.144051 
L 178.461375 29.243643 
L 171.030975 29.243643 
z
" style="fill:#279e68;"/>
   </g>
   <g id="patch_52">
    <path clip-path="url(#pefc8c98a73)" d="M 185.891775 39.486049 
L 193.322175 39.486049 
L 193.322175 29.243643 
L 185.891775 29.243643 
z
" style="fill:#279e68;"/>
   </g>
   <g id="matplotlib.axis_1">
    <g id="xtick_1">
     <g id="line2d_1"/>
     <g id="text_1">
      <!-- CD8_Trm -->
      <g transform="translate(24.186821 152.930401)rotate(-30)scale(0.08 -0.08)">
       <defs>
        <path d="M 4122 4306 
L 4122 3641 
Q 3803 3938 3442 4084 
Q 3081 4231 2675 4231 
Q 1875 4231 1450 3742 
Q 1025 3253 1025 2328 
Q 1025 1406 1450 917 
Q 1875 428 2675 428 
Q 3081 428 3442 575 
Q 3803 722 4122 1019 
L 4122 359 
Q 3791 134 3420 21 
Q 3050 -91 2638 -91 
Q 1578 -91 968 557 
Q 359 1206 359 2328 
Q 359 3453 968 4101 
Q 1578 4750 2638 4750 
Q 3056 4750 3426 4639 
Q 3797 4528 4122 4306 
z
" id="DejaVuSans-43" transform="scale(0.015625)"/>
        <path d="M 1259 4147 
L 1259 519 
L 2022 519 
Q 2988 519 3436 956 
Q 3884 1394 3884 2338 
Q 3884 3275 3436 3711 
Q 2988 4147 2022 4147 
L 1259 4147 
z
M 628 4666 
L 1925 4666 
Q 3281 4666 3915 4102 
Q 4550 3538 4550 2338 
Q 4550 1131 3912 565 
Q 3275 0 1925 0 
L 628 0 
L 628 4666 
z
" id="DejaVuSans-44" transform="scale(0.015625)"/>
        <path d="M 2034 2216 
Q 1584 2216 1326 1975 
Q 1069 1734 1069 1313 
Q 1069 891 1326 650 
Q 1584 409 2034 409 
Q 2484 409 2743 651 
Q 3003 894 3003 1313 
Q 3003 1734 2745 1975 
Q 2488 2216 2034 2216 
z
M 1403 2484 
Q 997 2584 770 2862 
Q 544 3141 544 3541 
Q 544 4100 942 4425 
Q 1341 4750 2034 4750 
Q 2731 4750 3128 4425 
Q 3525 4100 3525 3541 
Q 3525 3141 3298 2862 
Q 3072 2584 2669 2484 
Q 3125 2378 3379 2068 
Q 3634 1759 3634 1313 
Q 3634 634 3220 271 
Q 2806 -91 2034 -91 
Q 1263 -91 848 271 
Q 434 634 434 1313 
Q 434 1759 690 2068 
Q 947 2378 1403 2484 
z
M 1172 3481 
Q 1172 3119 1398 2916 
Q 1625 2713 2034 2713 
Q 2441 2713 2670 2916 
Q 2900 3119 2900 3481 
Q 2900 3844 2670 4047 
Q 2441 4250 2034 4250 
Q 1625 4250 1398 4047 
Q 1172 3844 1172 3481 
z
" id="DejaVuSans-38" transform="scale(0.015625)"/>
        <path d="M 3263 -1063 
L 3263 -1509 
L -63 -1509 
L -63 -1063 
L 3263 -1063 
z
" id="DejaVuSans-5f" transform="scale(0.015625)"/>
        <path d="M -19 4666 
L 3928 4666 
L 3928 4134 
L 2272 4134 
L 2272 0 
L 1638 0 
L 1638 4134 
L -19 4134 
L -19 4666 
z
" id="DejaVuSans-54" transform="scale(0.015625)"/>
        <path d="M 2631 2963 
Q 2534 3019 2420 3045 
Q 2306 3072 2169 3072 
Q 1681 3072 1420 2755 
Q 1159 2438 1159 1844 
L 1159 0 
L 581 0 
L 581 3500 
L 1159 3500 
L 1159 2956 
Q 1341 3275 1631 3429 
Q 1922 3584 2338 3584 
Q 2397 3584 2469 3576 
Q 2541 3569 2628 3553 
L 2631 2963 
z
" id="DejaVuSans-72" transform="scale(0.015625)"/>
        <path d="M 3328 2828 
Q 3544 3216 3844 3400 
Q 4144 3584 4550 3584 
Q 5097 3584 5394 3201 
Q 5691 2819 5691 2113 
L 5691 0 
L 5113 0 
L 5113 2094 
Q 5113 2597 4934 2840 
Q 4756 3084 4391 3084 
Q 3944 3084 3684 2787 
Q 3425 2491 3425 1978 
L 3425 0 
L 2847 0 
L 2847 2094 
Q 2847 2600 2669 2842 
Q 2491 3084 2119 3084 
Q 1678 3084 1418 2786 
Q 1159 2488 1159 1978 
L 1159 0 
L 581 0 
L 581 3500 
L 1159 3500 
L 1159 2956 
Q 1356 3278 1631 3431 
Q 1906 3584 2284 3584 
Q 2666 3584 2933 3390 
Q 3200 3197 3328 2828 
z
" id="DejaVuSans-6d" transform="scale(0.015625)"/>
       </defs>
       <use xlink:href="#DejaVuSans-43"/>
       <use x="69.824219" xlink:href="#DejaVuSans-44"/>
       <use x="146.826172" xlink:href="#DejaVuSans-38"/>
       <use x="210.449219" xlink:href="#DejaVuSans-5f"/>
       <use x="260.449219" xlink:href="#DejaVuSans-54"/>
       <use x="306.783203" xlink:href="#DejaVuSans-72"/>
       <use x="346.146484" xlink:href="#DejaVuSans-6d"/>
      </g>
     </g>
    </g>
    <g id="xtick_2">
     <g id="line2d_2"/>
     <g id="text_2">
      <!-- CD4_TCF7 -->
      <g transform="translate(34.67744 155.453526)rotate(-30)scale(0.08 -0.08)">
       <defs>
        <path d="M 2419 4116 
L 825 1625 
L 2419 1625 
L 2419 4116 
z
M 2253 4666 
L 3047 4666 
L 3047 1625 
L 3713 1625 
L 3713 1100 
L 3047 1100 
L 3047 0 
L 2419 0 
L 2419 1100 
L 313 1100 
L 313 1709 
L 2253 4666 
z
" id="DejaVuSans-34" transform="scale(0.015625)"/>
        <path d="M 628 4666 
L 3309 4666 
L 3309 4134 
L 1259 4134 
L 1259 2759 
L 3109 2759 
L 3109 2228 
L 1259 2228 
L 1259 0 
L 628 0 
L 628 4666 
z
" id="DejaVuSans-46" transform="scale(0.015625)"/>
        <path d="M 525 4666 
L 3525 4666 
L 3525 4397 
L 1831 0 
L 1172 0 
L 2766 4134 
L 525 4134 
L 525 4666 
z
" id="DejaVuSans-37" transform="scale(0.015625)"/>
       </defs>
       <use xlink:href="#DejaVuSans-43"/>
       <use x="69.824219" xlink:href="#DejaVuSans-44"/>
       <use x="146.826172" xlink:href="#DejaVuSans-34"/>
       <use x="210.449219" xlink:href="#DejaVuSans-5f"/>
       <use x="260.449219" xlink:href="#DejaVuSans-54"/>
       <use x="315.658203" xlink:href="#DejaVuSans-43"/>
       <use x="385.482422" xlink:href="#DejaVuSans-46"/>
       <use x="443.001953" xlink:href="#DejaVuSans-37"/>
      </g>
     </g>
    </g>
    <g id="xtick_3">
     <g id="line2d_3"/>
     <g id="text_3">
      <!-- CD4_FOSS -->
      <g transform="translate(48.358281 156.134776)rotate(-30)scale(0.08 -0.08)">
       <defs>
        <path d="M 2522 4238 
Q 1834 4238 1429 3725 
Q 1025 3213 1025 2328 
Q 1025 1447 1429 934 
Q 1834 422 2522 422 
Q 3209 422 3611 934 
Q 4013 1447 4013 2328 
Q 4013 3213 3611 3725 
Q 3209 4238 2522 4238 
z
M 2522 4750 
Q 3503 4750 4090 4092 
Q 4678 3434 4678 2328 
Q 4678 1225 4090 567 
Q 3503 -91 2522 -91 
Q 1538 -91 948 565 
Q 359 1222 359 2328 
Q 359 3434 948 4092 
Q 1538 4750 2522 4750 
z
" id="DejaVuSans-4f" transform="scale(0.015625)"/>
        <path d="M 3425 4513 
L 3425 3897 
Q 3066 4069 2747 4153 
Q 2428 4238 2131 4238 
Q 1616 4238 1336 4038 
Q 1056 3838 1056 3469 
Q 1056 3159 1242 3001 
Q 1428 2844 1947 2747 
L 2328 2669 
Q 3034 2534 3370 2195 
Q 3706 1856 3706 1288 
Q 3706 609 3251 259 
Q 2797 -91 1919 -91 
Q 1588 -91 1214 -16 
Q 841 59 441 206 
L 441 856 
Q 825 641 1194 531 
Q 1563 422 1919 422 
Q 2459 422 2753 634 
Q 3047 847 3047 1241 
Q 3047 1584 2836 1778 
Q 2625 1972 2144 2069 
L 1759 2144 
Q 1053 2284 737 2584 
Q 422 2884 422 3419 
Q 422 4038 858 4394 
Q 1294 4750 2059 4750 
Q 2388 4750 2728 4690 
Q 3069 4631 3425 4513 
z
" id="DejaVuSans-53" transform="scale(0.015625)"/>
       </defs>
       <use xlink:href="#DejaVuSans-43"/>
       <use x="69.824219" xlink:href="#DejaVuSans-44"/>
       <use x="146.826172" xlink:href="#DejaVuSans-34"/>
       <use x="210.449219" xlink:href="#DejaVuSans-5f"/>
       <use x="260.449219" xlink:href="#DejaVuSans-46"/>
       <use x="317.96875" xlink:href="#DejaVuSans-4f"/>
       <use x="396.679688" xlink:href="#DejaVuSans-53"/>
       <use x="460.15625" xlink:href="#DejaVuSans-53"/>
      </g>
     </g>
    </g>
    <g id="xtick_4">
     <g id="line2d_4"/>
     <g id="text_4">
      <!-- CD4_Trm -->
      <g transform="translate(68.769221 152.930401)rotate(-30)scale(0.08 -0.08)">
       <use xlink:href="#DejaVuSans-43"/>
       <use x="69.824219" xlink:href="#DejaVuSans-44"/>
       <use x="146.826172" xlink:href="#DejaVuSans-34"/>
       <use x="210.449219" xlink:href="#DejaVuSans-5f"/>
       <use x="260.449219" xlink:href="#DejaVuSans-54"/>
       <use x="306.783203" xlink:href="#DejaVuSans-72"/>
       <use x="346.146484" xlink:href="#DejaVuSans-6d"/>
      </g>
     </g>
    </g>
    <g id="xtick_5">
     <g id="line2d_5"/>
     <g id="text_5">
      <!-- CD4_Treg -->
      <g transform="translate(81.751828 154.014776)rotate(-30)scale(0.08 -0.08)">
       <defs>
        <path d="M 3597 1894 
L 3597 1613 
L 953 1613 
Q 991 1019 1311 708 
Q 1631 397 2203 397 
Q 2534 397 2845 478 
Q 3156 559 3463 722 
L 3463 178 
Q 3153 47 2828 -22 
Q 2503 -91 2169 -91 
Q 1331 -91 842 396 
Q 353 884 353 1716 
Q 353 2575 817 3079 
Q 1281 3584 2069 3584 
Q 2775 3584 3186 3129 
Q 3597 2675 3597 1894 
z
M 3022 2063 
Q 3016 2534 2758 2815 
Q 2500 3097 2075 3097 
Q 1594 3097 1305 2825 
Q 1016 2553 972 2059 
L 3022 2063 
z
" id="DejaVuSans-65" transform="scale(0.015625)"/>
        <path d="M 2906 1791 
Q 2906 2416 2648 2759 
Q 2391 3103 1925 3103 
Q 1463 3103 1205 2759 
Q 947 2416 947 1791 
Q 947 1169 1205 825 
Q 1463 481 1925 481 
Q 2391 481 2648 825 
Q 2906 1169 2906 1791 
z
M 3481 434 
Q 3481 -459 3084 -895 
Q 2688 -1331 1869 -1331 
Q 1566 -1331 1297 -1286 
Q 1028 -1241 775 -1147 
L 775 -588 
Q 1028 -725 1275 -790 
Q 1522 -856 1778 -856 
Q 2344 -856 2625 -561 
Q 2906 -266 2906 331 
L 2906 616 
Q 2728 306 2450 153 
Q 2172 0 1784 0 
Q 1141 0 747 490 
Q 353 981 353 1791 
Q 353 2603 747 3093 
Q 1141 3584 1784 3584 
Q 2172 3584 2450 3431 
Q 2728 3278 2906 2969 
L 2906 3500 
L 3481 3500 
L 3481 434 
z
" id="DejaVuSans-67" transform="scale(0.015625)"/>
       </defs>
       <use xlink:href="#DejaVuSans-43"/>
       <use x="69.824219" xlink:href="#DejaVuSans-44"/>
       <use x="146.826172" xlink:href="#DejaVuSans-34"/>
       <use x="210.449219" xlink:href="#DejaVuSans-5f"/>
       <use x="260.449219" xlink:href="#DejaVuSans-54"/>
       <use x="306.783203" xlink:href="#DejaVuSans-72"/>
       <use x="345.646484" xlink:href="#DejaVuSans-65"/>
       <use x="407.169922" xlink:href="#DejaVuSans-67"/>
      </g>
     </g>
    </g>
    <g id="xtick_6">
     <g id="line2d_6"/>
     <g id="text_6">
      <!-- CD8_Tem -->
      <g transform="translate(97.110593 153.727276)rotate(-30)scale(0.08 -0.08)">
       <use xlink:href="#DejaVuSans-43"/>
       <use x="69.824219" xlink:href="#DejaVuSans-44"/>
       <use x="146.826172" xlink:href="#DejaVuSans-38"/>
       <use x="210.449219" xlink:href="#DejaVuSans-5f"/>
       <use x="260.449219" xlink:href="#DejaVuSans-54"/>
       <use x="304.533203" xlink:href="#DejaVuSans-65"/>
       <use x="366.056641" xlink:href="#DejaVuSans-6d"/>
      </g>
     </g>
    </g>
    <g id="xtick_7">
     <g id="line2d_7"/>
     <g id="text_7">
      <!-- other -->
      <g transform="translate(125.735534 145.967102)rotate(-30)scale(0.08 -0.08)">
       <defs>
        <path d="M 1959 3097 
Q 1497 3097 1228 2736 
Q 959 2375 959 1747 
Q 959 1119 1226 758 
Q 1494 397 1959 397 
Q 2419 397 2687 759 
Q 2956 1122 2956 1747 
Q 2956 2369 2687 2733 
Q 2419 3097 1959 3097 
z
M 1959 3584 
Q 2709 3584 3137 3096 
Q 3566 2609 3566 1747 
Q 3566 888 3137 398 
Q 2709 -91 1959 -91 
Q 1206 -91 779 398 
Q 353 888 353 1747 
Q 353 2609 779 3096 
Q 1206 3584 1959 3584 
z
" id="DejaVuSans-6f" transform="scale(0.015625)"/>
        <path d="M 1172 4494 
L 1172 3500 
L 2356 3500 
L 2356 3053 
L 1172 3053 
L 1172 1153 
Q 1172 725 1289 603 
Q 1406 481 1766 481 
L 2356 481 
L 2356 0 
L 1766 0 
Q 1100 0 847 248 
Q 594 497 594 1153 
L 594 3053 
L 172 3053 
L 172 3500 
L 594 3500 
L 594 4494 
L 1172 4494 
z
" id="DejaVuSans-74" transform="scale(0.015625)"/>
        <path d="M 3513 2113 
L 3513 0 
L 2938 0 
L 2938 2094 
Q 2938 2591 2744 2837 
Q 2550 3084 2163 3084 
Q 1697 3084 1428 2787 
Q 1159 2491 1159 1978 
L 1159 0 
L 581 0 
L 581 4863 
L 1159 4863 
L 1159 2956 
Q 1366 3272 1645 3428 
Q 1925 3584 2291 3584 
Q 2894 3584 3203 3211 
Q 3513 2838 3513 2113 
z
" id="DejaVuSans-68" transform="scale(0.015625)"/>
       </defs>
       <use xlink:href="#DejaVuSans-6f"/>
       <use x="61.181641" xlink:href="#DejaVuSans-74"/>
       <use x="100.390625" xlink:href="#DejaVuSans-68"/>
       <use x="163.769531" xlink:href="#DejaVuSans-65"/>
       <use x="225.292969" xlink:href="#DejaVuSans-72"/>
      </g>
     </g>
    </g>
    <g id="xtick_8">
     <g id="line2d_8"/>
     <g id="text_8">
      <!-- CD8_Teff -->
      <g transform="translate(128.702808 152.769602)rotate(-30)scale(0.08 -0.08)">
       <defs>
        <path d="M 2375 4863 
L 2375 4384 
L 1825 4384 
Q 1516 4384 1395 4259 
Q 1275 4134 1275 3809 
L 1275 3500 
L 2222 3500 
L 2222 3053 
L 1275 3053 
L 1275 0 
L 697 0 
L 697 3053 
L 147 3053 
L 147 3500 
L 697 3500 
L 697 3744 
Q 697 4328 969 4595 
Q 1241 4863 1831 4863 
L 2375 4863 
z
" id="DejaVuSans-66" transform="scale(0.015625)"/>
       </defs>
       <use xlink:href="#DejaVuSans-43"/>
       <use x="69.824219" xlink:href="#DejaVuSans-44"/>
       <use x="146.826172" xlink:href="#DejaVuSans-38"/>
       <use x="210.449219" xlink:href="#DejaVuSans-5f"/>
       <use x="260.449219" xlink:href="#DejaVuSans-54"/>
       <use x="304.533203" xlink:href="#DejaVuSans-65"/>
       <use x="366.056641" xlink:href="#DejaVuSans-66"/>
       <use x="401.261719" xlink:href="#DejaVuSans-66"/>
      </g>
     </g>
    </g>
    <g id="xtick_9">
     <g id="line2d_9"/>
     <g id="text_9">
      <!-- CD4_IL6ST -->
      <g transform="translate(136.816188 156.542901)rotate(-30)scale(0.08 -0.08)">
       <defs>
        <path d="M 628 4666 
L 1259 4666 
L 1259 0 
L 628 0 
L 628 4666 
z
" id="DejaVuSans-49" transform="scale(0.015625)"/>
        <path d="M 628 4666 
L 1259 4666 
L 1259 531 
L 3531 531 
L 3531 0 
L 628 0 
L 628 4666 
z
" id="DejaVuSans-4c" transform="scale(0.015625)"/>
        <path d="M 2113 2584 
Q 1688 2584 1439 2293 
Q 1191 2003 1191 1497 
Q 1191 994 1439 701 
Q 1688 409 2113 409 
Q 2538 409 2786 701 
Q 3034 994 3034 1497 
Q 3034 2003 2786 2293 
Q 2538 2584 2113 2584 
z
M 3366 4563 
L 3366 3988 
Q 3128 4100 2886 4159 
Q 2644 4219 2406 4219 
Q 1781 4219 1451 3797 
Q 1122 3375 1075 2522 
Q 1259 2794 1537 2939 
Q 1816 3084 2150 3084 
Q 2853 3084 3261 2657 
Q 3669 2231 3669 1497 
Q 3669 778 3244 343 
Q 2819 -91 2113 -91 
Q 1303 -91 875 529 
Q 447 1150 447 2328 
Q 447 3434 972 4092 
Q 1497 4750 2381 4750 
Q 2619 4750 2861 4703 
Q 3103 4656 3366 4563 
z
" id="DejaVuSans-36" transform="scale(0.015625)"/>
       </defs>
       <use xlink:href="#DejaVuSans-43"/>
       <use x="69.824219" xlink:href="#DejaVuSans-44"/>
       <use x="146.826172" xlink:href="#DejaVuSans-34"/>
       <use x="210.449219" xlink:href="#DejaVuSans-5f"/>
       <use x="260.449219" xlink:href="#DejaVuSans-49"/>
       <use x="289.941406" xlink:href="#DejaVuSans-4c"/>
       <use x="345.654297" xlink:href="#DejaVuSans-36"/>
       <use x="409.277344" xlink:href="#DejaVuSans-53"/>
       <use x="472.753906" xlink:href="#DejaVuSans-54"/>
      </g>
     </g>
    </g>
    <g id="xtick_10">
     <g id="line2d_10"/>
     <g id="text_10">
      <!-- CD4_RPL32 -->
      <g transform="translate(148.951173 158.116651)rotate(-30)scale(0.08 -0.08)">
       <defs>
        <path d="M 2841 2188 
Q 3044 2119 3236 1894 
Q 3428 1669 3622 1275 
L 4263 0 
L 3584 0 
L 2988 1197 
Q 2756 1666 2539 1819 
Q 2322 1972 1947 1972 
L 1259 1972 
L 1259 0 
L 628 0 
L 628 4666 
L 2053 4666 
Q 2853 4666 3247 4331 
Q 3641 3997 3641 3322 
Q 3641 2881 3436 2590 
Q 3231 2300 2841 2188 
z
M 1259 4147 
L 1259 2491 
L 2053 2491 
Q 2509 2491 2742 2702 
Q 2975 2913 2975 3322 
Q 2975 3731 2742 3939 
Q 2509 4147 2053 4147 
L 1259 4147 
z
" id="DejaVuSans-52" transform="scale(0.015625)"/>
        <path d="M 1259 4147 
L 1259 2394 
L 2053 2394 
Q 2494 2394 2734 2622 
Q 2975 2850 2975 3272 
Q 2975 3691 2734 3919 
Q 2494 4147 2053 4147 
L 1259 4147 
z
M 628 4666 
L 2053 4666 
Q 2838 4666 3239 4311 
Q 3641 3956 3641 3272 
Q 3641 2581 3239 2228 
Q 2838 1875 2053 1875 
L 1259 1875 
L 1259 0 
L 628 0 
L 628 4666 
z
" id="DejaVuSans-50" transform="scale(0.015625)"/>
        <path d="M 2597 2516 
Q 3050 2419 3304 2112 
Q 3559 1806 3559 1356 
Q 3559 666 3084 287 
Q 2609 -91 1734 -91 
Q 1441 -91 1130 -33 
Q 819 25 488 141 
L 488 750 
Q 750 597 1062 519 
Q 1375 441 1716 441 
Q 2309 441 2620 675 
Q 2931 909 2931 1356 
Q 2931 1769 2642 2001 
Q 2353 2234 1838 2234 
L 1294 2234 
L 1294 2753 
L 1863 2753 
Q 2328 2753 2575 2939 
Q 2822 3125 2822 3475 
Q 2822 3834 2567 4026 
Q 2313 4219 1838 4219 
Q 1578 4219 1281 4162 
Q 984 4106 628 3988 
L 628 4550 
Q 988 4650 1302 4700 
Q 1616 4750 1894 4750 
Q 2613 4750 3031 4423 
Q 3450 4097 3450 3541 
Q 3450 3153 3228 2886 
Q 3006 2619 2597 2516 
z
" id="DejaVuSans-33" transform="scale(0.015625)"/>
        <path d="M 1228 531 
L 3431 531 
L 3431 0 
L 469 0 
L 469 531 
Q 828 903 1448 1529 
Q 2069 2156 2228 2338 
Q 2531 2678 2651 2914 
Q 2772 3150 2772 3378 
Q 2772 3750 2511 3984 
Q 2250 4219 1831 4219 
Q 1534 4219 1204 4116 
Q 875 4013 500 3803 
L 500 4441 
Q 881 4594 1212 4672 
Q 1544 4750 1819 4750 
Q 2544 4750 2975 4387 
Q 3406 4025 3406 3419 
Q 3406 3131 3298 2873 
Q 3191 2616 2906 2266 
Q 2828 2175 2409 1742 
Q 1991 1309 1228 531 
z
" id="DejaVuSans-32" transform="scale(0.015625)"/>
       </defs>
       <use xlink:href="#DejaVuSans-43"/>
       <use x="69.824219" xlink:href="#DejaVuSans-44"/>
       <use x="146.826172" xlink:href="#DejaVuSans-34"/>
       <use x="210.449219" xlink:href="#DejaVuSans-5f"/>
       <use x="260.449219" xlink:href="#DejaVuSans-52"/>
       <use x="329.931641" xlink:href="#DejaVuSans-50"/>
       <use x="390.234375" xlink:href="#DejaVuSans-4c"/>
       <use x="445.947266" xlink:href="#DejaVuSans-33"/>
       <use x="509.570312" xlink:href="#DejaVuSans-32"/>
      </g>
     </g>
    </g>
    <g id="text_11">
     <!-- cluster -->
     <g transform="translate(109.13025 169.828941)scale(0.08 -0.08)">
      <defs>
       <path d="M 3122 3366 
L 3122 2828 
Q 2878 2963 2633 3030 
Q 2388 3097 2138 3097 
Q 1578 3097 1268 2742 
Q 959 2388 959 1747 
Q 959 1106 1268 751 
Q 1578 397 2138 397 
Q 2388 397 2633 464 
Q 2878 531 3122 666 
L 3122 134 
Q 2881 22 2623 -34 
Q 2366 -91 2075 -91 
Q 1284 -91 818 406 
Q 353 903 353 1747 
Q 353 2603 823 3093 
Q 1294 3584 2113 3584 
Q 2378 3584 2631 3529 
Q 2884 3475 3122 3366 
z
" id="DejaVuSans-63" transform="scale(0.015625)"/>
       <path d="M 603 4863 
L 1178 4863 
L 1178 0 
L 603 0 
L 603 4863 
z
" id="DejaVuSans-6c" transform="scale(0.015625)"/>
       <path d="M 544 1381 
L 544 3500 
L 1119 3500 
L 1119 1403 
Q 1119 906 1312 657 
Q 1506 409 1894 409 
Q 2359 409 2629 706 
Q 2900 1003 2900 1516 
L 2900 3500 
L 3475 3500 
L 3475 0 
L 2900 0 
L 2900 538 
Q 2691 219 2414 64 
Q 2138 -91 1772 -91 
Q 1169 -91 856 284 
Q 544 659 544 1381 
z
M 1991 3584 
L 1991 3584 
z
" id="DejaVuSans-75" transform="scale(0.015625)"/>
       <path d="M 2834 3397 
L 2834 2853 
Q 2591 2978 2328 3040 
Q 2066 3103 1784 3103 
Q 1356 3103 1142 2972 
Q 928 2841 928 2578 
Q 928 2378 1081 2264 
Q 1234 2150 1697 2047 
L 1894 2003 
Q 2506 1872 2764 1633 
Q 3022 1394 3022 966 
Q 3022 478 2636 193 
Q 2250 -91 1575 -91 
Q 1294 -91 989 -36 
Q 684 19 347 128 
L 347 722 
Q 666 556 975 473 
Q 1284 391 1588 391 
Q 1994 391 2212 530 
Q 2431 669 2431 922 
Q 2431 1156 2273 1281 
Q 2116 1406 1581 1522 
L 1381 1569 
Q 847 1681 609 1914 
Q 372 2147 372 2553 
Q 372 3047 722 3315 
Q 1072 3584 1716 3584 
Q 2034 3584 2315 3537 
Q 2597 3491 2834 3397 
z
" id="DejaVuSans-73" transform="scale(0.015625)"/>
      </defs>
      <use xlink:href="#DejaVuSans-63"/>
      <use x="54.980469" xlink:href="#DejaVuSans-6c"/>
      <use x="82.763672" xlink:href="#DejaVuSans-75"/>
      <use x="146.142578" xlink:href="#DejaVuSans-73"/>
      <use x="198.242188" xlink:href="#DejaVuSans-74"/>
      <use x="237.451172" xlink:href="#DejaVuSans-65"/>
      <use x="298.974609" xlink:href="#DejaVuSans-72"/>
     </g>
    </g>
   </g>
   <g id="matplotlib.axis_2">
    <g id="ytick_1">
     <g id="line2d_11">
      <defs>
       <path d="M 0 0 
L -3.5 0 
" id="mf0adbc3ae0" style="stroke:#000000;stroke-width:0.8;"/>
      </defs>
      <g>
       <use style="stroke:#000000;stroke-width:0.8;" x="48.429375" xlink:href="#mf0adbc3ae0" y="126.5465"/>
      </g>
     </g>
     <g id="text_12">
      <!-- 0.0 -->
      <g transform="translate(19.165 131.865406)scale(0.14 -0.14)">
       <defs>
        <path d="M 2034 4250 
Q 1547 4250 1301 3770 
Q 1056 3291 1056 2328 
Q 1056 1369 1301 889 
Q 1547 409 2034 409 
Q 2525 409 2770 889 
Q 3016 1369 3016 2328 
Q 3016 3291 2770 3770 
Q 2525 4250 2034 4250 
z
M 2034 4750 
Q 2819 4750 3233 4129 
Q 3647 3509 3647 2328 
Q 3647 1150 3233 529 
Q 2819 -91 2034 -91 
Q 1250 -91 836 529 
Q 422 1150 422 2328 
Q 422 3509 836 4129 
Q 1250 4750 2034 4750 
z
" id="DejaVuSans-30" transform="scale(0.015625)"/>
        <path d="M 684 794 
L 1344 794 
L 1344 0 
L 684 0 
L 684 794 
z
" id="DejaVuSans-2e" transform="scale(0.015625)"/>
       </defs>
       <use xlink:href="#DejaVuSans-30"/>
       <use x="63.623047" xlink:href="#DejaVuSans-2e"/>
       <use x="95.410156" xlink:href="#DejaVuSans-30"/>
      </g>
     </g>
    </g>
    <g id="ytick_2">
     <g id="line2d_12">
      <g>
       <use style="stroke:#000000;stroke-width:0.8;" x="48.429375" xlink:href="#mf0adbc3ae0" y="77.895071"/>
      </g>
     </g>
     <g id="text_13">
      <!-- 0.5 -->
      <g transform="translate(19.165 83.213978)scale(0.14 -0.14)">
       <defs>
        <path d="M 691 4666 
L 3169 4666 
L 3169 4134 
L 1269 4134 
L 1269 2991 
Q 1406 3038 1543 3061 
Q 1681 3084 1819 3084 
Q 2600 3084 3056 2656 
Q 3513 2228 3513 1497 
Q 3513 744 3044 326 
Q 2575 -91 1722 -91 
Q 1428 -91 1123 -41 
Q 819 9 494 109 
L 494 744 
Q 775 591 1075 516 
Q 1375 441 1709 441 
Q 2250 441 2565 725 
Q 2881 1009 2881 1497 
Q 2881 1984 2565 2268 
Q 2250 2553 1709 2553 
Q 1456 2553 1204 2497 
Q 953 2441 691 2322 
L 691 4666 
z
" id="DejaVuSans-35" transform="scale(0.015625)"/>
       </defs>
       <use xlink:href="#DejaVuSans-30"/>
       <use x="63.623047" xlink:href="#DejaVuSans-2e"/>
       <use x="95.410156" xlink:href="#DejaVuSans-35"/>
      </g>
     </g>
    </g>
    <g id="ytick_3">
     <g id="line2d_13">
      <g>
       <use style="stroke:#000000;stroke-width:0.8;" x="48.429375" xlink:href="#mf0adbc3ae0" y="29.243643"/>
      </g>
     </g>
     <g id="text_14">
      <!-- 1.0 -->
      <g transform="translate(19.165 34.562549)scale(0.14 -0.14)">
       <defs>
        <path d="M 794 531 
L 1825 531 
L 1825 4091 
L 703 3866 
L 703 4441 
L 1819 4666 
L 2450 4666 
L 2450 531 
L 3481 531 
L 3481 0 
L 794 0 
L 794 531 
z
" id="DejaVuSans-31" transform="scale(0.015625)"/>
       </defs>
       <use xlink:href="#DejaVuSans-31"/>
       <use x="63.623047" xlink:href="#DejaVuSans-2e"/>
       <use x="95.410156" xlink:href="#DejaVuSans-30"/>
      </g>
     </g>
    </g>
    <g id="text_15">
     <!-- Fraction of cells in IR_VDJ_1_v_call -->
     <g transform="translate(13.27875 143.725)rotate(-90)scale(0.08 -0.08)">
      <defs>
       <path d="M 2194 1759 
Q 1497 1759 1228 1600 
Q 959 1441 959 1056 
Q 959 750 1161 570 
Q 1363 391 1709 391 
Q 2188 391 2477 730 
Q 2766 1069 2766 1631 
L 2766 1759 
L 2194 1759 
z
M 3341 1997 
L 3341 0 
L 2766 0 
L 2766 531 
Q 2569 213 2275 61 
Q 1981 -91 1556 -91 
Q 1019 -91 701 211 
Q 384 513 384 1019 
Q 384 1609 779 1909 
Q 1175 2209 1959 2209 
L 2766 2209 
L 2766 2266 
Q 2766 2663 2505 2880 
Q 2244 3097 1772 3097 
Q 1472 3097 1187 3025 
Q 903 2953 641 2809 
L 641 3341 
Q 956 3463 1253 3523 
Q 1550 3584 1831 3584 
Q 2591 3584 2966 3190 
Q 3341 2797 3341 1997 
z
" id="DejaVuSans-61" transform="scale(0.015625)"/>
       <path d="M 603 3500 
L 1178 3500 
L 1178 0 
L 603 0 
L 603 3500 
z
M 603 4863 
L 1178 4863 
L 1178 4134 
L 603 4134 
L 603 4863 
z
" id="DejaVuSans-69" transform="scale(0.015625)"/>
       <path d="M 3513 2113 
L 3513 0 
L 2938 0 
L 2938 2094 
Q 2938 2591 2744 2837 
Q 2550 3084 2163 3084 
Q 1697 3084 1428 2787 
Q 1159 2491 1159 1978 
L 1159 0 
L 581 0 
L 581 3500 
L 1159 3500 
L 1159 2956 
Q 1366 3272 1645 3428 
Q 1925 3584 2291 3584 
Q 2894 3584 3203 3211 
Q 3513 2838 3513 2113 
z
" id="DejaVuSans-6e" transform="scale(0.015625)"/>
       <path id="DejaVuSans-20" transform="scale(0.015625)"/>
       <path d="M 1831 0 
L 50 4666 
L 709 4666 
L 2188 738 
L 3669 4666 
L 4325 4666 
L 2547 0 
L 1831 0 
z
" id="DejaVuSans-56" transform="scale(0.015625)"/>
       <path d="M 628 4666 
L 1259 4666 
L 1259 325 
Q 1259 -519 939 -900 
Q 619 -1281 -91 -1281 
L -331 -1281 
L -331 -750 
L -134 -750 
Q 284 -750 456 -515 
Q 628 -281 628 325 
L 628 4666 
z
" id="DejaVuSans-4a" transform="scale(0.015625)"/>
       <path d="M 191 3500 
L 800 3500 
L 1894 563 
L 2988 3500 
L 3597 3500 
L 2284 0 
L 1503 0 
L 191 3500 
z
" id="DejaVuSans-76" transform="scale(0.015625)"/>
      </defs>
      <use xlink:href="#DejaVuSans-46"/>
      <use x="50.269531" xlink:href="#DejaVuSans-72"/>
      <use x="91.382812" xlink:href="#DejaVuSans-61"/>
      <use x="152.662109" xlink:href="#DejaVuSans-63"/>
      <use x="207.642578" xlink:href="#DejaVuSans-74"/>
      <use x="246.851562" xlink:href="#DejaVuSans-69"/>
      <use x="274.634766" xlink:href="#DejaVuSans-6f"/>
      <use x="335.816406" xlink:href="#DejaVuSans-6e"/>
      <use x="399.195312" xlink:href="#DejaVuSans-20"/>
      <use x="430.982422" xlink:href="#DejaVuSans-6f"/>
      <use x="492.164062" xlink:href="#DejaVuSans-66"/>
      <use x="527.369141" xlink:href="#DejaVuSans-20"/>
      <use x="559.15625" xlink:href="#DejaVuSans-63"/>
      <use x="614.136719" xlink:href="#DejaVuSans-65"/>
      <use x="675.660156" xlink:href="#DejaVuSans-6c"/>
      <use x="703.443359" xlink:href="#DejaVuSans-6c"/>
      <use x="731.226562" xlink:href="#DejaVuSans-73"/>
      <use x="783.326172" xlink:href="#DejaVuSans-20"/>
      <use x="815.113281" xlink:href="#DejaVuSans-69"/>
      <use x="842.896484" xlink:href="#DejaVuSans-6e"/>
      <use x="906.275391" xlink:href="#DejaVuSans-20"/>
      <use x="938.0625" xlink:href="#DejaVuSans-49"/>
      <use x="967.554688" xlink:href="#DejaVuSans-52"/>
      <use x="1037.037109" xlink:href="#DejaVuSans-5f"/>
      <use x="1087.037109" xlink:href="#DejaVuSans-56"/>
      <use x="1155.445312" xlink:href="#DejaVuSans-44"/>
      <use x="1232.447266" xlink:href="#DejaVuSans-4a"/>
      <use x="1261.939453" xlink:href="#DejaVuSans-5f"/>
      <use x="1311.939453" xlink:href="#DejaVuSans-31"/>
      <use x="1375.5625" xlink:href="#DejaVuSans-5f"/>
      <use x="1425.5625" xlink:href="#DejaVuSans-76"/>
      <use x="1484.742188" xlink:href="#DejaVuSans-5f"/>
      <use x="1534.742188" xlink:href="#DejaVuSans-63"/>
      <use x="1589.722656" xlink:href="#DejaVuSans-61"/>
      <use x="1651.001953" xlink:href="#DejaVuSans-6c"/>
      <use x="1678.785156" xlink:href="#DejaVuSans-6c"/>
     </g>
    </g>
   </g>
   <g id="patch_53">
    <path d="M 48.429375 126.5465 
L 48.429375 24.3785 
" style="fill:none;stroke:#000000;stroke-linecap:square;stroke-linejoin:miter;stroke-width:0.8;"/>
   </g>
   <g id="patch_54">
    <path d="M 48.429375 126.5465 
L 197.037375 126.5465 
" style="fill:none;stroke:#000000;stroke-linecap:square;stroke-linejoin:miter;stroke-width:0.8;"/>
   </g>
   <g id="text_16">
    <!-- Fraction of IR_VDJ_1_v_call in each cluster -->
    <g transform="translate(17.962281 18.3785)scale(0.1 -0.1)">
     <use xlink:href="#DejaVuSans-46"/>
     <use x="50.269531" xlink:href="#DejaVuSans-72"/>
     <use x="91.382812" xlink:href="#DejaVuSans-61"/>
     <use x="152.662109" xlink:href="#DejaVuSans-63"/>
     <use x="207.642578" xlink:href="#DejaVuSans-74"/>
     <use x="246.851562" xlink:href="#DejaVuSans-69"/>
     <use x="274.634766" xlink:href="#DejaVuSans-6f"/>
     <use x="335.816406" xlink:href="#DejaVuSans-6e"/>
     <use x="399.195312" xlink:href="#DejaVuSans-20"/>
     <use x="430.982422" xlink:href="#DejaVuSans-6f"/>
     <use x="492.164062" xlink:href="#DejaVuSans-66"/>
     <use x="527.369141" xlink:href="#DejaVuSans-20"/>
     <use x="559.15625" xlink:href="#DejaVuSans-49"/>
     <use x="588.648438" xlink:href="#DejaVuSans-52"/>
     <use x="658.130859" xlink:href="#DejaVuSans-5f"/>
     <use x="708.130859" xlink:href="#DejaVuSans-56"/>
     <use x="776.539062" xlink:href="#DejaVuSans-44"/>
     <use x="853.541016" xlink:href="#DejaVuSans-4a"/>
     <use x="883.033203" xlink:href="#DejaVuSans-5f"/>
     <use x="933.033203" xlink:href="#DejaVuSans-31"/>
     <use x="996.65625" xlink:href="#DejaVuSans-5f"/>
     <use x="1046.65625" xlink:href="#DejaVuSans-76"/>
     <use x="1105.835938" xlink:href="#DejaVuSans-5f"/>
     <use x="1155.835938" xlink:href="#DejaVuSans-63"/>
     <use x="1210.816406" xlink:href="#DejaVuSans-61"/>
     <use x="1272.095703" xlink:href="#DejaVuSans-6c"/>
     <use x="1299.878906" xlink:href="#DejaVuSans-6c"/>
     <use x="1327.662109" xlink:href="#DejaVuSans-20"/>
     <use x="1359.449219" xlink:href="#DejaVuSans-69"/>
     <use x="1387.232422" xlink:href="#DejaVuSans-6e"/>
     <use x="1450.611328" xlink:href="#DejaVuSans-20"/>
     <use x="1482.398438" xlink:href="#DejaVuSans-65"/>
     <use x="1543.921875" xlink:href="#DejaVuSans-61"/>
     <use x="1605.201172" xlink:href="#DejaVuSans-63"/>
     <use x="1660.181641" xlink:href="#DejaVuSans-68"/>
     <use x="1723.560547" xlink:href="#DejaVuSans-20"/>
     <use x="1755.347656" xlink:href="#DejaVuSans-63"/>
     <use x="1810.328125" xlink:href="#DejaVuSans-6c"/>
     <use x="1838.111328" xlink:href="#DejaVuSans-75"/>
     <use x="1901.490234" xlink:href="#DejaVuSans-73"/>
     <use x="1953.589844" xlink:href="#DejaVuSans-74"/>
     <use x="1992.798828" xlink:href="#DejaVuSans-65"/>
     <use x="2054.322266" xlink:href="#DejaVuSans-72"/>
    </g>
   </g>
   <g id="legend_1">
    <g id="patch_55">
     <path d="M 233.958975 37.65725 
L 237.958975 37.65725 
L 237.958975 32.05725 
L 233.958975 32.05725 
z
" style="fill:#d62728;"/>
    </g>
    <g id="text_17">
     <!-- TRBV20-1 -->
     <g transform="translate(241.158975 37.65725)scale(0.08 -0.08)">
      <defs>
       <path d="M 1259 2228 
L 1259 519 
L 2272 519 
Q 2781 519 3026 730 
Q 3272 941 3272 1375 
Q 3272 1813 3026 2020 
Q 2781 2228 2272 2228 
L 1259 2228 
z
M 1259 4147 
L 1259 2741 
L 2194 2741 
Q 2656 2741 2882 2914 
Q 3109 3088 3109 3444 
Q 3109 3797 2882 3972 
Q 2656 4147 2194 4147 
L 1259 4147 
z
M 628 4666 
L 2241 4666 
Q 2963 4666 3353 4366 
Q 3744 4066 3744 3513 
Q 3744 3084 3544 2831 
Q 3344 2578 2956 2516 
Q 3422 2416 3680 2098 
Q 3938 1781 3938 1306 
Q 3938 681 3513 340 
Q 3088 0 2303 0 
L 628 0 
L 628 4666 
z
" id="DejaVuSans-42" transform="scale(0.015625)"/>
       <path d="M 313 2009 
L 1997 2009 
L 1997 1497 
L 313 1497 
L 313 2009 
z
" id="DejaVuSans-2d" transform="scale(0.015625)"/>
      </defs>
      <use xlink:href="#DejaVuSans-54"/>
      <use x="61.083984" xlink:href="#DejaVuSans-52"/>
      <use x="130.566406" xlink:href="#DejaVuSans-42"/>
      <use x="196.044922" xlink:href="#DejaVuSans-56"/>
      <use x="264.453125" xlink:href="#DejaVuSans-32"/>
      <use x="328.076172" xlink:href="#DejaVuSans-30"/>
      <use x="391.699219" xlink:href="#DejaVuSans-2d"/>
      <use x="427.783203" xlink:href="#DejaVuSans-31"/>
     </g>
    </g>
    <g id="patch_56">
     <path d="M 233.958975 49.39975 
L 237.958975 49.39975 
L 237.958975 43.79975 
L 233.958975 43.79975 
z
" style="fill:#ff7f0e;"/>
    </g>
    <g id="text_18">
     <!-- TRBV7-2 -->
     <g transform="translate(241.158975 49.39975)scale(0.08 -0.08)">
      <use xlink:href="#DejaVuSans-54"/>
      <use x="61.083984" xlink:href="#DejaVuSans-52"/>
      <use x="130.566406" xlink:href="#DejaVuSans-42"/>
      <use x="196.044922" xlink:href="#DejaVuSans-56"/>
      <use x="264.453125" xlink:href="#DejaVuSans-37"/>
      <use x="328.076172" xlink:href="#DejaVuSans-2d"/>
      <use x="364.160156" xlink:href="#DejaVuSans-32"/>
     </g>
    </g>
    <g id="patch_57">
     <path d="M 233.958975 61.14225 
L 237.958975 61.14225 
L 237.958975 55.54225 
L 233.958975 55.54225 
z
" style="fill:#aa40fc;"/>
    </g>
    <g id="text_19">
     <!-- TRBV28 -->
     <g transform="translate(241.158975 61.14225)scale(0.08 -0.08)">
      <use xlink:href="#DejaVuSans-54"/>
      <use x="61.083984" xlink:href="#DejaVuSans-52"/>
      <use x="130.566406" xlink:href="#DejaVuSans-42"/>
      <use x="196.044922" xlink:href="#DejaVuSans-56"/>
      <use x="264.453125" xlink:href="#DejaVuSans-32"/>
      <use x="328.076172" xlink:href="#DejaVuSans-38"/>
     </g>
    </g>
    <g id="patch_58">
     <path d="M 233.958975 72.88475 
L 237.958975 72.88475 
L 237.958975 67.28475 
L 233.958975 67.28475 
z
" style="fill:#1f77b4;"/>
    </g>
    <g id="text_20">
     <!-- TRBV5-1 -->
     <g transform="translate(241.158975 72.88475)scale(0.08 -0.08)">
      <use xlink:href="#DejaVuSans-54"/>
      <use x="61.083984" xlink:href="#DejaVuSans-52"/>
      <use x="130.566406" xlink:href="#DejaVuSans-42"/>
      <use x="196.044922" xlink:href="#DejaVuSans-56"/>
      <use x="264.453125" xlink:href="#DejaVuSans-35"/>
      <use x="328.076172" xlink:href="#DejaVuSans-2d"/>
      <use x="364.160156" xlink:href="#DejaVuSans-31"/>
     </g>
    </g>
    <g id="patch_59">
     <path d="M 233.958975 84.62725 
L 237.958975 84.62725 
L 237.958975 79.02725 
L 233.958975 79.02725 
z
" style="fill:#279e68;"/>
    </g>
    <g id="text_21">
     <!-- TRBV7-9 -->
     <g transform="translate(241.158975 84.62725)scale(0.08 -0.08)">
      <defs>
       <path d="M 703 97 
L 703 672 
Q 941 559 1184 500 
Q 1428 441 1663 441 
Q 2288 441 2617 861 
Q 2947 1281 2994 2138 
Q 2813 1869 2534 1725 
Q 2256 1581 1919 1581 
Q 1219 1581 811 2004 
Q 403 2428 403 3163 
Q 403 3881 828 4315 
Q 1253 4750 1959 4750 
Q 2769 4750 3195 4129 
Q 3622 3509 3622 2328 
Q 3622 1225 3098 567 
Q 2575 -91 1691 -91 
Q 1453 -91 1209 -44 
Q 966 3 703 97 
z
M 1959 2075 
Q 2384 2075 2632 2365 
Q 2881 2656 2881 3163 
Q 2881 3666 2632 3958 
Q 2384 4250 1959 4250 
Q 1534 4250 1286 3958 
Q 1038 3666 1038 3163 
Q 1038 2656 1286 2365 
Q 1534 2075 1959 2075 
z
" id="DejaVuSans-39" transform="scale(0.015625)"/>
      </defs>
      <use xlink:href="#DejaVuSans-54"/>
      <use x="61.083984" xlink:href="#DejaVuSans-52"/>
      <use x="130.566406" xlink:href="#DejaVuSans-42"/>
      <use x="196.044922" xlink:href="#DejaVuSans-56"/>
      <use x="264.453125" xlink:href="#DejaVuSans-37"/>
      <use x="328.076172" xlink:href="#DejaVuSans-2d"/>
      <use x="364.160156" xlink:href="#DejaVuSans-39"/>
     </g>
    </g>
   </g>
  </g>
 </g>
 <defs>
  <clipPath id="pefc8c98a73">
   <rect height="102.168" width="148.608" x="48.429375" y="24.3785"/>
  </clipPath>
 </defs>
</svg>
