<?xml version="1.0" encoding="utf-8" standalone="no"?>
<!DOCTYPE svg PUBLIC "-//W3C//DTD SVG 1.1//EN"
  "http://www.w3.org/Graphics/SVG/1.1/DTD/svg11.dtd">
<svg height="218.912813pt" version="1.1" viewBox="0 0 273.573281 218.912813" width="273.573281pt" xmlns="http://www.w3.org/2000/svg" xmlns:xlink="http://www.w3.org/1999/xlink">
 <metadata>
  <rdf:RDF xmlns:cc="http://creativecommons.org/ns#" xmlns:dc="http://purl.org/dc/elements/1.1/" xmlns:rdf="http://www.w3.org/1999/02/22-rdf-syntax-ns#">
   <cc:Work>
    <dc:type rdf:resource="http://purl.org/dc/dcmitype/StillImage"/>
    <dc:date>2021-04-13T12:31:16.067265</dc:date>
    <dc:format>image/svg+xml</dc:format>
    <dc:creator>
     <cc:Agent>
      <dc:title>Matplotlib v3.4.1, https://matplotlib.org/</dc:title>
     </cc:Agent>
    </dc:creator>
   </cc:Work>
  </rdf:RDF>
 </metadata>
 <defs>
  <style type="text/css">*{stroke-linecap:butt;stroke-linejoin:round;}</style>
 </defs>
 <g id="figure_1">
  <g id="patch_1">
   <path d="M 0 218.912813 
L 273.573281 218.912813 
L 273.573281 0 
L 0 0 
z
" style="fill:#ffffff;"/>
  </g>
  <g id="axes_1">
   <g id="patch_2">
    <path d="M 48.613281 179.198438 
L 221.413281 179.198438 
L 221.413281 20.798437 
L 48.613281 20.798437 
z
" style="fill:#ffffff;"/>
   </g>
   <g id="PathCollection_1">
    <path clip-path="url(#p5776aaf1b6)" d="M 48.613281 183.215674 
C 52.910063 183.215674 57.031437 181.508545 60.06972 178.470261 
C 63.108004 175.431978 64.815133 171.310603 64.815133 167.013822 
C 64.815133 162.717041 63.108004 158.595666 60.06972 155.557383 
C 57.031437 152.5191 52.910063 150.81197 48.613281 150.81197 
C 44.3165 150.81197 40.195125 152.5191 37.156842 155.557383 
C 34.118559 158.595666 32.41143 162.717041 32.41143 167.013822 
C 32.41143 171.310603 34.118559 175.431978 37.156842 178.470261 
C 40.195125 181.508545 44.3165 183.215674 48.613281 183.215674 
z
" style="fill:#1f77b4;fill-opacity:0.3;stroke:#1f77b4;stroke-opacity:0.3;"/>
    <path clip-path="url(#p5776aaf1b6)" d="M 48.613281 161.39088 
C 50.353457 161.39088 52.022595 160.699501 53.253085 159.46901 
C 54.483575 158.23852 55.174954 156.569383 55.174954 154.829207 
C 55.174954 153.089031 54.483575 151.419893 53.253085 150.189403 
C 52.022595 148.958913 50.353457 148.267534 48.613281 148.267534 
C 46.873105 148.267534 45.203968 148.958913 43.973478 150.189403 
C 42.742987 151.419893 42.051608 153.089031 42.051608 154.829207 
C 42.051608 156.569383 42.742987 158.23852 43.973478 159.46901 
C 45.203968 160.699501 46.873105 161.39088 48.613281 161.39088 
z
" style="fill:#1f77b4;fill-opacity:0.3;stroke:#1f77b4;stroke-opacity:0.3;"/>
    <path clip-path="url(#p5776aaf1b6)" d="M 48.613281 146.893774 
C 49.740178 146.893774 50.821071 146.446054 51.617907 145.649217 
C 52.414743 144.852381 52.862464 143.771488 52.862464 142.644591 
C 52.862464 141.517695 52.414743 140.436801 51.617907 139.639965 
C 50.821071 138.843129 49.740178 138.395408 48.613281 138.395408 
C 47.486385 138.395408 46.405491 138.843129 45.608655 139.639965 
C 44.811819 140.436801 44.364098 141.517695 44.364098 142.644591 
C 44.364098 143.771488 44.811819 144.852381 45.608655 145.649217 
C 46.405491 146.446054 47.486385 146.893774 48.613281 146.893774 
z
" style="fill:#1f77b4;fill-opacity:0.3;stroke:#1f77b4;stroke-opacity:0.3;"/>
    <path clip-path="url(#p5776aaf1b6)" d="M 48.613281 134.124117 
C 49.585023 134.124117 50.517095 133.73804 51.20422 133.050915 
C 51.891345 132.36379 52.277422 131.431717 52.277422 130.459976 
C 52.277422 129.488235 51.891345 128.556162 51.20422 127.869037 
C 50.517095 127.181912 49.585023 126.795835 48.613281 126.795835 
C 47.64154 126.795835 46.709468 127.181912 46.022343 127.869037 
C 45.335218 128.556162 44.949141 129.488235 44.949141 130.459976 
C 44.949141 131.431717 45.335218 132.36379 46.022343 133.050915 
C 46.709468 133.73804 47.64154 134.124117 48.613281 134.124117 
z
" style="fill:#1f77b4;fill-opacity:0.3;stroke:#1f77b4;stroke-opacity:0.3;"/>
    <path clip-path="url(#p5776aaf1b6)" d="M 48.613281 121.810894 
C 49.550916 121.810894 50.450274 121.438368 51.113281 120.775361 
C 51.776289 120.112353 52.148815 119.212995 52.148815 118.275361 
C 52.148815 117.337726 51.776289 116.438368 51.113281 115.775361 
C 50.450274 115.112353 49.550916 114.739827 48.613281 114.739827 
C 47.675647 114.739827 46.776289 115.112353 46.113281 115.775361 
C 45.450274 116.438368 45.077747 117.337726 45.077747 118.275361 
C 45.077747 119.212995 45.450274 120.112353 46.113281 120.775361 
C 46.776289 121.438368 47.675647 121.810894 48.613281 121.810894 
z
" style="fill:#1f77b4;fill-opacity:0.3;stroke:#1f77b4;stroke-opacity:0.3;"/>
    <path clip-path="url(#p5776aaf1b6)" d="M 61.905589 187.991322 
C 64.237489 187.991322 66.474195 187.064848 68.123097 185.415946 
C 69.772 183.767043 70.698473 181.530338 70.698473 179.198438 
C 70.698473 176.866537 69.772 174.629832 68.123097 172.980929 
C 66.474195 171.332027 64.237489 170.405553 61.905589 170.405553 
C 59.573689 170.405553 57.336983 171.332027 55.688081 172.980929 
C 54.039178 174.629832 53.112705 176.866537 53.112705 179.198438 
C 53.112705 181.530338 54.039178 183.767043 55.688081 185.415946 
C 57.336983 187.064848 59.573689 187.991322 61.905589 187.991322 
z
" style="fill:#1f77b4;fill-opacity:0.3;stroke:#1f77b4;stroke-opacity:0.3;"/>
    <path clip-path="url(#p5776aaf1b6)" d="M 61.905589 171.370596 
C 63.061019 171.370596 64.169281 170.911539 64.986294 170.094527 
C 65.803306 169.277514 66.262363 168.169252 66.262363 167.013822 
C 66.262363 165.858392 65.803306 164.75013 64.986294 163.933118 
C 64.169281 163.116105 63.061019 162.657048 61.905589 162.657048 
C 60.750159 162.657048 59.641897 163.116105 58.824884 163.933118 
C 58.007872 164.75013 57.548815 165.858392 57.548815 167.013822 
C 57.548815 168.169252 58.007872 169.277514 58.824884 170.094527 
C 59.641897 170.911539 60.750159 171.370596 61.905589 171.370596 
z
" style="fill:#1f77b4;fill-opacity:0.3;stroke:#1f77b4;stroke-opacity:0.3;"/>
    <path clip-path="url(#p5776aaf1b6)" d="M 61.905589 158.493347 
C 62.87733 158.493347 63.809403 158.10727 64.496528 157.420145 
C 65.183653 156.73302 65.569729 155.800948 65.569729 154.829207 
C 65.569729 153.857465 65.183653 152.925393 64.496528 152.238268 
C 63.809403 151.551143 62.87733 151.165066 61.905589 151.165066 
C 60.933848 151.165066 60.001775 151.551143 59.31465 152.238268 
C 58.627525 152.925393 58.241448 153.857465 58.241448 154.829207 
C 58.241448 155.800948 58.627525 156.73302 59.31465 157.420145 
C 60.001775 158.10727 60.933848 158.493347 61.905589 158.493347 
z
" style="fill:#1f77b4;fill-opacity:0.3;stroke:#1f77b4;stroke-opacity:0.3;"/>
    <path clip-path="url(#p5776aaf1b6)" d="M 61.905589 109.626279 
C 62.843223 109.626279 63.742581 109.253753 64.405589 108.590745 
C 65.068597 107.927737 65.441123 107.02838 65.441123 106.090745 
C 65.441123 105.153111 65.068597 104.253753 64.405589 103.590745 
C 63.742581 102.927737 62.843223 102.555211 61.905589 102.555211 
C 60.967954 102.555211 60.068597 102.927737 59.405589 103.590745 
C 58.742581 104.253753 58.370055 105.153111 58.370055 106.090745 
C 58.370055 107.02838 58.742581 107.927737 59.405589 108.590745 
C 60.068597 109.253753 60.967954 109.626279 61.905589 109.626279 
z
" style="fill:#1f77b4;fill-opacity:0.3;stroke:#1f77b4;stroke-opacity:0.3;"/>
    <path clip-path="url(#p5776aaf1b6)" d="M 75.197897 183.337233 
C 76.295518 183.337233 77.348332 182.901144 78.124467 182.125008 
C 78.900603 181.348872 79.336692 180.296059 79.336692 179.198438 
C 79.336692 178.100816 78.900603 177.048003 78.124467 176.271867 
C 77.348332 175.495731 76.295518 175.059642 75.197897 175.059642 
C 74.100275 175.059642 73.047462 175.495731 72.271326 176.271867 
C 71.495191 177.048003 71.059101 178.100816 71.059101 179.198438 
C 71.059101 180.296059 71.495191 181.348872 72.271326 182.125008 
C 73.047462 182.901144 74.100275 183.337233 75.197897 183.337233 
z
" style="fill:#1f77b4;fill-opacity:0.3;stroke:#1f77b4;stroke-opacity:0.3;"/>
    <path clip-path="url(#p5776aaf1b6)" d="M 75.197897 158.364741 
C 76.135531 158.364741 77.034889 157.992214 77.697897 157.329207 
C 78.360904 156.666199 78.733431 155.766841 78.733431 154.829207 
C 78.733431 153.891572 78.360904 152.992214 77.697897 152.329207 
C 77.034889 151.666199 76.135531 151.293673 75.197897 151.293673 
C 74.260262 151.293673 73.360904 151.666199 72.697897 152.329207 
C 72.034889 152.992214 71.662363 153.891572 71.662363 154.829207 
C 71.662363 155.766841 72.034889 156.666199 72.697897 157.329207 
C 73.360904 157.992214 74.260262 158.364741 75.197897 158.364741 
z
" style="fill:#1f77b4;fill-opacity:0.3;stroke:#1f77b4;stroke-opacity:0.3;"/>
    <path clip-path="url(#p5776aaf1b6)" d="M 88.490204 170.549356 
C 89.427839 170.549356 90.327197 170.17683 90.990204 169.513822 
C 91.653212 168.850814 92.025738 167.951457 92.025738 167.013822 
C 92.025738 166.076188 91.653212 165.17683 90.990204 164.513822 
C 90.327197 163.850814 89.427839 163.478288 88.490204 163.478288 
C 87.55257 163.478288 86.653212 163.850814 85.990204 164.513822 
C 85.327197 165.17683 84.95467 166.076188 84.95467 167.013822 
C 84.95467 167.951457 85.327197 168.850814 85.990204 169.513822 
C 86.653212 170.17683 87.55257 170.549356 88.490204 170.549356 
z
" style="fill:#1f77b4;fill-opacity:0.3;stroke:#1f77b4;stroke-opacity:0.3;"/>
    <path clip-path="url(#p5776aaf1b6)" d="M 88.490204 146.180125 
C 89.427839 146.180125 90.327197 145.807599 90.990204 145.144591 
C 91.653212 144.481584 92.025738 143.582226 92.025738 142.644591 
C 92.025738 141.706957 91.653212 140.807599 90.990204 140.144591 
C 90.327197 139.481584 89.427839 139.109057 88.490204 139.109057 
C 87.55257 139.109057 86.653212 139.481584 85.990204 140.144591 
C 85.327197 140.807599 84.95467 141.706957 84.95467 142.644591 
C 84.95467 143.582226 85.327197 144.481584 85.990204 145.144591 
C 86.653212 145.807599 87.55257 146.180125 88.490204 146.180125 
z
" style="fill:#1f77b4;fill-opacity:0.3;stroke:#1f77b4;stroke-opacity:0.3;"/>
    <path clip-path="url(#p5776aaf1b6)" d="M 101.782512 170.549356 
C 102.720147 170.549356 103.619504 170.17683 104.282512 169.513822 
C 104.94552 168.850814 105.318046 167.951457 105.318046 167.013822 
C 105.318046 166.076188 104.94552 165.17683 104.282512 164.513822 
C 103.619504 163.850814 102.720147 163.478288 101.782512 163.478288 
C 100.844877 163.478288 99.94552 163.850814 99.282512 164.513822 
C 98.619504 165.17683 98.246978 166.076188 98.246978 167.013822 
C 98.246978 167.951457 98.619504 168.850814 99.282512 169.513822 
C 99.94552 170.17683 100.844877 170.549356 101.782512 170.549356 
z
" style="fill:#1f77b4;fill-opacity:0.3;stroke:#1f77b4;stroke-opacity:0.3;"/>
    <path clip-path="url(#p5776aaf1b6)" d="M 101.782512 36.518587 
C 102.720147 36.518587 103.619504 36.146061 104.282512 35.483053 
C 104.94552 34.820045 105.318046 33.920687 105.318046 32.983053 
C 105.318046 32.045418 104.94552 31.146061 104.282512 30.483053 
C 103.619504 29.820045 102.720147 29.447519 101.782512 29.447519 
C 100.844877 29.447519 99.94552 29.820045 99.282512 30.483053 
C 98.619504 31.146061 98.246978 32.045418 98.246978 32.983053 
C 98.246978 33.920687 98.619504 34.820045 99.282512 35.483053 
C 99.94552 36.146061 100.844877 36.518587 101.782512 36.518587 
z
" style="fill:#1f77b4;fill-opacity:0.3;stroke:#1f77b4;stroke-opacity:0.3;"/>
    <path clip-path="url(#p5776aaf1b6)" d="M 115.07482 182.733971 
C 116.012454 182.733971 116.911812 182.361445 117.57482 181.698438 
C 118.237827 181.03543 118.610354 180.136072 118.610354 179.198438 
C 118.610354 178.260803 118.237827 177.361445 117.57482 176.698438 
C 116.911812 176.03543 116.012454 175.662904 115.07482 175.662904 
C 114.137185 175.662904 113.237827 176.03543 112.57482 176.698438 
C 111.911812 177.361445 111.539286 178.260803 111.539286 179.198438 
C 111.539286 180.136072 111.911812 181.03543 112.57482 181.698438 
C 113.237827 182.361445 114.137185 182.733971 115.07482 182.733971 
z
" style="fill:#1f77b4;fill-opacity:0.3;stroke:#1f77b4;stroke-opacity:0.3;"/>
    <path clip-path="url(#p5776aaf1b6)" d="M 115.07482 121.810894 
C 116.012454 121.810894 116.911812 121.438368 117.57482 120.775361 
C 118.237827 120.112353 118.610354 119.212995 118.610354 118.275361 
C 118.610354 117.337726 118.237827 116.438368 117.57482 115.775361 
C 116.911812 115.112353 116.012454 114.739827 115.07482 114.739827 
C 114.137185 114.739827 113.237827 115.112353 112.57482 115.775361 
C 111.911812 116.438368 111.539286 117.337726 111.539286 118.275361 
C 111.539286 119.212995 111.911812 120.112353 112.57482 120.775361 
C 113.237827 121.438368 114.137185 121.810894 115.07482 121.810894 
z
" style="fill:#1f77b4;fill-opacity:0.3;stroke:#1f77b4;stroke-opacity:0.3;"/>
    <path clip-path="url(#p5776aaf1b6)" d="M 141.659435 158.364741 
C 142.59707 158.364741 143.496427 157.992214 144.159435 157.329207 
C 144.822443 156.666199 145.194969 155.766841 145.194969 154.829207 
C 145.194969 153.891572 144.822443 152.992214 144.159435 152.329207 
C 143.496427 151.666199 142.59707 151.293673 141.659435 151.293673 
C 140.721801 151.293673 139.822443 151.666199 139.159435 152.329207 
C 138.496427 152.992214 138.123901 153.891572 138.123901 154.829207 
C 138.123901 155.766841 138.496427 156.666199 139.159435 157.329207 
C 139.822443 157.992214 140.721801 158.364741 141.659435 158.364741 
z
" style="fill:#1f77b4;fill-opacity:0.3;stroke:#1f77b4;stroke-opacity:0.3;"/>
    <path clip-path="url(#p5776aaf1b6)" d="M 141.659435 121.810894 
C 142.59707 121.810894 143.496427 121.438368 144.159435 120.775361 
C 144.822443 120.112353 145.194969 119.212995 145.194969 118.275361 
C 145.194969 117.337726 144.822443 116.438368 144.159435 115.775361 
C 143.496427 115.112353 142.59707 114.739827 141.659435 114.739827 
C 140.721801 114.739827 139.822443 115.112353 139.159435 115.775361 
C 138.496427 116.438368 138.123901 117.337726 138.123901 118.275361 
C 138.123901 119.212995 138.496427 120.112353 139.159435 120.775361 
C 139.822443 121.438368 140.721801 121.810894 141.659435 121.810894 
z
" style="fill:#1f77b4;fill-opacity:0.3;stroke:#1f77b4;stroke-opacity:0.3;"/>
    <path clip-path="url(#p5776aaf1b6)" d="M 154.951743 182.733971 
C 155.889377 182.733971 156.788735 182.361445 157.451743 181.698438 
C 158.114751 181.03543 158.487277 180.136072 158.487277 179.198438 
C 158.487277 178.260803 158.114751 177.361445 157.451743 176.698438 
C 156.788735 176.03543 155.889377 175.662904 154.951743 175.662904 
C 154.014108 175.662904 153.114751 176.03543 152.451743 176.698438 
C 151.788735 177.361445 151.416209 178.260803 151.416209 179.198438 
C 151.416209 180.136072 151.788735 181.03543 152.451743 181.698438 
C 153.114751 182.361445 154.014108 182.733971 154.951743 182.733971 
z
" style="fill:#1f77b4;fill-opacity:0.3;stroke:#1f77b4;stroke-opacity:0.3;"/>
    <path clip-path="url(#p5776aaf1b6)" d="M 181.536358 182.733971 
C 182.473993 182.733971 183.37335 182.361445 184.036358 181.698438 
C 184.699366 181.03543 185.071892 180.136072 185.071892 179.198438 
C 185.071892 178.260803 184.699366 177.361445 184.036358 176.698438 
C 183.37335 176.03543 182.473993 175.662904 181.536358 175.662904 
C 180.598724 175.662904 179.699366 176.03543 179.036358 176.698438 
C 178.37335 177.361445 178.000824 178.260803 178.000824 179.198438 
C 178.000824 180.136072 178.37335 181.03543 179.036358 181.698438 
C 179.699366 182.361445 180.598724 182.733971 181.536358 182.733971 
z
" style="fill:#1f77b4;fill-opacity:0.3;stroke:#1f77b4;stroke-opacity:0.3;"/>
   </g>
   <g id="matplotlib.axis_1">
    <g id="xtick_1">
     <g id="line2d_1">
      <path clip-path="url(#p5776aaf1b6)" d="M 48.613281 179.198438 
L 48.613281 20.798437 
" style="fill:none;stroke:#cccccc;stroke-linecap:square;stroke-width:0.8;"/>
     </g>
     <g id="line2d_2">
      <defs>
       <path d="M 0 0 
L 0 3.5 
" id="mc6164d8d9c" style="stroke:#000000;stroke-width:0.8;"/>
      </defs>
      <g>
       <use style="stroke:#000000;stroke-width:0.8;" x="48.613281" xlink:href="#mc6164d8d9c" y="179.198438"/>
      </g>
     </g>
     <g id="text_1">
      <!-- 0 -->
      <g transform="translate(44.159531 196.83625)scale(0.14 -0.14)">
       <defs>
        <path d="M 2034 4250 
Q 1547 4250 1301 3770 
Q 1056 3291 1056 2328 
Q 1056 1369 1301 889 
Q 1547 409 2034 409 
Q 2525 409 2770 889 
Q 3016 1369 3016 2328 
Q 3016 3291 2770 3770 
Q 2525 4250 2034 4250 
z
M 2034 4750 
Q 2819 4750 3233 4129 
Q 3647 3509 3647 2328 
Q 3647 1150 3233 529 
Q 2819 -91 2034 -91 
Q 1250 -91 836 529 
Q 422 1150 422 2328 
Q 422 3509 836 4129 
Q 1250 4750 2034 4750 
z
" id="DejaVuSans-30" transform="scale(0.015625)"/>
       </defs>
       <use xlink:href="#DejaVuSans-30"/>
      </g>
     </g>
    </g>
    <g id="xtick_2">
     <g id="line2d_3">
      <path clip-path="url(#p5776aaf1b6)" d="M 115.07482 179.198438 
L 115.07482 20.798437 
" style="fill:none;stroke:#cccccc;stroke-linecap:square;stroke-width:0.8;"/>
     </g>
     <g id="line2d_4">
      <g>
       <use style="stroke:#000000;stroke-width:0.8;" x="115.07482" xlink:href="#mc6164d8d9c" y="179.198438"/>
      </g>
     </g>
     <g id="text_2">
      <!-- 5 -->
      <g transform="translate(110.62107 196.83625)scale(0.14 -0.14)">
       <defs>
        <path d="M 691 4666 
L 3169 4666 
L 3169 4134 
L 1269 4134 
L 1269 2991 
Q 1406 3038 1543 3061 
Q 1681 3084 1819 3084 
Q 2600 3084 3056 2656 
Q 3513 2228 3513 1497 
Q 3513 744 3044 326 
Q 2575 -91 1722 -91 
Q 1428 -91 1123 -41 
Q 819 9 494 109 
L 494 744 
Q 775 591 1075 516 
Q 1375 441 1709 441 
Q 2250 441 2565 725 
Q 2881 1009 2881 1497 
Q 2881 1984 2565 2268 
Q 2250 2553 1709 2553 
Q 1456 2553 1204 2497 
Q 953 2441 691 2322 
L 691 4666 
z
" id="DejaVuSans-35" transform="scale(0.015625)"/>
       </defs>
       <use xlink:href="#DejaVuSans-35"/>
      </g>
     </g>
    </g>
    <g id="xtick_3">
     <g id="line2d_5">
      <path clip-path="url(#p5776aaf1b6)" d="M 181.536358 179.198438 
L 181.536358 20.798437 
" style="fill:none;stroke:#cccccc;stroke-linecap:square;stroke-width:0.8;"/>
     </g>
     <g id="line2d_6">
      <g>
       <use style="stroke:#000000;stroke-width:0.8;" x="181.536358" xlink:href="#mc6164d8d9c" y="179.198438"/>
      </g>
     </g>
     <g id="text_3">
      <!-- 10 -->
      <g transform="translate(172.628858 196.83625)scale(0.14 -0.14)">
       <defs>
        <path d="M 794 531 
L 1825 531 
L 1825 4091 
L 703 3866 
L 703 4441 
L 1819 4666 
L 2450 4666 
L 2450 531 
L 3481 531 
L 3481 0 
L 794 0 
L 794 531 
z
" id="DejaVuSans-31" transform="scale(0.015625)"/>
       </defs>
       <use xlink:href="#DejaVuSans-31"/>
       <use x="63.623047" xlink:href="#DejaVuSans-30"/>
      </g>
     </g>
    </g>
    <g id="text_4">
     <!-- Clonotype size in CD8_Teff -->
     <g transform="translate(82.068281 209.826563)scale(0.08 -0.08)">
      <defs>
       <path d="M 4122 4306 
L 4122 3641 
Q 3803 3938 3442 4084 
Q 3081 4231 2675 4231 
Q 1875 4231 1450 3742 
Q 1025 3253 1025 2328 
Q 1025 1406 1450 917 
Q 1875 428 2675 428 
Q 3081 428 3442 575 
Q 3803 722 4122 1019 
L 4122 359 
Q 3791 134 3420 21 
Q 3050 -91 2638 -91 
Q 1578 -91 968 557 
Q 359 1206 359 2328 
Q 359 3453 968 4101 
Q 1578 4750 2638 4750 
Q 3056 4750 3426 4639 
Q 3797 4528 4122 4306 
z
" id="DejaVuSans-43" transform="scale(0.015625)"/>
       <path d="M 603 4863 
L 1178 4863 
L 1178 0 
L 603 0 
L 603 4863 
z
" id="DejaVuSans-6c" transform="scale(0.015625)"/>
       <path d="M 1959 3097 
Q 1497 3097 1228 2736 
Q 959 2375 959 1747 
Q 959 1119 1226 758 
Q 1494 397 1959 397 
Q 2419 397 2687 759 
Q 2956 1122 2956 1747 
Q 2956 2369 2687 2733 
Q 2419 3097 1959 3097 
z
M 1959 3584 
Q 2709 3584 3137 3096 
Q 3566 2609 3566 1747 
Q 3566 888 3137 398 
Q 2709 -91 1959 -91 
Q 1206 -91 779 398 
Q 353 888 353 1747 
Q 353 2609 779 3096 
Q 1206 3584 1959 3584 
z
" id="DejaVuSans-6f" transform="scale(0.015625)"/>
       <path d="M 3513 2113 
L 3513 0 
L 2938 0 
L 2938 2094 
Q 2938 2591 2744 2837 
Q 2550 3084 2163 3084 
Q 1697 3084 1428 2787 
Q 1159 2491 1159 1978 
L 1159 0 
L 581 0 
L 581 3500 
L 1159 3500 
L 1159 2956 
Q 1366 3272 1645 3428 
Q 1925 3584 2291 3584 
Q 2894 3584 3203 3211 
Q 3513 2838 3513 2113 
z
" id="DejaVuSans-6e" transform="scale(0.015625)"/>
       <path d="M 1172 4494 
L 1172 3500 
L 2356 3500 
L 2356 3053 
L 1172 3053 
L 1172 1153 
Q 1172 725 1289 603 
Q 1406 481 1766 481 
L 2356 481 
L 2356 0 
L 1766 0 
Q 1100 0 847 248 
Q 594 497 594 1153 
L 594 3053 
L 172 3053 
L 172 3500 
L 594 3500 
L 594 4494 
L 1172 4494 
z
" id="DejaVuSans-74" transform="scale(0.015625)"/>
       <path d="M 2059 -325 
Q 1816 -950 1584 -1140 
Q 1353 -1331 966 -1331 
L 506 -1331 
L 506 -850 
L 844 -850 
Q 1081 -850 1212 -737 
Q 1344 -625 1503 -206 
L 1606 56 
L 191 3500 
L 800 3500 
L 1894 763 
L 2988 3500 
L 3597 3500 
L 2059 -325 
z
" id="DejaVuSans-79" transform="scale(0.015625)"/>
       <path d="M 1159 525 
L 1159 -1331 
L 581 -1331 
L 581 3500 
L 1159 3500 
L 1159 2969 
Q 1341 3281 1617 3432 
Q 1894 3584 2278 3584 
Q 2916 3584 3314 3078 
Q 3713 2572 3713 1747 
Q 3713 922 3314 415 
Q 2916 -91 2278 -91 
Q 1894 -91 1617 61 
Q 1341 213 1159 525 
z
M 3116 1747 
Q 3116 2381 2855 2742 
Q 2594 3103 2138 3103 
Q 1681 3103 1420 2742 
Q 1159 2381 1159 1747 
Q 1159 1113 1420 752 
Q 1681 391 2138 391 
Q 2594 391 2855 752 
Q 3116 1113 3116 1747 
z
" id="DejaVuSans-70" transform="scale(0.015625)"/>
       <path d="M 3597 1894 
L 3597 1613 
L 953 1613 
Q 991 1019 1311 708 
Q 1631 397 2203 397 
Q 2534 397 2845 478 
Q 3156 559 3463 722 
L 3463 178 
Q 3153 47 2828 -22 
Q 2503 -91 2169 -91 
Q 1331 -91 842 396 
Q 353 884 353 1716 
Q 353 2575 817 3079 
Q 1281 3584 2069 3584 
Q 2775 3584 3186 3129 
Q 3597 2675 3597 1894 
z
M 3022 2063 
Q 3016 2534 2758 2815 
Q 2500 3097 2075 3097 
Q 1594 3097 1305 2825 
Q 1016 2553 972 2059 
L 3022 2063 
z
" id="DejaVuSans-65" transform="scale(0.015625)"/>
       <path id="DejaVuSans-20" transform="scale(0.015625)"/>
       <path d="M 2834 3397 
L 2834 2853 
Q 2591 2978 2328 3040 
Q 2066 3103 1784 3103 
Q 1356 3103 1142 2972 
Q 928 2841 928 2578 
Q 928 2378 1081 2264 
Q 1234 2150 1697 2047 
L 1894 2003 
Q 2506 1872 2764 1633 
Q 3022 1394 3022 966 
Q 3022 478 2636 193 
Q 2250 -91 1575 -91 
Q 1294 -91 989 -36 
Q 684 19 347 128 
L 347 722 
Q 666 556 975 473 
Q 1284 391 1588 391 
Q 1994 391 2212 530 
Q 2431 669 2431 922 
Q 2431 1156 2273 1281 
Q 2116 1406 1581 1522 
L 1381 1569 
Q 847 1681 609 1914 
Q 372 2147 372 2553 
Q 372 3047 722 3315 
Q 1072 3584 1716 3584 
Q 2034 3584 2315 3537 
Q 2597 3491 2834 3397 
z
" id="DejaVuSans-73" transform="scale(0.015625)"/>
       <path d="M 603 3500 
L 1178 3500 
L 1178 0 
L 603 0 
L 603 3500 
z
M 603 4863 
L 1178 4863 
L 1178 4134 
L 603 4134 
L 603 4863 
z
" id="DejaVuSans-69" transform="scale(0.015625)"/>
       <path d="M 353 3500 
L 3084 3500 
L 3084 2975 
L 922 459 
L 3084 459 
L 3084 0 
L 275 0 
L 275 525 
L 2438 3041 
L 353 3041 
L 353 3500 
z
" id="DejaVuSans-7a" transform="scale(0.015625)"/>
       <path d="M 1259 4147 
L 1259 519 
L 2022 519 
Q 2988 519 3436 956 
Q 3884 1394 3884 2338 
Q 3884 3275 3436 3711 
Q 2988 4147 2022 4147 
L 1259 4147 
z
M 628 4666 
L 1925 4666 
Q 3281 4666 3915 4102 
Q 4550 3538 4550 2338 
Q 4550 1131 3912 565 
Q 3275 0 1925 0 
L 628 0 
L 628 4666 
z
" id="DejaVuSans-44" transform="scale(0.015625)"/>
       <path d="M 2034 2216 
Q 1584 2216 1326 1975 
Q 1069 1734 1069 1313 
Q 1069 891 1326 650 
Q 1584 409 2034 409 
Q 2484 409 2743 651 
Q 3003 894 3003 1313 
Q 3003 1734 2745 1975 
Q 2488 2216 2034 2216 
z
M 1403 2484 
Q 997 2584 770 2862 
Q 544 3141 544 3541 
Q 544 4100 942 4425 
Q 1341 4750 2034 4750 
Q 2731 4750 3128 4425 
Q 3525 4100 3525 3541 
Q 3525 3141 3298 2862 
Q 3072 2584 2669 2484 
Q 3125 2378 3379 2068 
Q 3634 1759 3634 1313 
Q 3634 634 3220 271 
Q 2806 -91 2034 -91 
Q 1263 -91 848 271 
Q 434 634 434 1313 
Q 434 1759 690 2068 
Q 947 2378 1403 2484 
z
M 1172 3481 
Q 1172 3119 1398 2916 
Q 1625 2713 2034 2713 
Q 2441 2713 2670 2916 
Q 2900 3119 2900 3481 
Q 2900 3844 2670 4047 
Q 2441 4250 2034 4250 
Q 1625 4250 1398 4047 
Q 1172 3844 1172 3481 
z
" id="DejaVuSans-38" transform="scale(0.015625)"/>
       <path d="M 3263 -1063 
L 3263 -1509 
L -63 -1509 
L -63 -1063 
L 3263 -1063 
z
" id="DejaVuSans-5f" transform="scale(0.015625)"/>
       <path d="M -19 4666 
L 3928 4666 
L 3928 4134 
L 2272 4134 
L 2272 0 
L 1638 0 
L 1638 4134 
L -19 4134 
L -19 4666 
z
" id="DejaVuSans-54" transform="scale(0.015625)"/>
       <path d="M 2375 4863 
L 2375 4384 
L 1825 4384 
Q 1516 4384 1395 4259 
Q 1275 4134 1275 3809 
L 1275 3500 
L 2222 3500 
L 2222 3053 
L 1275 3053 
L 1275 0 
L 697 0 
L 697 3053 
L 147 3053 
L 147 3500 
L 697 3500 
L 697 3744 
Q 697 4328 969 4595 
Q 1241 4863 1831 4863 
L 2375 4863 
z
" id="DejaVuSans-66" transform="scale(0.015625)"/>
      </defs>
      <use xlink:href="#DejaVuSans-43"/>
      <use x="69.824219" xlink:href="#DejaVuSans-6c"/>
      <use x="97.607422" xlink:href="#DejaVuSans-6f"/>
      <use x="158.789062" xlink:href="#DejaVuSans-6e"/>
      <use x="222.167969" xlink:href="#DejaVuSans-6f"/>
      <use x="283.349609" xlink:href="#DejaVuSans-74"/>
      <use x="322.558594" xlink:href="#DejaVuSans-79"/>
      <use x="381.738281" xlink:href="#DejaVuSans-70"/>
      <use x="445.214844" xlink:href="#DejaVuSans-65"/>
      <use x="506.738281" xlink:href="#DejaVuSans-20"/>
      <use x="538.525391" xlink:href="#DejaVuSans-73"/>
      <use x="590.625" xlink:href="#DejaVuSans-69"/>
      <use x="618.408203" xlink:href="#DejaVuSans-7a"/>
      <use x="670.898438" xlink:href="#DejaVuSans-65"/>
      <use x="732.421875" xlink:href="#DejaVuSans-20"/>
      <use x="764.208984" xlink:href="#DejaVuSans-69"/>
      <use x="791.992188" xlink:href="#DejaVuSans-6e"/>
      <use x="855.371094" xlink:href="#DejaVuSans-20"/>
      <use x="887.158203" xlink:href="#DejaVuSans-43"/>
      <use x="956.982422" xlink:href="#DejaVuSans-44"/>
      <use x="1033.984375" xlink:href="#DejaVuSans-38"/>
      <use x="1097.607422" xlink:href="#DejaVuSans-5f"/>
      <use x="1147.607422" xlink:href="#DejaVuSans-54"/>
      <use x="1191.691406" xlink:href="#DejaVuSans-65"/>
      <use x="1253.214844" xlink:href="#DejaVuSans-66"/>
      <use x="1288.419922" xlink:href="#DejaVuSans-66"/>
     </g>
    </g>
   </g>
   <g id="matplotlib.axis_2">
    <g id="ytick_1">
     <g id="line2d_7">
      <path clip-path="url(#p5776aaf1b6)" d="M 48.613281 179.198438 
L 221.413281 179.198438 
" style="fill:none;stroke:#cccccc;stroke-linecap:square;stroke-width:0.8;"/>
     </g>
     <g id="line2d_8">
      <defs>
       <path d="M 0 0 
L -3.5 0 
" id="m9d2cfbf48a" style="stroke:#000000;stroke-width:0.8;"/>
      </defs>
      <g>
       <use style="stroke:#000000;stroke-width:0.8;" x="48.613281" xlink:href="#m9d2cfbf48a" y="179.198438"/>
      </g>
     </g>
     <g id="text_5">
      <!-- 0 -->
      <g transform="translate(32.705781 184.517344)scale(0.14 -0.14)">
       <use xlink:href="#DejaVuSans-30"/>
      </g>
     </g>
    </g>
    <g id="ytick_2">
     <g id="line2d_9">
      <path clip-path="url(#p5776aaf1b6)" d="M 48.613281 118.275361 
L 221.413281 118.275361 
" style="fill:none;stroke:#cccccc;stroke-linecap:square;stroke-width:0.8;"/>
     </g>
     <g id="line2d_10">
      <g>
       <use style="stroke:#000000;stroke-width:0.8;" x="48.613281" xlink:href="#m9d2cfbf48a" y="118.275361"/>
      </g>
     </g>
     <g id="text_6">
      <!-- 5 -->
      <g transform="translate(32.705781 123.594267)scale(0.14 -0.14)">
       <use xlink:href="#DejaVuSans-35"/>
      </g>
     </g>
    </g>
    <g id="ytick_3">
     <g id="line2d_11">
      <path clip-path="url(#p5776aaf1b6)" d="M 48.613281 57.352284 
L 221.413281 57.352284 
" style="fill:none;stroke:#cccccc;stroke-linecap:square;stroke-width:0.8;"/>
     </g>
     <g id="line2d_12">
      <g>
       <use style="stroke:#000000;stroke-width:0.8;" x="48.613281" xlink:href="#m9d2cfbf48a" y="57.352284"/>
      </g>
     </g>
     <g id="text_7">
      <!-- 10 -->
      <g transform="translate(23.798281 62.67119)scale(0.14 -0.14)">
       <use xlink:href="#DejaVuSans-31"/>
       <use x="63.623047" xlink:href="#DejaVuSans-30"/>
      </g>
     </g>
    </g>
    <g id="text_8">
     <!-- Clonotype size in CD8_Trm -->
     <g transform="translate(17.912031 153.226562)rotate(-90)scale(0.08 -0.08)">
      <defs>
       <path d="M 2631 2963 
Q 2534 3019 2420 3045 
Q 2306 3072 2169 3072 
Q 1681 3072 1420 2755 
Q 1159 2438 1159 1844 
L 1159 0 
L 581 0 
L 581 3500 
L 1159 3500 
L 1159 2956 
Q 1341 3275 1631 3429 
Q 1922 3584 2338 3584 
Q 2397 3584 2469 3576 
Q 2541 3569 2628 3553 
L 2631 2963 
z
" id="DejaVuSans-72" transform="scale(0.015625)"/>
       <path d="M 3328 2828 
Q 3544 3216 3844 3400 
Q 4144 3584 4550 3584 
Q 5097 3584 5394 3201 
Q 5691 2819 5691 2113 
L 5691 0 
L 5113 0 
L 5113 2094 
Q 5113 2597 4934 2840 
Q 4756 3084 4391 3084 
Q 3944 3084 3684 2787 
Q 3425 2491 3425 1978 
L 3425 0 
L 2847 0 
L 2847 2094 
Q 2847 2600 2669 2842 
Q 2491 3084 2119 3084 
Q 1678 3084 1418 2786 
Q 1159 2488 1159 1978 
L 1159 0 
L 581 0 
L 581 3500 
L 1159 3500 
L 1159 2956 
Q 1356 3278 1631 3431 
Q 1906 3584 2284 3584 
Q 2666 3584 2933 3390 
Q 3200 3197 3328 2828 
z
" id="DejaVuSans-6d" transform="scale(0.015625)"/>
      </defs>
      <use xlink:href="#DejaVuSans-43"/>
      <use x="69.824219" xlink:href="#DejaVuSans-6c"/>
      <use x="97.607422" xlink:href="#DejaVuSans-6f"/>
      <use x="158.789062" xlink:href="#DejaVuSans-6e"/>
      <use x="222.167969" xlink:href="#DejaVuSans-6f"/>
      <use x="283.349609" xlink:href="#DejaVuSans-74"/>
      <use x="322.558594" xlink:href="#DejaVuSans-79"/>
      <use x="381.738281" xlink:href="#DejaVuSans-70"/>
      <use x="445.214844" xlink:href="#DejaVuSans-65"/>
      <use x="506.738281" xlink:href="#DejaVuSans-20"/>
      <use x="538.525391" xlink:href="#DejaVuSans-73"/>
      <use x="590.625" xlink:href="#DejaVuSans-69"/>
      <use x="618.408203" xlink:href="#DejaVuSans-7a"/>
      <use x="670.898438" xlink:href="#DejaVuSans-65"/>
      <use x="732.421875" xlink:href="#DejaVuSans-20"/>
      <use x="764.208984" xlink:href="#DejaVuSans-69"/>
      <use x="791.992188" xlink:href="#DejaVuSans-6e"/>
      <use x="855.371094" xlink:href="#DejaVuSans-20"/>
      <use x="887.158203" xlink:href="#DejaVuSans-43"/>
      <use x="956.982422" xlink:href="#DejaVuSans-44"/>
      <use x="1033.984375" xlink:href="#DejaVuSans-38"/>
      <use x="1097.607422" xlink:href="#DejaVuSans-5f"/>
      <use x="1147.607422" xlink:href="#DejaVuSans-54"/>
      <use x="1193.941406" xlink:href="#DejaVuSans-72"/>
      <use x="1233.304688" xlink:href="#DejaVuSans-6d"/>
     </g>
    </g>
   </g>
   <g id="patch_3">
    <path d="M 48.613281 179.198438 
L 48.613281 20.798437 
" style="fill:none;stroke:#000000;stroke-linecap:square;stroke-linejoin:miter;stroke-width:0.8;"/>
   </g>
   <g id="patch_4">
    <path d="M 48.613281 179.198438 
L 221.413281 179.198438 
" style="fill:none;stroke:#000000;stroke-linecap:square;stroke-linejoin:miter;stroke-width:0.8;"/>
   </g>
   <g id="text_9">
    <!-- Repertoire overlap between CD8_Teff and CD8_Trm -->
    <g transform="translate(7.2 14.798437)scale(0.1 -0.1)">
     <defs>
      <path d="M 2841 2188 
Q 3044 2119 3236 1894 
Q 3428 1669 3622 1275 
L 4263 0 
L 3584 0 
L 2988 1197 
Q 2756 1666 2539 1819 
Q 2322 1972 1947 1972 
L 1259 1972 
L 1259 0 
L 628 0 
L 628 4666 
L 2053 4666 
Q 2853 4666 3247 4331 
Q 3641 3997 3641 3322 
Q 3641 2881 3436 2590 
Q 3231 2300 2841 2188 
z
M 1259 4147 
L 1259 2491 
L 2053 2491 
Q 2509 2491 2742 2702 
Q 2975 2913 2975 3322 
Q 2975 3731 2742 3939 
Q 2509 4147 2053 4147 
L 1259 4147 
z
" id="DejaVuSans-52" transform="scale(0.015625)"/>
      <path d="M 191 3500 
L 800 3500 
L 1894 563 
L 2988 3500 
L 3597 3500 
L 2284 0 
L 1503 0 
L 191 3500 
z
" id="DejaVuSans-76" transform="scale(0.015625)"/>
      <path d="M 2194 1759 
Q 1497 1759 1228 1600 
Q 959 1441 959 1056 
Q 959 750 1161 570 
Q 1363 391 1709 391 
Q 2188 391 2477 730 
Q 2766 1069 2766 1631 
L 2766 1759 
L 2194 1759 
z
M 3341 1997 
L 3341 0 
L 2766 0 
L 2766 531 
Q 2569 213 2275 61 
Q 1981 -91 1556 -91 
Q 1019 -91 701 211 
Q 384 513 384 1019 
Q 384 1609 779 1909 
Q 1175 2209 1959 2209 
L 2766 2209 
L 2766 2266 
Q 2766 2663 2505 2880 
Q 2244 3097 1772 3097 
Q 1472 3097 1187 3025 
Q 903 2953 641 2809 
L 641 3341 
Q 956 3463 1253 3523 
Q 1550 3584 1831 3584 
Q 2591 3584 2966 3190 
Q 3341 2797 3341 1997 
z
" id="DejaVuSans-61" transform="scale(0.015625)"/>
      <path d="M 3116 1747 
Q 3116 2381 2855 2742 
Q 2594 3103 2138 3103 
Q 1681 3103 1420 2742 
Q 1159 2381 1159 1747 
Q 1159 1113 1420 752 
Q 1681 391 2138 391 
Q 2594 391 2855 752 
Q 3116 1113 3116 1747 
z
M 1159 2969 
Q 1341 3281 1617 3432 
Q 1894 3584 2278 3584 
Q 2916 3584 3314 3078 
Q 3713 2572 3713 1747 
Q 3713 922 3314 415 
Q 2916 -91 2278 -91 
Q 1894 -91 1617 61 
Q 1341 213 1159 525 
L 1159 0 
L 581 0 
L 581 4863 
L 1159 4863 
L 1159 2969 
z
" id="DejaVuSans-62" transform="scale(0.015625)"/>
      <path d="M 269 3500 
L 844 3500 
L 1563 769 
L 2278 3500 
L 2956 3500 
L 3675 769 
L 4391 3500 
L 4966 3500 
L 4050 0 
L 3372 0 
L 2619 2869 
L 1863 0 
L 1184 0 
L 269 3500 
z
" id="DejaVuSans-77" transform="scale(0.015625)"/>
      <path d="M 2906 2969 
L 2906 4863 
L 3481 4863 
L 3481 0 
L 2906 0 
L 2906 525 
Q 2725 213 2448 61 
Q 2172 -91 1784 -91 
Q 1150 -91 751 415 
Q 353 922 353 1747 
Q 353 2572 751 3078 
Q 1150 3584 1784 3584 
Q 2172 3584 2448 3432 
Q 2725 3281 2906 2969 
z
M 947 1747 
Q 947 1113 1208 752 
Q 1469 391 1925 391 
Q 2381 391 2643 752 
Q 2906 1113 2906 1747 
Q 2906 2381 2643 2742 
Q 2381 3103 1925 3103 
Q 1469 3103 1208 2742 
Q 947 2381 947 1747 
z
" id="DejaVuSans-64" transform="scale(0.015625)"/>
     </defs>
     <use xlink:href="#DejaVuSans-52"/>
     <use x="64.982422" xlink:href="#DejaVuSans-65"/>
     <use x="126.505859" xlink:href="#DejaVuSans-70"/>
     <use x="189.982422" xlink:href="#DejaVuSans-65"/>
     <use x="251.505859" xlink:href="#DejaVuSans-72"/>
     <use x="292.619141" xlink:href="#DejaVuSans-74"/>
     <use x="331.828125" xlink:href="#DejaVuSans-6f"/>
     <use x="393.009766" xlink:href="#DejaVuSans-69"/>
     <use x="420.792969" xlink:href="#DejaVuSans-72"/>
     <use x="459.65625" xlink:href="#DejaVuSans-65"/>
     <use x="521.179688" xlink:href="#DejaVuSans-20"/>
     <use x="552.966797" xlink:href="#DejaVuSans-6f"/>
     <use x="614.148438" xlink:href="#DejaVuSans-76"/>
     <use x="673.328125" xlink:href="#DejaVuSans-65"/>
     <use x="734.851562" xlink:href="#DejaVuSans-72"/>
     <use x="775.964844" xlink:href="#DejaVuSans-6c"/>
     <use x="803.748047" xlink:href="#DejaVuSans-61"/>
     <use x="865.027344" xlink:href="#DejaVuSans-70"/>
     <use x="928.503906" xlink:href="#DejaVuSans-20"/>
     <use x="960.291016" xlink:href="#DejaVuSans-62"/>
     <use x="1023.767578" xlink:href="#DejaVuSans-65"/>
     <use x="1085.291016" xlink:href="#DejaVuSans-74"/>
     <use x="1124.5" xlink:href="#DejaVuSans-77"/>
     <use x="1206.287109" xlink:href="#DejaVuSans-65"/>
     <use x="1267.810547" xlink:href="#DejaVuSans-65"/>
     <use x="1329.333984" xlink:href="#DejaVuSans-6e"/>
     <use x="1392.712891" xlink:href="#DejaVuSans-20"/>
     <use x="1424.5" xlink:href="#DejaVuSans-43"/>
     <use x="1494.324219" xlink:href="#DejaVuSans-44"/>
     <use x="1571.326172" xlink:href="#DejaVuSans-38"/>
     <use x="1634.949219" xlink:href="#DejaVuSans-5f"/>
     <use x="1684.949219" xlink:href="#DejaVuSans-54"/>
     <use x="1729.033203" xlink:href="#DejaVuSans-65"/>
     <use x="1790.556641" xlink:href="#DejaVuSans-66"/>
     <use x="1825.761719" xlink:href="#DejaVuSans-66"/>
     <use x="1860.966797" xlink:href="#DejaVuSans-20"/>
     <use x="1892.753906" xlink:href="#DejaVuSans-61"/>
     <use x="1954.033203" xlink:href="#DejaVuSans-6e"/>
     <use x="2017.412109" xlink:href="#DejaVuSans-64"/>
     <use x="2080.888672" xlink:href="#DejaVuSans-20"/>
     <use x="2112.675781" xlink:href="#DejaVuSans-43"/>
     <use x="2182.5" xlink:href="#DejaVuSans-44"/>
     <use x="2259.501953" xlink:href="#DejaVuSans-38"/>
     <use x="2323.125" xlink:href="#DejaVuSans-5f"/>
     <use x="2373.125" xlink:href="#DejaVuSans-54"/>
     <use x="2419.458984" xlink:href="#DejaVuSans-72"/>
     <use x="2458.822266" xlink:href="#DejaVuSans-6d"/>
    </g>
   </g>
   <g id="legend_1"/>
  </g>
 </g>
 <defs>
  <clipPath id="p5776aaf1b6">
   <rect height="158.4" width="172.8" x="48.613281" y="20.798437"/>
  </clipPath>
 </defs>
</svg>
