<?xml version="1.0" encoding="utf-8" standalone="no"?>
<!DOCTYPE svg PUBLIC "-//W3C//DTD SVG 1.1//EN"
  "http://www.w3.org/Graphics/SVG/1.1/DTD/svg11.dtd">
<svg height="218.690313pt" version="1.1" viewBox="0 0 259.81 218.690313" width="259.81pt" xmlns="http://www.w3.org/2000/svg" xmlns:xlink="http://www.w3.org/1999/xlink">
 <metadata>
  <rdf:RDF xmlns:cc="http://creativecommons.org/ns#" xmlns:dc="http://purl.org/dc/elements/1.1/" xmlns:rdf="http://www.w3.org/1999/02/22-rdf-syntax-ns#">
   <cc:Work>
    <dc:type rdf:resource="http://purl.org/dc/dcmitype/StillImage"/>
    <dc:date>2021-04-28T09:28:26.510431</dc:date>
    <dc:format>image/svg+xml</dc:format>
    <dc:creator>
     <cc:Agent>
      <dc:title>Matplotlib v3.4.1, https://matplotlib.org/</dc:title>
     </cc:Agent>
    </dc:creator>
   </cc:Work>
  </rdf:RDF>
 </metadata>
 <defs>
  <style type="text/css">*{stroke-linecap:butt;stroke-linejoin:round;}</style>
 </defs>
 <g id="figure_1">
  <g id="patch_1">
   <path d="M 0 218.690313 
L 259.81 218.690313 
L 259.81 0 
L 0 0 
z
" style="fill:#ffffff;"/>
  </g>
  <g id="axes_1">
   <g id="patch_2">
    <path d="M 34.85 179.198438 
L 207.65 179.198438 
L 207.65 20.798438 
L 34.85 20.798438 
z
" style="fill:#ffffff;"/>
   </g>
   <g id="PathCollection_1">
    <path clip-path="url(#pb5c980c363)" d="M 34.85 177.800289 
C 39.146781 177.800289 43.268156 176.09316 46.306439 173.054877 
C 49.344722 170.016594 51.051852 165.895219 51.051852 161.598438 
C 51.051852 157.301656 49.344722 153.180281 46.306439 150.141998 
C 43.268156 147.103715 39.146781 145.396586 34.85 145.396586 
C 30.553219 145.396586 26.431844 147.103715 23.393561 150.141998 
C 20.355278 153.180281 18.648148 157.301656 18.648148 161.598438 
C 18.648148 165.895219 20.355278 170.016594 23.393561 173.054877 
C 26.431844 176.09316 30.553219 177.800289 34.85 177.800289 
z
" style="fill:#1f77b4;fill-opacity:0.3;stroke:#1f77b4;stroke-opacity:0.3;"/>
    <path clip-path="url(#pb5c980c363)" d="M 34.85 149.322446 
C 36.261944 149.322446 37.616248 148.761475 38.614643 147.76308 
C 39.613038 146.764685 40.174009 145.410381 40.174009 143.998438 
C 40.174009 142.586494 39.613038 141.23219 38.614643 140.233795 
C 37.616248 139.2354 36.261944 138.674429 34.85 138.674429 
C 33.438056 138.674429 32.083752 139.2354 31.085357 140.233795 
C 30.086962 141.23219 29.525991 142.586494 29.525991 143.998438 
C 29.525991 145.410381 30.086962 146.764685 31.085357 147.76308 
C 32.083752 148.761475 33.438056 149.322446 34.85 149.322446 
z
" style="fill:#1f77b4;fill-opacity:0.3;stroke:#1f77b4;stroke-opacity:0.3;"/>
    <path clip-path="url(#pb5c980c363)" d="M 34.85 130.174754 
C 35.851491 130.174754 36.812098 129.776857 37.520259 129.068696 
C 38.22842 128.360535 38.626316 127.399928 38.626316 126.398438 
C 38.626316 125.396947 38.22842 124.43634 37.520259 123.728179 
C 36.812098 123.020018 35.851491 122.622121 34.85 122.622121 
C 33.848509 122.622121 32.887902 123.020018 32.179741 123.728179 
C 31.47158 124.43634 31.073684 125.396947 31.073684 126.398438 
C 31.073684 127.399928 31.47158 128.360535 32.179741 129.068696 
C 32.887902 129.776857 33.848509 130.174754 34.85 130.174754 
z
" style="fill:#1f77b4;fill-opacity:0.3;stroke:#1f77b4;stroke-opacity:0.3;"/>
    <path clip-path="url(#pb5c980c363)" d="M 34.85 112.574754 
C 35.851491 112.574754 36.812098 112.176857 37.520259 111.468696 
C 38.22842 110.760535 38.626316 109.799928 38.626316 108.798438 
C 38.626316 107.796947 38.22842 106.83634 37.520259 106.128179 
C 36.812098 105.420018 35.851491 105.022121 34.85 105.022121 
C 33.848509 105.022121 32.887902 105.420018 32.179741 106.128179 
C 31.47158 106.83634 31.073684 107.796947 31.073684 108.798438 
C 31.073684 109.799928 31.47158 110.760535 32.179741 111.468696 
C 32.887902 112.176857 33.848509 112.574754 34.85 112.574754 
z
" style="fill:#1f77b4;fill-opacity:0.3;stroke:#1f77b4;stroke-opacity:0.3;"/>
    <path clip-path="url(#pb5c980c363)" d="M 34.85 94.733971 
C 35.787635 94.733971 36.686992 94.361445 37.35 93.698438 
C 38.013008 93.03543 38.385534 92.136072 38.385534 91.198438 
C 38.385534 90.260803 38.013008 89.361445 37.35 88.698438 
C 36.686992 88.03543 35.787635 87.662904 34.85 87.662904 
C 33.912365 87.662904 33.013008 88.03543 32.35 88.698438 
C 31.686992 89.361445 31.314466 90.260803 31.314466 91.198438 
C 31.314466 92.136072 31.686992 93.03543 32.35 93.698438 
C 33.013008 94.361445 33.912365 94.733971 34.85 94.733971 
z
" style="fill:#1f77b4;fill-opacity:0.3;stroke:#1f77b4;stroke-opacity:0.3;"/>
    <path clip-path="url(#pb5c980c363)" d="M 54.05 192.340403 
C 57.53529 192.340403 60.878301 190.955683 63.342773 188.491211 
C 65.807245 186.026738 67.191966 182.683728 67.191966 179.198438 
C 67.191966 175.713147 65.807245 172.370137 63.342773 169.905664 
C 60.878301 167.441192 57.53529 166.056472 54.05 166.056472 
C 50.56471 166.056472 47.221699 167.441192 44.757227 169.905664 
C 42.292755 172.370137 40.908034 175.713147 40.908034 179.198438 
C 40.908034 182.683728 42.292755 186.026738 44.757227 188.491211 
C 47.221699 190.955683 50.56471 192.340403 54.05 192.340403 
z
" style="fill:#1f77b4;fill-opacity:0.3;stroke:#1f77b4;stroke-opacity:0.3;"/>
    <path clip-path="url(#pb5c980c363)" d="M 54.05 165.133971 
C 54.987635 165.133971 55.886992 164.761445 56.55 164.098438 
C 57.213008 163.43543 57.585534 162.536072 57.585534 161.598438 
C 57.585534 160.660803 57.213008 159.761445 56.55 159.098438 
C 55.886992 158.43543 54.987635 158.062904 54.05 158.062904 
C 53.112365 158.062904 52.213008 158.43543 51.55 159.098438 
C 50.886992 159.761445 50.514466 160.660803 50.514466 161.598438 
C 50.514466 162.536072 50.886992 163.43543 51.55 164.098438 
C 52.213008 164.761445 53.112365 165.133971 54.05 165.133971 
z
" style="fill:#1f77b4;fill-opacity:0.3;stroke:#1f77b4;stroke-opacity:0.3;"/>
    <path clip-path="url(#pb5c980c363)" d="M 54.05 129.933971 
C 54.987635 129.933971 55.886992 129.561445 56.55 128.898438 
C 57.213008 128.23543 57.585534 127.336072 57.585534 126.398438 
C 57.585534 125.460803 57.213008 124.561445 56.55 123.898438 
C 55.886992 123.23543 54.987635 122.862904 54.05 122.862904 
C 53.112365 122.862904 52.213008 123.23543 51.55 123.898438 
C 50.886992 124.561445 50.514466 125.460803 50.514466 126.398438 
C 50.514466 127.336072 50.886992 128.23543 51.55 128.898438 
C 52.213008 129.561445 53.112365 129.933971 54.05 129.933971 
z
" style="fill:#1f77b4;fill-opacity:0.3;stroke:#1f77b4;stroke-opacity:0.3;"/>
    <path clip-path="url(#pb5c980c363)" d="M 54.05 112.333971 
C 54.987635 112.333971 55.886992 111.961445 56.55 111.298438 
C 57.213008 110.63543 57.585534 109.736072 57.585534 108.798438 
C 57.585534 107.860803 57.213008 106.961445 56.55 106.298438 
C 55.886992 105.63543 54.987635 105.262904 54.05 105.262904 
C 53.112365 105.262904 52.213008 105.63543 51.55 106.298438 
C 50.886992 106.961445 50.514466 107.860803 50.514466 108.798438 
C 50.514466 109.736072 50.886992 110.63543 51.55 111.298438 
C 52.213008 111.961445 53.112365 112.333971 54.05 112.333971 
z
" style="fill:#1f77b4;fill-opacity:0.3;stroke:#1f77b4;stroke-opacity:0.3;"/>
    <path clip-path="url(#pb5c980c363)" d="M 73.25 184.000872 
C 74.523621 184.000872 75.745248 183.494857 76.645834 182.594272 
C 77.54642 181.693686 78.052435 180.472058 78.052435 179.198438 
C 78.052435 177.924817 77.54642 176.703189 76.645834 175.802603 
C 75.745248 174.902018 74.523621 174.396003 73.25 174.396003 
C 71.976379 174.396003 70.754752 174.902018 69.854166 175.802603 
C 68.95358 176.703189 68.447565 177.924817 68.447565 179.198438 
C 68.447565 180.472058 68.95358 181.693686 69.854166 182.594272 
C 70.754752 183.494857 71.976379 184.000872 73.25 184.000872 
z
" style="fill:#1f77b4;fill-opacity:0.3;stroke:#1f77b4;stroke-opacity:0.3;"/>
    <path clip-path="url(#pb5c980c363)" d="M 73.25 147.533971 
C 74.187635 147.533971 75.086992 147.161445 75.75 146.498438 
C 76.413008 145.83543 76.785534 144.936072 76.785534 143.998438 
C 76.785534 143.060803 76.413008 142.161445 75.75 141.498438 
C 75.086992 140.83543 74.187635 140.462904 73.25 140.462904 
C 72.312365 140.462904 71.413008 140.83543 70.75 141.498438 
C 70.086992 142.161445 69.714466 143.060803 69.714466 143.998438 
C 69.714466 144.936072 70.086992 145.83543 70.75 146.498438 
C 71.413008 147.161445 72.312365 147.533971 73.25 147.533971 
z
" style="fill:#1f77b4;fill-opacity:0.3;stroke:#1f77b4;stroke-opacity:0.3;"/>
    <path clip-path="url(#pb5c980c363)" d="M 73.25 129.933971 
C 74.187635 129.933971 75.086992 129.561445 75.75 128.898438 
C 76.413008 128.23543 76.785534 127.336072 76.785534 126.398438 
C 76.785534 125.460803 76.413008 124.561445 75.75 123.898438 
C 75.086992 123.23543 74.187635 122.862904 73.25 122.862904 
C 72.312365 122.862904 71.413008 123.23543 70.75 123.898438 
C 70.086992 124.561445 69.714466 125.460803 69.714466 126.398438 
C 69.714466 127.336072 70.086992 128.23543 70.75 128.898438 
C 71.413008 129.561445 72.312365 129.933971 73.25 129.933971 
z
" style="fill:#1f77b4;fill-opacity:0.3;stroke:#1f77b4;stroke-opacity:0.3;"/>
    <path clip-path="url(#pb5c980c363)" d="M 92.45 182.733971 
C 93.387635 182.733971 94.286992 182.361445 94.95 181.698438 
C 95.613008 181.03543 95.985534 180.136072 95.985534 179.198438 
C 95.985534 178.260803 95.613008 177.361445 94.95 176.698438 
C 94.286992 176.03543 93.387635 175.662904 92.45 175.662904 
C 91.512365 175.662904 90.613008 176.03543 89.95 176.698438 
C 89.286992 177.361445 88.914466 178.260803 88.914466 179.198438 
C 88.914466 180.136072 89.286992 181.03543 89.95 181.698438 
C 90.613008 182.361445 91.512365 182.733971 92.45 182.733971 
z
" style="fill:#1f77b4;fill-opacity:0.3;stroke:#1f77b4;stroke-opacity:0.3;"/>
    <path clip-path="url(#pb5c980c363)" d="M 92.45 165.133971 
C 93.387635 165.133971 94.286992 164.761445 94.95 164.098438 
C 95.613008 163.43543 95.985534 162.536072 95.985534 161.598438 
C 95.985534 160.660803 95.613008 159.761445 94.95 159.098438 
C 94.286992 158.43543 93.387635 158.062904 92.45 158.062904 
C 91.512365 158.062904 90.613008 158.43543 89.95 159.098438 
C 89.286992 159.761445 88.914466 160.660803 88.914466 161.598438 
C 88.914466 162.536072 89.286992 163.43543 89.95 164.098438 
C 90.613008 164.761445 91.512365 165.133971 92.45 165.133971 
z
" style="fill:#1f77b4;fill-opacity:0.3;stroke:#1f77b4;stroke-opacity:0.3;"/>
    <path clip-path="url(#pb5c980c363)" d="M 111.65 182.733971 
C 112.587635 182.733971 113.486992 182.361445 114.15 181.698438 
C 114.813008 181.03543 115.185534 180.136072 115.185534 179.198438 
C 115.185534 178.260803 114.813008 177.361445 114.15 176.698438 
C 113.486992 176.03543 112.587635 175.662904 111.65 175.662904 
C 110.712365 175.662904 109.813008 176.03543 109.15 176.698438 
C 108.486992 177.361445 108.114466 178.260803 108.114466 179.198438 
C 108.114466 180.136072 108.486992 181.03543 109.15 181.698438 
C 109.813008 182.361445 110.712365 182.733971 111.65 182.733971 
z
" style="fill:#1f77b4;fill-opacity:0.3;stroke:#1f77b4;stroke-opacity:0.3;"/>
    <path clip-path="url(#pb5c980c363)" d="M 111.65 129.933971 
C 112.587635 129.933971 113.486992 129.561445 114.15 128.898438 
C 114.813008 128.23543 115.185534 127.336072 115.185534 126.398438 
C 115.185534 125.460803 114.813008 124.561445 114.15 123.898438 
C 113.486992 123.23543 112.587635 122.862904 111.65 122.862904 
C 110.712365 122.862904 109.813008 123.23543 109.15 123.898438 
C 108.486992 124.561445 108.114466 125.460803 108.114466 126.398438 
C 108.114466 127.336072 108.486992 128.23543 109.15 128.898438 
C 109.813008 129.561445 110.712365 129.933971 111.65 129.933971 
z
" style="fill:#1f77b4;fill-opacity:0.3;stroke:#1f77b4;stroke-opacity:0.3;"/>
    <path clip-path="url(#pb5c980c363)" d="M 150.05 165.133971 
C 150.987635 165.133971 151.886992 164.761445 152.55 164.098438 
C 153.213008 163.43543 153.585534 162.536072 153.585534 161.598438 
C 153.585534 160.660803 153.213008 159.761445 152.55 159.098438 
C 151.886992 158.43543 150.987635 158.062904 150.05 158.062904 
C 149.112365 158.062904 148.213008 158.43543 147.55 159.098438 
C 146.886992 159.761445 146.514466 160.660803 146.514466 161.598438 
C 146.514466 162.536072 146.886992 163.43543 147.55 164.098438 
C 148.213008 164.761445 149.112365 165.133971 150.05 165.133971 
z
" style="fill:#1f77b4;fill-opacity:0.3;stroke:#1f77b4;stroke-opacity:0.3;"/>
    <path clip-path="url(#pb5c980c363)" d="M 169.25 129.933971 
C 170.187635 129.933971 171.086992 129.561445 171.75 128.898438 
C 172.413008 128.23543 172.785534 127.336072 172.785534 126.398438 
C 172.785534 125.460803 172.413008 124.561445 171.75 123.898438 
C 171.086992 123.23543 170.187635 122.862904 169.25 122.862904 
C 168.312365 122.862904 167.413008 123.23543 166.75 123.898438 
C 166.086992 124.561445 165.714466 125.460803 165.714466 126.398438 
C 165.714466 127.336072 166.086992 128.23543 166.75 128.898438 
C 167.413008 129.561445 168.312365 129.933971 169.25 129.933971 
z
" style="fill:#1f77b4;fill-opacity:0.3;stroke:#1f77b4;stroke-opacity:0.3;"/>
    <path clip-path="url(#pb5c980c363)" d="M 188.45 182.733971 
C 189.387635 182.733971 190.286992 182.361445 190.95 181.698438 
C 191.613008 181.03543 191.985534 180.136072 191.985534 179.198438 
C 191.985534 178.260803 191.613008 177.361445 190.95 176.698438 
C 190.286992 176.03543 189.387635 175.662904 188.45 175.662904 
C 187.512365 175.662904 186.613008 176.03543 185.95 176.698438 
C 185.286992 177.361445 184.914466 178.260803 184.914466 179.198438 
C 184.914466 180.136072 185.286992 181.03543 185.95 181.698438 
C 186.613008 182.361445 187.512365 182.733971 188.45 182.733971 
z
" style="fill:#1f77b4;fill-opacity:0.3;stroke:#1f77b4;stroke-opacity:0.3;"/>
   </g>
   <g id="matplotlib.axis_1">
    <g id="xtick_1">
     <g id="line2d_1">
      <path clip-path="url(#pb5c980c363)" d="M 34.85 179.198438 
L 34.85 20.798438 
" style="fill:none;stroke:#cccccc;stroke-linecap:square;stroke-width:0.8;"/>
     </g>
     <g id="line2d_2">
      <defs>
       <path d="M 0 0 
L 0 3.5 
" id="me49d8de856" style="stroke:#000000;stroke-width:0.8;"/>
      </defs>
      <g>
       <use style="stroke:#000000;stroke-width:0.8;" x="34.85" xlink:href="#me49d8de856" y="179.198438"/>
      </g>
     </g>
     <g id="text_1">
      <!-- 0.0 -->
      <g transform="translate(23.717813 196.83625)scale(0.14 -0.14)">
       <defs>
        <path d="M 2034 4250 
Q 1547 4250 1301 3770 
Q 1056 3291 1056 2328 
Q 1056 1369 1301 889 
Q 1547 409 2034 409 
Q 2525 409 2770 889 
Q 3016 1369 3016 2328 
Q 3016 3291 2770 3770 
Q 2525 4250 2034 4250 
z
M 2034 4750 
Q 2819 4750 3233 4129 
Q 3647 3509 3647 2328 
Q 3647 1150 3233 529 
Q 2819 -91 2034 -91 
Q 1250 -91 836 529 
Q 422 1150 422 2328 
Q 422 3509 836 4129 
Q 1250 4750 2034 4750 
z
" id="DejaVuSans-30" transform="scale(0.015625)"/>
        <path d="M 684 794 
L 1344 794 
L 1344 0 
L 684 0 
L 684 794 
z
" id="DejaVuSans-2e" transform="scale(0.015625)"/>
       </defs>
       <use xlink:href="#DejaVuSans-30"/>
       <use x="63.623047" xlink:href="#DejaVuSans-2e"/>
       <use x="95.410156" xlink:href="#DejaVuSans-30"/>
      </g>
     </g>
    </g>
    <g id="xtick_2">
     <g id="line2d_3">
      <path clip-path="url(#pb5c980c363)" d="M 82.85 179.198438 
L 82.85 20.798438 
" style="fill:none;stroke:#cccccc;stroke-linecap:square;stroke-width:0.8;"/>
     </g>
     <g id="line2d_4">
      <g>
       <use style="stroke:#000000;stroke-width:0.8;" x="82.85" xlink:href="#me49d8de856" y="179.198438"/>
      </g>
     </g>
     <g id="text_2">
      <!-- 2.5 -->
      <g transform="translate(71.717812 196.83625)scale(0.14 -0.14)">
       <defs>
        <path d="M 1228 531 
L 3431 531 
L 3431 0 
L 469 0 
L 469 531 
Q 828 903 1448 1529 
Q 2069 2156 2228 2338 
Q 2531 2678 2651 2914 
Q 2772 3150 2772 3378 
Q 2772 3750 2511 3984 
Q 2250 4219 1831 4219 
Q 1534 4219 1204 4116 
Q 875 4013 500 3803 
L 500 4441 
Q 881 4594 1212 4672 
Q 1544 4750 1819 4750 
Q 2544 4750 2975 4387 
Q 3406 4025 3406 3419 
Q 3406 3131 3298 2873 
Q 3191 2616 2906 2266 
Q 2828 2175 2409 1742 
Q 1991 1309 1228 531 
z
" id="DejaVuSans-32" transform="scale(0.015625)"/>
        <path d="M 691 4666 
L 3169 4666 
L 3169 4134 
L 1269 4134 
L 1269 2991 
Q 1406 3038 1543 3061 
Q 1681 3084 1819 3084 
Q 2600 3084 3056 2656 
Q 3513 2228 3513 1497 
Q 3513 744 3044 326 
Q 2575 -91 1722 -91 
Q 1428 -91 1123 -41 
Q 819 9 494 109 
L 494 744 
Q 775 591 1075 516 
Q 1375 441 1709 441 
Q 2250 441 2565 725 
Q 2881 1009 2881 1497 
Q 2881 1984 2565 2268 
Q 2250 2553 1709 2553 
Q 1456 2553 1204 2497 
Q 953 2441 691 2322 
L 691 4666 
z
" id="DejaVuSans-35" transform="scale(0.015625)"/>
       </defs>
       <use xlink:href="#DejaVuSans-32"/>
       <use x="63.623047" xlink:href="#DejaVuSans-2e"/>
       <use x="95.410156" xlink:href="#DejaVuSans-35"/>
      </g>
     </g>
    </g>
    <g id="xtick_3">
     <g id="line2d_5">
      <path clip-path="url(#pb5c980c363)" d="M 130.85 179.198438 
L 130.85 20.798438 
" style="fill:none;stroke:#cccccc;stroke-linecap:square;stroke-width:0.8;"/>
     </g>
     <g id="line2d_6">
      <g>
       <use style="stroke:#000000;stroke-width:0.8;" x="130.85" xlink:href="#me49d8de856" y="179.198438"/>
      </g>
     </g>
     <g id="text_3">
      <!-- 5.0 -->
      <g transform="translate(119.717812 196.83625)scale(0.14 -0.14)">
       <use xlink:href="#DejaVuSans-35"/>
       <use x="63.623047" xlink:href="#DejaVuSans-2e"/>
       <use x="95.410156" xlink:href="#DejaVuSans-30"/>
      </g>
     </g>
    </g>
    <g id="xtick_4">
     <g id="line2d_7">
      <path clip-path="url(#pb5c980c363)" d="M 178.85 179.198438 
L 178.85 20.798438 
" style="fill:none;stroke:#cccccc;stroke-linecap:square;stroke-width:0.8;"/>
     </g>
     <g id="line2d_8">
      <g>
       <use style="stroke:#000000;stroke-width:0.8;" x="178.85" xlink:href="#me49d8de856" y="179.198438"/>
      </g>
     </g>
     <g id="text_4">
      <!-- 7.5 -->
      <g transform="translate(167.717812 196.83625)scale(0.14 -0.14)">
       <defs>
        <path d="M 525 4666 
L 3525 4666 
L 3525 4397 
L 1831 0 
L 1172 0 
L 2766 4134 
L 525 4134 
L 525 4666 
z
" id="DejaVuSans-37" transform="scale(0.015625)"/>
       </defs>
       <use xlink:href="#DejaVuSans-37"/>
       <use x="63.623047" xlink:href="#DejaVuSans-2e"/>
       <use x="95.410156" xlink:href="#DejaVuSans-35"/>
      </g>
     </g>
    </g>
    <g id="text_5">
     <!-- Clonotype size in LN2 -->
     <g transform="translate(77.9975 209.826563)scale(0.08 -0.08)">
      <defs>
       <path d="M 4122 4306 
L 4122 3641 
Q 3803 3938 3442 4084 
Q 3081 4231 2675 4231 
Q 1875 4231 1450 3742 
Q 1025 3253 1025 2328 
Q 1025 1406 1450 917 
Q 1875 428 2675 428 
Q 3081 428 3442 575 
Q 3803 722 4122 1019 
L 4122 359 
Q 3791 134 3420 21 
Q 3050 -91 2638 -91 
Q 1578 -91 968 557 
Q 359 1206 359 2328 
Q 359 3453 968 4101 
Q 1578 4750 2638 4750 
Q 3056 4750 3426 4639 
Q 3797 4528 4122 4306 
z
" id="DejaVuSans-43" transform="scale(0.015625)"/>
       <path d="M 603 4863 
L 1178 4863 
L 1178 0 
L 603 0 
L 603 4863 
z
" id="DejaVuSans-6c" transform="scale(0.015625)"/>
       <path d="M 1959 3097 
Q 1497 3097 1228 2736 
Q 959 2375 959 1747 
Q 959 1119 1226 758 
Q 1494 397 1959 397 
Q 2419 397 2687 759 
Q 2956 1122 2956 1747 
Q 2956 2369 2687 2733 
Q 2419 3097 1959 3097 
z
M 1959 3584 
Q 2709 3584 3137 3096 
Q 3566 2609 3566 1747 
Q 3566 888 3137 398 
Q 2709 -91 1959 -91 
Q 1206 -91 779 398 
Q 353 888 353 1747 
Q 353 2609 779 3096 
Q 1206 3584 1959 3584 
z
" id="DejaVuSans-6f" transform="scale(0.015625)"/>
       <path d="M 3513 2113 
L 3513 0 
L 2938 0 
L 2938 2094 
Q 2938 2591 2744 2837 
Q 2550 3084 2163 3084 
Q 1697 3084 1428 2787 
Q 1159 2491 1159 1978 
L 1159 0 
L 581 0 
L 581 3500 
L 1159 3500 
L 1159 2956 
Q 1366 3272 1645 3428 
Q 1925 3584 2291 3584 
Q 2894 3584 3203 3211 
Q 3513 2838 3513 2113 
z
" id="DejaVuSans-6e" transform="scale(0.015625)"/>
       <path d="M 1172 4494 
L 1172 3500 
L 2356 3500 
L 2356 3053 
L 1172 3053 
L 1172 1153 
Q 1172 725 1289 603 
Q 1406 481 1766 481 
L 2356 481 
L 2356 0 
L 1766 0 
Q 1100 0 847 248 
Q 594 497 594 1153 
L 594 3053 
L 172 3053 
L 172 3500 
L 594 3500 
L 594 4494 
L 1172 4494 
z
" id="DejaVuSans-74" transform="scale(0.015625)"/>
       <path d="M 2059 -325 
Q 1816 -950 1584 -1140 
Q 1353 -1331 966 -1331 
L 506 -1331 
L 506 -850 
L 844 -850 
Q 1081 -850 1212 -737 
Q 1344 -625 1503 -206 
L 1606 56 
L 191 3500 
L 800 3500 
L 1894 763 
L 2988 3500 
L 3597 3500 
L 2059 -325 
z
" id="DejaVuSans-79" transform="scale(0.015625)"/>
       <path d="M 1159 525 
L 1159 -1331 
L 581 -1331 
L 581 3500 
L 1159 3500 
L 1159 2969 
Q 1341 3281 1617 3432 
Q 1894 3584 2278 3584 
Q 2916 3584 3314 3078 
Q 3713 2572 3713 1747 
Q 3713 922 3314 415 
Q 2916 -91 2278 -91 
Q 1894 -91 1617 61 
Q 1341 213 1159 525 
z
M 3116 1747 
Q 3116 2381 2855 2742 
Q 2594 3103 2138 3103 
Q 1681 3103 1420 2742 
Q 1159 2381 1159 1747 
Q 1159 1113 1420 752 
Q 1681 391 2138 391 
Q 2594 391 2855 752 
Q 3116 1113 3116 1747 
z
" id="DejaVuSans-70" transform="scale(0.015625)"/>
       <path d="M 3597 1894 
L 3597 1613 
L 953 1613 
Q 991 1019 1311 708 
Q 1631 397 2203 397 
Q 2534 397 2845 478 
Q 3156 559 3463 722 
L 3463 178 
Q 3153 47 2828 -22 
Q 2503 -91 2169 -91 
Q 1331 -91 842 396 
Q 353 884 353 1716 
Q 353 2575 817 3079 
Q 1281 3584 2069 3584 
Q 2775 3584 3186 3129 
Q 3597 2675 3597 1894 
z
M 3022 2063 
Q 3016 2534 2758 2815 
Q 2500 3097 2075 3097 
Q 1594 3097 1305 2825 
Q 1016 2553 972 2059 
L 3022 2063 
z
" id="DejaVuSans-65" transform="scale(0.015625)"/>
       <path id="DejaVuSans-20" transform="scale(0.015625)"/>
       <path d="M 2834 3397 
L 2834 2853 
Q 2591 2978 2328 3040 
Q 2066 3103 1784 3103 
Q 1356 3103 1142 2972 
Q 928 2841 928 2578 
Q 928 2378 1081 2264 
Q 1234 2150 1697 2047 
L 1894 2003 
Q 2506 1872 2764 1633 
Q 3022 1394 3022 966 
Q 3022 478 2636 193 
Q 2250 -91 1575 -91 
Q 1294 -91 989 -36 
Q 684 19 347 128 
L 347 722 
Q 666 556 975 473 
Q 1284 391 1588 391 
Q 1994 391 2212 530 
Q 2431 669 2431 922 
Q 2431 1156 2273 1281 
Q 2116 1406 1581 1522 
L 1381 1569 
Q 847 1681 609 1914 
Q 372 2147 372 2553 
Q 372 3047 722 3315 
Q 1072 3584 1716 3584 
Q 2034 3584 2315 3537 
Q 2597 3491 2834 3397 
z
" id="DejaVuSans-73" transform="scale(0.015625)"/>
       <path d="M 603 3500 
L 1178 3500 
L 1178 0 
L 603 0 
L 603 3500 
z
M 603 4863 
L 1178 4863 
L 1178 4134 
L 603 4134 
L 603 4863 
z
" id="DejaVuSans-69" transform="scale(0.015625)"/>
       <path d="M 353 3500 
L 3084 3500 
L 3084 2975 
L 922 459 
L 3084 459 
L 3084 0 
L 275 0 
L 275 525 
L 2438 3041 
L 353 3041 
L 353 3500 
z
" id="DejaVuSans-7a" transform="scale(0.015625)"/>
       <path d="M 628 4666 
L 1259 4666 
L 1259 531 
L 3531 531 
L 3531 0 
L 628 0 
L 628 4666 
z
" id="DejaVuSans-4c" transform="scale(0.015625)"/>
       <path d="M 628 4666 
L 1478 4666 
L 3547 763 
L 3547 4666 
L 4159 4666 
L 4159 0 
L 3309 0 
L 1241 3903 
L 1241 0 
L 628 0 
L 628 4666 
z
" id="DejaVuSans-4e" transform="scale(0.015625)"/>
      </defs>
      <use xlink:href="#DejaVuSans-43"/>
      <use x="69.824219" xlink:href="#DejaVuSans-6c"/>
      <use x="97.607422" xlink:href="#DejaVuSans-6f"/>
      <use x="158.789062" xlink:href="#DejaVuSans-6e"/>
      <use x="222.167969" xlink:href="#DejaVuSans-6f"/>
      <use x="283.349609" xlink:href="#DejaVuSans-74"/>
      <use x="322.558594" xlink:href="#DejaVuSans-79"/>
      <use x="381.738281" xlink:href="#DejaVuSans-70"/>
      <use x="445.214844" xlink:href="#DejaVuSans-65"/>
      <use x="506.738281" xlink:href="#DejaVuSans-20"/>
      <use x="538.525391" xlink:href="#DejaVuSans-73"/>
      <use x="590.625" xlink:href="#DejaVuSans-69"/>
      <use x="618.408203" xlink:href="#DejaVuSans-7a"/>
      <use x="670.898438" xlink:href="#DejaVuSans-65"/>
      <use x="732.421875" xlink:href="#DejaVuSans-20"/>
      <use x="764.208984" xlink:href="#DejaVuSans-69"/>
      <use x="791.992188" xlink:href="#DejaVuSans-6e"/>
      <use x="855.371094" xlink:href="#DejaVuSans-20"/>
      <use x="887.158203" xlink:href="#DejaVuSans-4c"/>
      <use x="942.871094" xlink:href="#DejaVuSans-4e"/>
      <use x="1017.675781" xlink:href="#DejaVuSans-32"/>
     </g>
    </g>
   </g>
   <g id="matplotlib.axis_2">
    <g id="ytick_1">
     <g id="line2d_9">
      <path clip-path="url(#pb5c980c363)" d="M 34.85 179.198438 
L 207.65 179.198438 
" style="fill:none;stroke:#cccccc;stroke-linecap:square;stroke-width:0.8;"/>
     </g>
     <g id="line2d_10">
      <defs>
       <path d="M 0 0 
L -3.5 0 
" id="m88c847b264" style="stroke:#000000;stroke-width:0.8;"/>
      </defs>
      <g>
       <use style="stroke:#000000;stroke-width:0.8;" x="34.85" xlink:href="#m88c847b264" y="179.198438"/>
      </g>
     </g>
     <g id="text_6">
      <!-- 0 -->
      <g transform="translate(18.9425 184.517344)scale(0.14 -0.14)">
       <use xlink:href="#DejaVuSans-30"/>
      </g>
     </g>
    </g>
    <g id="ytick_2">
     <g id="line2d_11">
      <path clip-path="url(#pb5c980c363)" d="M 34.85 143.998438 
L 207.65 143.998438 
" style="fill:none;stroke:#cccccc;stroke-linecap:square;stroke-width:0.8;"/>
     </g>
     <g id="line2d_12">
      <g>
       <use style="stroke:#000000;stroke-width:0.8;" x="34.85" xlink:href="#m88c847b264" y="143.998438"/>
      </g>
     </g>
     <g id="text_7">
      <!-- 2 -->
      <g transform="translate(18.9425 149.317344)scale(0.14 -0.14)">
       <use xlink:href="#DejaVuSans-32"/>
      </g>
     </g>
    </g>
    <g id="ytick_3">
     <g id="line2d_13">
      <path clip-path="url(#pb5c980c363)" d="M 34.85 108.798438 
L 207.65 108.798438 
" style="fill:none;stroke:#cccccc;stroke-linecap:square;stroke-width:0.8;"/>
     </g>
     <g id="line2d_14">
      <g>
       <use style="stroke:#000000;stroke-width:0.8;" x="34.85" xlink:href="#m88c847b264" y="108.798438"/>
      </g>
     </g>
     <g id="text_8">
      <!-- 4 -->
      <g transform="translate(18.9425 114.117344)scale(0.14 -0.14)">
       <defs>
        <path d="M 2419 4116 
L 825 1625 
L 2419 1625 
L 2419 4116 
z
M 2253 4666 
L 3047 4666 
L 3047 1625 
L 3713 1625 
L 3713 1100 
L 3047 1100 
L 3047 0 
L 2419 0 
L 2419 1100 
L 313 1100 
L 313 1709 
L 2253 4666 
z
" id="DejaVuSans-34" transform="scale(0.015625)"/>
       </defs>
       <use xlink:href="#DejaVuSans-34"/>
      </g>
     </g>
    </g>
    <g id="ytick_4">
     <g id="line2d_15">
      <path clip-path="url(#pb5c980c363)" d="M 34.85 73.598438 
L 207.65 73.598438 
" style="fill:none;stroke:#cccccc;stroke-linecap:square;stroke-width:0.8;"/>
     </g>
     <g id="line2d_16">
      <g>
       <use style="stroke:#000000;stroke-width:0.8;" x="34.85" xlink:href="#m88c847b264" y="73.598438"/>
      </g>
     </g>
     <g id="text_9">
      <!-- 6 -->
      <g transform="translate(18.9425 78.917344)scale(0.14 -0.14)">
       <defs>
        <path d="M 2113 2584 
Q 1688 2584 1439 2293 
Q 1191 2003 1191 1497 
Q 1191 994 1439 701 
Q 1688 409 2113 409 
Q 2538 409 2786 701 
Q 3034 994 3034 1497 
Q 3034 2003 2786 2293 
Q 2538 2584 2113 2584 
z
M 3366 4563 
L 3366 3988 
Q 3128 4100 2886 4159 
Q 2644 4219 2406 4219 
Q 1781 4219 1451 3797 
Q 1122 3375 1075 2522 
Q 1259 2794 1537 2939 
Q 1816 3084 2150 3084 
Q 2853 3084 3261 2657 
Q 3669 2231 3669 1497 
Q 3669 778 3244 343 
Q 2819 -91 2113 -91 
Q 1303 -91 875 529 
Q 447 1150 447 2328 
Q 447 3434 972 4092 
Q 1497 4750 2381 4750 
Q 2619 4750 2861 4703 
Q 3103 4656 3366 4563 
z
" id="DejaVuSans-36" transform="scale(0.015625)"/>
       </defs>
       <use xlink:href="#DejaVuSans-36"/>
      </g>
     </g>
    </g>
    <g id="ytick_5">
     <g id="line2d_17">
      <path clip-path="url(#pb5c980c363)" d="M 34.85 38.398438 
L 207.65 38.398438 
" style="fill:none;stroke:#cccccc;stroke-linecap:square;stroke-width:0.8;"/>
     </g>
     <g id="line2d_18">
      <g>
       <use style="stroke:#000000;stroke-width:0.8;" x="34.85" xlink:href="#m88c847b264" y="38.398438"/>
      </g>
     </g>
     <g id="text_10">
      <!-- 8 -->
      <g transform="translate(18.9425 43.717344)scale(0.14 -0.14)">
       <defs>
        <path d="M 2034 2216 
Q 1584 2216 1326 1975 
Q 1069 1734 1069 1313 
Q 1069 891 1326 650 
Q 1584 409 2034 409 
Q 2484 409 2743 651 
Q 3003 894 3003 1313 
Q 3003 1734 2745 1975 
Q 2488 2216 2034 2216 
z
M 1403 2484 
Q 997 2584 770 2862 
Q 544 3141 544 3541 
Q 544 4100 942 4425 
Q 1341 4750 2034 4750 
Q 2731 4750 3128 4425 
Q 3525 4100 3525 3541 
Q 3525 3141 3298 2862 
Q 3072 2584 2669 2484 
Q 3125 2378 3379 2068 
Q 3634 1759 3634 1313 
Q 3634 634 3220 271 
Q 2806 -91 2034 -91 
Q 1263 -91 848 271 
Q 434 634 434 1313 
Q 434 1759 690 2068 
Q 947 2378 1403 2484 
z
M 1172 3481 
Q 1172 3119 1398 2916 
Q 1625 2713 2034 2713 
Q 2441 2713 2670 2916 
Q 2900 3119 2900 3481 
Q 2900 3844 2670 4047 
Q 2441 4250 2034 4250 
Q 1625 4250 1398 4047 
Q 1172 3844 1172 3481 
z
" id="DejaVuSans-38" transform="scale(0.015625)"/>
       </defs>
       <use xlink:href="#DejaVuSans-38"/>
      </g>
     </g>
    </g>
    <g id="text_11">
     <!-- Clonotype size in LT2 -->
     <g transform="translate(13.27875 142.151563)rotate(-90)scale(0.08 -0.08)">
      <defs>
       <path d="M -19 4666 
L 3928 4666 
L 3928 4134 
L 2272 4134 
L 2272 0 
L 1638 0 
L 1638 4134 
L -19 4134 
L -19 4666 
z
" id="DejaVuSans-54" transform="scale(0.015625)"/>
      </defs>
      <use xlink:href="#DejaVuSans-43"/>
      <use x="69.824219" xlink:href="#DejaVuSans-6c"/>
      <use x="97.607422" xlink:href="#DejaVuSans-6f"/>
      <use x="158.789062" xlink:href="#DejaVuSans-6e"/>
      <use x="222.167969" xlink:href="#DejaVuSans-6f"/>
      <use x="283.349609" xlink:href="#DejaVuSans-74"/>
      <use x="322.558594" xlink:href="#DejaVuSans-79"/>
      <use x="381.738281" xlink:href="#DejaVuSans-70"/>
      <use x="445.214844" xlink:href="#DejaVuSans-65"/>
      <use x="506.738281" xlink:href="#DejaVuSans-20"/>
      <use x="538.525391" xlink:href="#DejaVuSans-73"/>
      <use x="590.625" xlink:href="#DejaVuSans-69"/>
      <use x="618.408203" xlink:href="#DejaVuSans-7a"/>
      <use x="670.898438" xlink:href="#DejaVuSans-65"/>
      <use x="732.421875" xlink:href="#DejaVuSans-20"/>
      <use x="764.208984" xlink:href="#DejaVuSans-69"/>
      <use x="791.992188" xlink:href="#DejaVuSans-6e"/>
      <use x="855.371094" xlink:href="#DejaVuSans-20"/>
      <use x="887.158203" xlink:href="#DejaVuSans-4c"/>
      <use x="929.121094" xlink:href="#DejaVuSans-54"/>
      <use x="990.205078" xlink:href="#DejaVuSans-32"/>
     </g>
    </g>
   </g>
   <g id="patch_3">
    <path d="M 34.85 179.198438 
L 34.85 20.798438 
" style="fill:none;stroke:#000000;stroke-linecap:square;stroke-linejoin:miter;stroke-width:0.8;"/>
   </g>
   <g id="patch_4">
    <path d="M 34.85 179.198438 
L 207.65 179.198438 
" style="fill:none;stroke:#000000;stroke-linecap:square;stroke-linejoin:miter;stroke-width:0.8;"/>
   </g>
   <g id="text_12">
    <!-- Repertoire overlap between LN2 and LT2 -->
    <g transform="translate(19.396094 14.798438)scale(0.1 -0.1)">
     <defs>
      <path d="M 2841 2188 
Q 3044 2119 3236 1894 
Q 3428 1669 3622 1275 
L 4263 0 
L 3584 0 
L 2988 1197 
Q 2756 1666 2539 1819 
Q 2322 1972 1947 1972 
L 1259 1972 
L 1259 0 
L 628 0 
L 628 4666 
L 2053 4666 
Q 2853 4666 3247 4331 
Q 3641 3997 3641 3322 
Q 3641 2881 3436 2590 
Q 3231 2300 2841 2188 
z
M 1259 4147 
L 1259 2491 
L 2053 2491 
Q 2509 2491 2742 2702 
Q 2975 2913 2975 3322 
Q 2975 3731 2742 3939 
Q 2509 4147 2053 4147 
L 1259 4147 
z
" id="DejaVuSans-52" transform="scale(0.015625)"/>
      <path d="M 2631 2963 
Q 2534 3019 2420 3045 
Q 2306 3072 2169 3072 
Q 1681 3072 1420 2755 
Q 1159 2438 1159 1844 
L 1159 0 
L 581 0 
L 581 3500 
L 1159 3500 
L 1159 2956 
Q 1341 3275 1631 3429 
Q 1922 3584 2338 3584 
Q 2397 3584 2469 3576 
Q 2541 3569 2628 3553 
L 2631 2963 
z
" id="DejaVuSans-72" transform="scale(0.015625)"/>
      <path d="M 191 3500 
L 800 3500 
L 1894 563 
L 2988 3500 
L 3597 3500 
L 2284 0 
L 1503 0 
L 191 3500 
z
" id="DejaVuSans-76" transform="scale(0.015625)"/>
      <path d="M 2194 1759 
Q 1497 1759 1228 1600 
Q 959 1441 959 1056 
Q 959 750 1161 570 
Q 1363 391 1709 391 
Q 2188 391 2477 730 
Q 2766 1069 2766 1631 
L 2766 1759 
L 2194 1759 
z
M 3341 1997 
L 3341 0 
L 2766 0 
L 2766 531 
Q 2569 213 2275 61 
Q 1981 -91 1556 -91 
Q 1019 -91 701 211 
Q 384 513 384 1019 
Q 384 1609 779 1909 
Q 1175 2209 1959 2209 
L 2766 2209 
L 2766 2266 
Q 2766 2663 2505 2880 
Q 2244 3097 1772 3097 
Q 1472 3097 1187 3025 
Q 903 2953 641 2809 
L 641 3341 
Q 956 3463 1253 3523 
Q 1550 3584 1831 3584 
Q 2591 3584 2966 3190 
Q 3341 2797 3341 1997 
z
" id="DejaVuSans-61" transform="scale(0.015625)"/>
      <path d="M 3116 1747 
Q 3116 2381 2855 2742 
Q 2594 3103 2138 3103 
Q 1681 3103 1420 2742 
Q 1159 2381 1159 1747 
Q 1159 1113 1420 752 
Q 1681 391 2138 391 
Q 2594 391 2855 752 
Q 3116 1113 3116 1747 
z
M 1159 2969 
Q 1341 3281 1617 3432 
Q 1894 3584 2278 3584 
Q 2916 3584 3314 3078 
Q 3713 2572 3713 1747 
Q 3713 922 3314 415 
Q 2916 -91 2278 -91 
Q 1894 -91 1617 61 
Q 1341 213 1159 525 
L 1159 0 
L 581 0 
L 581 4863 
L 1159 4863 
L 1159 2969 
z
" id="DejaVuSans-62" transform="scale(0.015625)"/>
      <path d="M 269 3500 
L 844 3500 
L 1563 769 
L 2278 3500 
L 2956 3500 
L 3675 769 
L 4391 3500 
L 4966 3500 
L 4050 0 
L 3372 0 
L 2619 2869 
L 1863 0 
L 1184 0 
L 269 3500 
z
" id="DejaVuSans-77" transform="scale(0.015625)"/>
      <path d="M 2906 2969 
L 2906 4863 
L 3481 4863 
L 3481 0 
L 2906 0 
L 2906 525 
Q 2725 213 2448 61 
Q 2172 -91 1784 -91 
Q 1150 -91 751 415 
Q 353 922 353 1747 
Q 353 2572 751 3078 
Q 1150 3584 1784 3584 
Q 2172 3584 2448 3432 
Q 2725 3281 2906 2969 
z
M 947 1747 
Q 947 1113 1208 752 
Q 1469 391 1925 391 
Q 2381 391 2643 752 
Q 2906 1113 2906 1747 
Q 2906 2381 2643 2742 
Q 2381 3103 1925 3103 
Q 1469 3103 1208 2742 
Q 947 2381 947 1747 
z
" id="DejaVuSans-64" transform="scale(0.015625)"/>
     </defs>
     <use xlink:href="#DejaVuSans-52"/>
     <use x="64.982422" xlink:href="#DejaVuSans-65"/>
     <use x="126.505859" xlink:href="#DejaVuSans-70"/>
     <use x="189.982422" xlink:href="#DejaVuSans-65"/>
     <use x="251.505859" xlink:href="#DejaVuSans-72"/>
     <use x="292.619141" xlink:href="#DejaVuSans-74"/>
     <use x="331.828125" xlink:href="#DejaVuSans-6f"/>
     <use x="393.009766" xlink:href="#DejaVuSans-69"/>
     <use x="420.792969" xlink:href="#DejaVuSans-72"/>
     <use x="459.65625" xlink:href="#DejaVuSans-65"/>
     <use x="521.179688" xlink:href="#DejaVuSans-20"/>
     <use x="552.966797" xlink:href="#DejaVuSans-6f"/>
     <use x="614.148438" xlink:href="#DejaVuSans-76"/>
     <use x="673.328125" xlink:href="#DejaVuSans-65"/>
     <use x="734.851562" xlink:href="#DejaVuSans-72"/>
     <use x="775.964844" xlink:href="#DejaVuSans-6c"/>
     <use x="803.748047" xlink:href="#DejaVuSans-61"/>
     <use x="865.027344" xlink:href="#DejaVuSans-70"/>
     <use x="928.503906" xlink:href="#DejaVuSans-20"/>
     <use x="960.291016" xlink:href="#DejaVuSans-62"/>
     <use x="1023.767578" xlink:href="#DejaVuSans-65"/>
     <use x="1085.291016" xlink:href="#DejaVuSans-74"/>
     <use x="1124.5" xlink:href="#DejaVuSans-77"/>
     <use x="1206.287109" xlink:href="#DejaVuSans-65"/>
     <use x="1267.810547" xlink:href="#DejaVuSans-65"/>
     <use x="1329.333984" xlink:href="#DejaVuSans-6e"/>
     <use x="1392.712891" xlink:href="#DejaVuSans-20"/>
     <use x="1424.5" xlink:href="#DejaVuSans-4c"/>
     <use x="1480.212891" xlink:href="#DejaVuSans-4e"/>
     <use x="1555.017578" xlink:href="#DejaVuSans-32"/>
     <use x="1618.640625" xlink:href="#DejaVuSans-20"/>
     <use x="1650.427734" xlink:href="#DejaVuSans-61"/>
     <use x="1711.707031" xlink:href="#DejaVuSans-6e"/>
     <use x="1775.085938" xlink:href="#DejaVuSans-64"/>
     <use x="1838.5625" xlink:href="#DejaVuSans-20"/>
     <use x="1870.349609" xlink:href="#DejaVuSans-4c"/>
     <use x="1912.3125" xlink:href="#DejaVuSans-54"/>
     <use x="1973.396484" xlink:href="#DejaVuSans-32"/>
    </g>
   </g>
   <g id="legend_1"/>
  </g>
 </g>
 <defs>
  <clipPath id="pb5c980c363">
   <rect height="158.4" width="172.8" x="34.85" y="20.798438"/>
  </clipPath>
 </defs>
</svg>
