<?xml version="1.0" encoding="utf-8" standalone="no"?>
<!DOCTYPE svg PUBLIC "-//W3C//DTD SVG 1.1//EN"
  "http://www.w3.org/Graphics/SVG/1.1/DTD/svg11.dtd">
<!-- Created with matplotlib (https://matplotlib.org/) -->
<svg height="218.912813pt" version="1.1" viewBox="0 0 273.573281 218.912813" width="273.573281pt" xmlns="http://www.w3.org/2000/svg" xmlns:xlink="http://www.w3.org/1999/xlink">
 <metadata>
  <rdf:RDF xmlns:cc="http://creativecommons.org/ns#" xmlns:dc="http://purl.org/dc/elements/1.1/" xmlns:rdf="http://www.w3.org/1999/02/22-rdf-syntax-ns#">
   <cc:Work>
    <dc:type rdf:resource="http://purl.org/dc/dcmitype/StillImage"/>
    <dc:date>2021-03-17T08:52:11.106548</dc:date>
    <dc:format>image/svg+xml</dc:format>
    <dc:creator>
     <cc:Agent>
      <dc:title>Matplotlib v3.3.4, https://matplotlib.org/</dc:title>
     </cc:Agent>
    </dc:creator>
   </cc:Work>
  </rdf:RDF>
 </metadata>
 <defs>
  <style type="text/css">*{stroke-linecap:butt;stroke-linejoin:round;}</style>
 </defs>
 <g id="figure_1">
  <g id="patch_1">
   <path d="M 0 218.912813 
L 273.573281 218.912813 
L 273.573281 0 
L 0 0 
z
" style="fill:#ffffff;"/>
  </g>
  <g id="axes_1">
   <g id="patch_2">
    <path d="M 48.613281 179.198438 
L 221.413281 179.198438 
L 221.413281 20.798437 
L 48.613281 20.798437 
z
" style="fill:#ffffff;"/>
   </g>
   <g id="PathCollection_1">
    <path clip-path="url(#p8a3d294d41)" d="M 48.613281 183.215674 
C 52.910063 183.215674 57.031437 181.508545 60.06972 178.470261 
C 63.108004 175.431978 64.815133 171.310603 64.815133 167.013822 
C 64.815133 162.717041 63.108004 158.595666 60.06972 155.557383 
C 57.031437 152.5191 52.910063 150.81197 48.613281 150.81197 
C 44.3165 150.81197 40.195125 152.5191 37.156842 155.557383 
C 34.118559 158.595666 32.41143 162.717041 32.41143 167.013822 
C 32.41143 171.310603 34.118559 175.431978 37.156842 178.470261 
C 40.195125 181.508545 44.3165 183.215674 48.613281 183.215674 
z
" style="fill:#1f77b4;fill-opacity:0.3;stroke:#1f77b4;stroke-opacity:0.3;"/>
    <path clip-path="url(#p8a3d294d41)" d="M 48.613281 161.39088 
C 50.353457 161.39088 52.022595 160.699501 53.253085 159.46901 
C 54.483575 158.23852 55.174954 156.569383 55.174954 154.829207 
C 55.174954 153.089031 54.483575 151.419893 53.253085 150.189403 
C 52.022595 148.958913 50.353457 148.267534 48.613281 148.267534 
C 46.873105 148.267534 45.203968 148.958913 43.973478 150.189403 
C 42.742987 151.419893 42.051608 153.089031 42.051608 154.829207 
C 42.051608 156.569383 42.742987 158.23852 43.973478 159.46901 
C 45.203968 160.699501 46.873105 161.39088 48.613281 161.39088 
z
" style="fill:#1f77b4;fill-opacity:0.3;stroke:#1f77b4;stroke-opacity:0.3;"/>
    <path clip-path="url(#p8a3d294d41)" d="M 48.613281 146.893774 
C 49.740178 146.893774 50.821071 146.446054 51.617907 145.649217 
C 52.414743 144.852381 52.862464 143.771488 52.862464 142.644591 
C 52.862464 141.517695 52.414743 140.436801 51.617907 139.639965 
C 50.821071 138.843129 49.740178 138.395408 48.613281 138.395408 
C 47.486385 138.395408 46.405491 138.843129 45.608655 139.639965 
C 44.811819 140.436801 44.364098 141.517695 44.364098 142.644591 
C 44.364098 143.771488 44.811819 144.852381 45.608655 145.649217 
C 46.405491 146.446054 47.486385 146.893774 48.613281 146.893774 
z
" style="fill:#1f77b4;fill-opacity:0.3;stroke:#1f77b4;stroke-opacity:0.3;"/>
    <path clip-path="url(#p8a3d294d41)" d="M 48.613281 134.124117 
C 49.585023 134.124117 50.517095 133.73804 51.20422 133.050915 
C 51.891345 132.36379 52.277422 131.431717 52.277422 130.459976 
C 52.277422 129.488235 51.891345 128.556162 51.20422 127.869037 
C 50.517095 127.181912 49.585023 126.795835 48.613281 126.795835 
C 47.64154 126.795835 46.709468 127.181912 46.022343 127.869037 
C 45.335218 128.556162 44.949141 129.488235 44.949141 130.459976 
C 44.949141 131.431717 45.335218 132.36379 46.022343 133.050915 
C 46.709468 133.73804 47.64154 134.124117 48.613281 134.124117 
z
" style="fill:#1f77b4;fill-opacity:0.3;stroke:#1f77b4;stroke-opacity:0.3;"/>
    <path clip-path="url(#p8a3d294d41)" d="M 48.613281 121.810894 
C 49.550916 121.810894 50.450274 121.438368 51.113281 120.775361 
C 51.776289 120.112353 52.148815 119.212995 52.148815 118.275361 
C 52.148815 117.337726 51.776289 116.438368 51.113281 115.775361 
C 50.450274 115.112353 49.550916 114.739827 48.613281 114.739827 
C 47.675647 114.739827 46.776289 115.112353 46.113281 115.775361 
C 45.450274 116.438368 45.077747 117.337726 45.077747 118.275361 
C 45.077747 119.212995 45.450274 120.112353 46.113281 120.775361 
C 46.776289 121.438368 47.675647 121.810894 48.613281 121.810894 
z
" style="fill:#1f77b4;fill-opacity:0.3;stroke:#1f77b4;stroke-opacity:0.3;"/>
    <path clip-path="url(#p8a3d294d41)" d="M 61.905589 187.991322 
C 64.237489 187.991322 66.474195 187.064848 68.123097 185.415946 
C 69.772 183.767043 70.698473 181.530338 70.698473 179.198438 
C 70.698473 176.866537 69.772 174.629832 68.123097 172.980929 
C 66.474195 171.332027 64.237489 170.405553 61.905589 170.405553 
C 59.573689 170.405553 57.336983 171.332027 55.688081 172.980929 
C 54.039178 174.629832 53.112705 176.866537 53.112705 179.198438 
C 53.112705 181.530338 54.039178 183.767043 55.688081 185.415946 
C 57.336983 187.064848 59.573689 187.991322 61.905589 187.991322 
z
" style="fill:#1f77b4;fill-opacity:0.3;stroke:#1f77b4;stroke-opacity:0.3;"/>
    <path clip-path="url(#p8a3d294d41)" d="M 61.905589 171.370596 
C 63.061019 171.370596 64.169281 170.911539 64.986294 170.094527 
C 65.803306 169.277514 66.262363 168.169252 66.262363 167.013822 
C 66.262363 165.858392 65.803306 164.75013 64.986294 163.933118 
C 64.169281 163.116105 63.061019 162.657048 61.905589 162.657048 
C 60.750159 162.657048 59.641897 163.116105 58.824884 163.933118 
C 58.007872 164.75013 57.548815 165.858392 57.548815 167.013822 
C 57.548815 168.169252 58.007872 169.277514 58.824884 170.094527 
C 59.641897 170.911539 60.750159 171.370596 61.905589 171.370596 
z
" style="fill:#1f77b4;fill-opacity:0.3;stroke:#1f77b4;stroke-opacity:0.3;"/>
    <path clip-path="url(#p8a3d294d41)" d="M 61.905589 158.493347 
C 62.87733 158.493347 63.809403 158.10727 64.496528 157.420145 
C 65.183653 156.73302 65.569729 155.800948 65.569729 154.829207 
C 65.569729 153.857465 65.183653 152.925393 64.496528 152.238268 
C 63.809403 151.551143 62.87733 151.165066 61.905589 151.165066 
C 60.933848 151.165066 60.001775 151.551143 59.31465 152.238268 
C 58.627525 152.925393 58.241448 153.857465 58.241448 154.829207 
C 58.241448 155.800948 58.627525 156.73302 59.31465 157.420145 
C 60.001775 158.10727 60.933848 158.493347 61.905589 158.493347 
z
" style="fill:#1f77b4;fill-opacity:0.3;stroke:#1f77b4;stroke-opacity:0.3;"/>
    <path clip-path="url(#p8a3d294d41)" d="M 61.905589 109.626279 
C 62.843223 109.626279 63.742581 109.253753 64.405589 108.590745 
C 65.068597 107.927737 65.441123 107.02838 65.441123 106.090745 
C 65.441123 105.153111 65.068597 104.253753 64.405589 103.590745 
C 63.742581 102.927737 62.843223 102.555211 61.905589 102.555211 
C 60.967954 102.555211 60.068597 102.927737 59.405589 103.590745 
C 58.742581 104.253753 58.370055 105.153111 58.370055 106.090745 
C 58.370055 107.02838 58.742581 107.927737 59.405589 108.590745 
C 60.068597 109.253753 60.967954 109.626279 61.905589 109.626279 
z
" style="fill:#1f77b4;fill-opacity:0.3;stroke:#1f77b4;stroke-opacity:0.3;"/>
    <path clip-path="url(#p8a3d294d41)" d="M 75.197897 183.337233 
C 76.295518 183.337233 77.348332 182.901144 78.124467 182.125008 
C 78.900603 181.348872 79.336692 180.296059 79.336692 179.198438 
C 79.336692 178.100816 78.900603 177.048003 78.124467 176.271867 
C 77.348332 175.495731 76.295518 175.059642 75.197897 175.059642 
C 74.100275 175.059642 73.047462 175.495731 72.271326 176.271867 
C 71.495191 177.048003 71.059101 178.100816 71.059101 179.198438 
C 71.059101 180.296059 71.495191 181.348872 72.271326 182.125008 
C 73.047462 182.901144 74.100275 183.337233 75.197897 183.337233 
z
" style="fill:#1f77b4;fill-opacity:0.3;stroke:#1f77b4;stroke-opacity:0.3;"/>
    <path clip-path="url(#p8a3d294d41)" d="M 75.197897 158.364741 
C 76.135531 158.364741 77.034889 157.992214 77.697897 157.329207 
C 78.360904 156.666199 78.733431 155.766841 78.733431 154.829207 
C 78.733431 153.891572 78.360904 152.992214 77.697897 152.329207 
C 77.034889 151.666199 76.135531 151.293673 75.197897 151.293673 
C 74.260262 151.293673 73.360904 151.666199 72.697897 152.329207 
C 72.034889 152.992214 71.662363 153.891572 71.662363 154.829207 
C 71.662363 155.766841 72.034889 156.666199 72.697897 157.329207 
C 73.360904 157.992214 74.260262 158.364741 75.197897 158.364741 
z
" style="fill:#1f77b4;fill-opacity:0.3;stroke:#1f77b4;stroke-opacity:0.3;"/>
    <path clip-path="url(#p8a3d294d41)" d="M 88.490204 170.549356 
C 89.427839 170.549356 90.327197 170.17683 90.990204 169.513822 
C 91.653212 168.850814 92.025738 167.951457 92.025738 167.013822 
C 92.025738 166.076188 91.653212 165.17683 90.990204 164.513822 
C 90.327197 163.850814 89.427839 163.478288 88.490204 163.478288 
C 87.55257 163.478288 86.653212 163.850814 85.990204 164.513822 
C 85.327197 165.17683 84.95467 166.076188 84.95467 167.013822 
C 84.95467 167.951457 85.327197 168.850814 85.990204 169.513822 
C 86.653212 170.17683 87.55257 170.549356 88.490204 170.549356 
z
" style="fill:#1f77b4;fill-opacity:0.3;stroke:#1f77b4;stroke-opacity:0.3;"/>
    <path clip-path="url(#p8a3d294d41)" d="M 88.490204 146.180125 
C 89.427839 146.180125 90.327197 145.807599 90.990204 145.144591 
C 91.653212 144.481584 92.025738 143.582226 92.025738 142.644591 
C 92.025738 141.706957 91.653212 140.807599 90.990204 140.144591 
C 90.327197 139.481584 89.427839 139.109057 88.490204 139.109057 
C 87.55257 139.109057 86.653212 139.481584 85.990204 140.144591 
C 85.327197 140.807599 84.95467 141.706957 84.95467 142.644591 
C 84.95467 143.582226 85.327197 144.481584 85.990204 145.144591 
C 86.653212 145.807599 87.55257 146.180125 88.490204 146.180125 
z
" style="fill:#1f77b4;fill-opacity:0.3;stroke:#1f77b4;stroke-opacity:0.3;"/>
    <path clip-path="url(#p8a3d294d41)" d="M 101.782512 170.549356 
C 102.720147 170.549356 103.619504 170.17683 104.282512 169.513822 
C 104.94552 168.850814 105.318046 167.951457 105.318046 167.013822 
C 105.318046 166.076188 104.94552 165.17683 104.282512 164.513822 
C 103.619504 163.850814 102.720147 163.478288 101.782512 163.478288 
C 100.844877 163.478288 99.94552 163.850814 99.282512 164.513822 
C 98.619504 165.17683 98.246978 166.076188 98.246978 167.013822 
C 98.246978 167.951457 98.619504 168.850814 99.282512 169.513822 
C 99.94552 170.17683 100.844877 170.549356 101.782512 170.549356 
z
" style="fill:#1f77b4;fill-opacity:0.3;stroke:#1f77b4;stroke-opacity:0.3;"/>
    <path clip-path="url(#p8a3d294d41)" d="M 101.782512 36.518587 
C 102.720147 36.518587 103.619504 36.146061 104.282512 35.483053 
C 104.94552 34.820045 105.318046 33.920687 105.318046 32.983053 
C 105.318046 32.045418 104.94552 31.146061 104.282512 30.483053 
C 103.619504 29.820045 102.720147 29.447519 101.782512 29.447519 
C 100.844877 29.447519 99.94552 29.820045 99.282512 30.483053 
C 98.619504 31.146061 98.246978 32.045418 98.246978 32.983053 
C 98.246978 33.920687 98.619504 34.820045 99.282512 35.483053 
C 99.94552 36.146061 100.844877 36.518587 101.782512 36.518587 
z
" style="fill:#1f77b4;fill-opacity:0.3;stroke:#1f77b4;stroke-opacity:0.3;"/>
    <path clip-path="url(#p8a3d294d41)" d="M 115.07482 182.733971 
C 116.012454 182.733971 116.911812 182.361445 117.57482 181.698438 
C 118.237827 181.03543 118.610354 180.136072 118.610354 179.198438 
C 118.610354 178.260803 118.237827 177.361445 117.57482 176.698438 
C 116.911812 176.03543 116.012454 175.662904 115.07482 175.662904 
C 114.137185 175.662904 113.237827 176.03543 112.57482 176.698438 
C 111.911812 177.361445 111.539286 178.260803 111.539286 179.198438 
C 111.539286 180.136072 111.911812 181.03543 112.57482 181.698438 
C 113.237827 182.361445 114.137185 182.733971 115.07482 182.733971 
z
" style="fill:#1f77b4;fill-opacity:0.3;stroke:#1f77b4;stroke-opacity:0.3;"/>
    <path clip-path="url(#p8a3d294d41)" d="M 115.07482 121.810894 
C 116.012454 121.810894 116.911812 121.438368 117.57482 120.775361 
C 118.237827 120.112353 118.610354 119.212995 118.610354 118.275361 
C 118.610354 117.337726 118.237827 116.438368 117.57482 115.775361 
C 116.911812 115.112353 116.012454 114.739827 115.07482 114.739827 
C 114.137185 114.739827 113.237827 115.112353 112.57482 115.775361 
C 111.911812 116.438368 111.539286 117.337726 111.539286 118.275361 
C 111.539286 119.212995 111.911812 120.112353 112.57482 120.775361 
C 113.237827 121.438368 114.137185 121.810894 115.07482 121.810894 
z
" style="fill:#1f77b4;fill-opacity:0.3;stroke:#1f77b4;stroke-opacity:0.3;"/>
    <path clip-path="url(#p8a3d294d41)" d="M 141.659435 158.364741 
C 142.59707 158.364741 143.496427 157.992214 144.159435 157.329207 
C 144.822443 156.666199 145.194969 155.766841 145.194969 154.829207 
C 145.194969 153.891572 144.822443 152.992214 144.159435 152.329207 
C 143.496427 151.666199 142.59707 151.293673 141.659435 151.293673 
C 140.721801 151.293673 139.822443 151.666199 139.159435 152.329207 
C 138.496427 152.992214 138.123901 153.891572 138.123901 154.829207 
C 138.123901 155.766841 138.496427 156.666199 139.159435 157.329207 
C 139.822443 157.992214 140.721801 158.364741 141.659435 158.364741 
z
" style="fill:#1f77b4;fill-opacity:0.3;stroke:#1f77b4;stroke-opacity:0.3;"/>
    <path clip-path="url(#p8a3d294d41)" d="M 141.659435 121.810894 
C 142.59707 121.810894 143.496427 121.438368 144.159435 120.775361 
C 144.822443 120.112353 145.194969 119.212995 145.194969 118.275361 
C 145.194969 117.337726 144.822443 116.438368 144.159435 115.775361 
C 143.496427 115.112353 142.59707 114.739827 141.659435 114.739827 
C 140.721801 114.739827 139.822443 115.112353 139.159435 115.775361 
C 138.496427 116.438368 138.123901 117.337726 138.123901 118.275361 
C 138.123901 119.212995 138.496427 120.112353 139.159435 120.775361 
C 139.822443 121.438368 140.721801 121.810894 141.659435 121.810894 
z
" style="fill:#1f77b4;fill-opacity:0.3;stroke:#1f77b4;stroke-opacity:0.3;"/>
    <path clip-path="url(#p8a3d294d41)" d="M 154.951743 182.733971 
C 155.889377 182.733971 156.788735 182.361445 157.451743 181.698438 
C 158.114751 181.03543 158.487277 180.136072 158.487277 179.198438 
C 158.487277 178.260803 158.114751 177.361445 157.451743 176.698438 
C 156.788735 176.03543 155.889377 175.662904 154.951743 175.662904 
C 154.014108 175.662904 153.114751 176.03543 152.451743 176.698438 
C 151.788735 177.361445 151.416209 178.260803 151.416209 179.198438 
C 151.416209 180.136072 151.788735 181.03543 152.451743 181.698438 
C 153.114751 182.361445 154.014108 182.733971 154.951743 182.733971 
z
" style="fill:#1f77b4;fill-opacity:0.3;stroke:#1f77b4;stroke-opacity:0.3;"/>
    <path clip-path="url(#p8a3d294d41)" d="M 181.536358 182.733971 
C 182.473993 182.733971 183.37335 182.361445 184.036358 181.698438 
C 184.699366 181.03543 185.071892 180.136072 185.071892 179.198438 
C 185.071892 178.260803 184.699366 177.361445 184.036358 176.698438 
C 183.37335 176.03543 182.473993 175.662904 181.536358 175.662904 
C 180.598724 175.662904 179.699366 176.03543 179.036358 176.698438 
C 178.37335 177.361445 178.000824 178.260803 178.000824 179.198438 
C 178.000824 180.136072 178.37335 181.03543 179.036358 181.698438 
C 179.699366 182.361445 180.598724 182.733971 181.536358 182.733971 
z
" style="fill:#1f77b4;fill-opacity:0.3;stroke:#1f77b4;stroke-opacity:0.3;"/>
   </g>
   <g id="matplotlib.axis_1">
    <g id="xtick_1">
     <g id="line2d_1">
      <path clip-path="url(#p8a3d294d41)" d="M 48.613281 179.198438 
L 48.613281 20.798437 
" style="fill:none;stroke:#cccccc;stroke-linecap:square;stroke-width:0.8;"/>
     </g>
     <g id="line2d_2">
      <defs>
       <path d="M 0 0 
L 0 3.5 
" id="m578c27fbf5" style="stroke:#000000;stroke-width:0.8;"/>
      </defs>
      <g>
       <use style="stroke:#000000;stroke-width:0.8;" x="48.613281" xlink:href="#m578c27fbf5" y="179.198438"/>
      </g>
     </g>
     <g id="text_1">
      <!-- 0 -->
      <g transform="translate(44.159531 196.83625)scale(0.14 -0.14)">
       <defs>
        <path d="M 31.78125 66.40625 
Q 24.171875 66.40625 20.328125 58.90625 
Q 16.5 51.421875 16.5 36.375 
Q 16.5 21.390625 20.328125 13.890625 
Q 24.171875 6.390625 31.78125 6.390625 
Q 39.453125 6.390625 43.28125 13.890625 
Q 47.125 21.390625 47.125 36.375 
Q 47.125 51.421875 43.28125 58.90625 
Q 39.453125 66.40625 31.78125 66.40625 
z
M 31.78125 74.21875 
Q 44.046875 74.21875 50.515625 64.515625 
Q 56.984375 54.828125 56.984375 36.375 
Q 56.984375 17.96875 50.515625 8.265625 
Q 44.046875 -1.421875 31.78125 -1.421875 
Q 19.53125 -1.421875 13.0625 8.265625 
Q 6.59375 17.96875 6.59375 36.375 
Q 6.59375 54.828125 13.0625 64.515625 
Q 19.53125 74.21875 31.78125 74.21875 
z
" id="DejaVuSans-48"/>
       </defs>
       <use xlink:href="#DejaVuSans-48"/>
      </g>
     </g>
    </g>
    <g id="xtick_2">
     <g id="line2d_3">
      <path clip-path="url(#p8a3d294d41)" d="M 115.07482 179.198438 
L 115.07482 20.798437 
" style="fill:none;stroke:#cccccc;stroke-linecap:square;stroke-width:0.8;"/>
     </g>
     <g id="line2d_4">
      <g>
       <use style="stroke:#000000;stroke-width:0.8;" x="115.07482" xlink:href="#m578c27fbf5" y="179.198438"/>
      </g>
     </g>
     <g id="text_2">
      <!-- 5 -->
      <g transform="translate(110.62107 196.83625)scale(0.14 -0.14)">
       <defs>
        <path d="M 10.796875 72.90625 
L 49.515625 72.90625 
L 49.515625 64.59375 
L 19.828125 64.59375 
L 19.828125 46.734375 
Q 21.96875 47.46875 24.109375 47.828125 
Q 26.265625 48.1875 28.421875 48.1875 
Q 40.625 48.1875 47.75 41.5 
Q 54.890625 34.8125 54.890625 23.390625 
Q 54.890625 11.625 47.5625 5.09375 
Q 40.234375 -1.421875 26.90625 -1.421875 
Q 22.3125 -1.421875 17.546875 -0.640625 
Q 12.796875 0.140625 7.71875 1.703125 
L 7.71875 11.625 
Q 12.109375 9.234375 16.796875 8.0625 
Q 21.484375 6.890625 26.703125 6.890625 
Q 35.15625 6.890625 40.078125 11.328125 
Q 45.015625 15.765625 45.015625 23.390625 
Q 45.015625 31 40.078125 35.4375 
Q 35.15625 39.890625 26.703125 39.890625 
Q 22.75 39.890625 18.8125 39.015625 
Q 14.890625 38.140625 10.796875 36.28125 
z
" id="DejaVuSans-53"/>
       </defs>
       <use xlink:href="#DejaVuSans-53"/>
      </g>
     </g>
    </g>
    <g id="xtick_3">
     <g id="line2d_5">
      <path clip-path="url(#p8a3d294d41)" d="M 181.536358 179.198438 
L 181.536358 20.798437 
" style="fill:none;stroke:#cccccc;stroke-linecap:square;stroke-width:0.8;"/>
     </g>
     <g id="line2d_6">
      <g>
       <use style="stroke:#000000;stroke-width:0.8;" x="181.536358" xlink:href="#m578c27fbf5" y="179.198438"/>
      </g>
     </g>
     <g id="text_3">
      <!-- 10 -->
      <g transform="translate(172.628858 196.83625)scale(0.14 -0.14)">
       <defs>
        <path d="M 12.40625 8.296875 
L 28.515625 8.296875 
L 28.515625 63.921875 
L 10.984375 60.40625 
L 10.984375 69.390625 
L 28.421875 72.90625 
L 38.28125 72.90625 
L 38.28125 8.296875 
L 54.390625 8.296875 
L 54.390625 0 
L 12.40625 0 
z
" id="DejaVuSans-49"/>
       </defs>
       <use xlink:href="#DejaVuSans-49"/>
       <use x="63.623047" xlink:href="#DejaVuSans-48"/>
      </g>
     </g>
    </g>
    <g id="text_4">
     <!-- Clonotype size in CD8_Teff -->
     <g transform="translate(82.068281 209.826563)scale(0.08 -0.08)">
      <defs>
       <path d="M 64.40625 67.28125 
L 64.40625 56.890625 
Q 59.421875 61.53125 53.78125 63.8125 
Q 48.140625 66.109375 41.796875 66.109375 
Q 29.296875 66.109375 22.65625 58.46875 
Q 16.015625 50.828125 16.015625 36.375 
Q 16.015625 21.96875 22.65625 14.328125 
Q 29.296875 6.6875 41.796875 6.6875 
Q 48.140625 6.6875 53.78125 8.984375 
Q 59.421875 11.28125 64.40625 15.921875 
L 64.40625 5.609375 
Q 59.234375 2.09375 53.4375 0.328125 
Q 47.65625 -1.421875 41.21875 -1.421875 
Q 24.65625 -1.421875 15.125 8.703125 
Q 5.609375 18.84375 5.609375 36.375 
Q 5.609375 53.953125 15.125 64.078125 
Q 24.65625 74.21875 41.21875 74.21875 
Q 47.75 74.21875 53.53125 72.484375 
Q 59.328125 70.75 64.40625 67.28125 
z
" id="DejaVuSans-67"/>
       <path d="M 9.421875 75.984375 
L 18.40625 75.984375 
L 18.40625 0 
L 9.421875 0 
z
" id="DejaVuSans-108"/>
       <path d="M 30.609375 48.390625 
Q 23.390625 48.390625 19.1875 42.75 
Q 14.984375 37.109375 14.984375 27.296875 
Q 14.984375 17.484375 19.15625 11.84375 
Q 23.34375 6.203125 30.609375 6.203125 
Q 37.796875 6.203125 41.984375 11.859375 
Q 46.1875 17.53125 46.1875 27.296875 
Q 46.1875 37.015625 41.984375 42.703125 
Q 37.796875 48.390625 30.609375 48.390625 
z
M 30.609375 56 
Q 42.328125 56 49.015625 48.375 
Q 55.71875 40.765625 55.71875 27.296875 
Q 55.71875 13.875 49.015625 6.21875 
Q 42.328125 -1.421875 30.609375 -1.421875 
Q 18.84375 -1.421875 12.171875 6.21875 
Q 5.515625 13.875 5.515625 27.296875 
Q 5.515625 40.765625 12.171875 48.375 
Q 18.84375 56 30.609375 56 
z
" id="DejaVuSans-111"/>
       <path d="M 54.890625 33.015625 
L 54.890625 0 
L 45.90625 0 
L 45.90625 32.71875 
Q 45.90625 40.484375 42.875 44.328125 
Q 39.84375 48.1875 33.796875 48.1875 
Q 26.515625 48.1875 22.3125 43.546875 
Q 18.109375 38.921875 18.109375 30.90625 
L 18.109375 0 
L 9.078125 0 
L 9.078125 54.6875 
L 18.109375 54.6875 
L 18.109375 46.1875 
Q 21.34375 51.125 25.703125 53.5625 
Q 30.078125 56 35.796875 56 
Q 45.21875 56 50.046875 50.171875 
Q 54.890625 44.34375 54.890625 33.015625 
z
" id="DejaVuSans-110"/>
       <path d="M 18.3125 70.21875 
L 18.3125 54.6875 
L 36.8125 54.6875 
L 36.8125 47.703125 
L 18.3125 47.703125 
L 18.3125 18.015625 
Q 18.3125 11.328125 20.140625 9.421875 
Q 21.96875 7.515625 27.59375 7.515625 
L 36.8125 7.515625 
L 36.8125 0 
L 27.59375 0 
Q 17.1875 0 13.234375 3.875 
Q 9.28125 7.765625 9.28125 18.015625 
L 9.28125 47.703125 
L 2.6875 47.703125 
L 2.6875 54.6875 
L 9.28125 54.6875 
L 9.28125 70.21875 
z
" id="DejaVuSans-116"/>
       <path d="M 32.171875 -5.078125 
Q 28.375 -14.84375 24.75 -17.8125 
Q 21.140625 -20.796875 15.09375 -20.796875 
L 7.90625 -20.796875 
L 7.90625 -13.28125 
L 13.1875 -13.28125 
Q 16.890625 -13.28125 18.9375 -11.515625 
Q 21 -9.765625 23.484375 -3.21875 
L 25.09375 0.875 
L 2.984375 54.6875 
L 12.5 54.6875 
L 29.59375 11.921875 
L 46.6875 54.6875 
L 56.203125 54.6875 
z
" id="DejaVuSans-121"/>
       <path d="M 18.109375 8.203125 
L 18.109375 -20.796875 
L 9.078125 -20.796875 
L 9.078125 54.6875 
L 18.109375 54.6875 
L 18.109375 46.390625 
Q 20.953125 51.265625 25.265625 53.625 
Q 29.59375 56 35.59375 56 
Q 45.5625 56 51.78125 48.09375 
Q 58.015625 40.1875 58.015625 27.296875 
Q 58.015625 14.40625 51.78125 6.484375 
Q 45.5625 -1.421875 35.59375 -1.421875 
Q 29.59375 -1.421875 25.265625 0.953125 
Q 20.953125 3.328125 18.109375 8.203125 
z
M 48.6875 27.296875 
Q 48.6875 37.203125 44.609375 42.84375 
Q 40.53125 48.484375 33.40625 48.484375 
Q 26.265625 48.484375 22.1875 42.84375 
Q 18.109375 37.203125 18.109375 27.296875 
Q 18.109375 17.390625 22.1875 11.75 
Q 26.265625 6.109375 33.40625 6.109375 
Q 40.53125 6.109375 44.609375 11.75 
Q 48.6875 17.390625 48.6875 27.296875 
z
" id="DejaVuSans-112"/>
       <path d="M 56.203125 29.59375 
L 56.203125 25.203125 
L 14.890625 25.203125 
Q 15.484375 15.921875 20.484375 11.0625 
Q 25.484375 6.203125 34.421875 6.203125 
Q 39.59375 6.203125 44.453125 7.46875 
Q 49.3125 8.734375 54.109375 11.28125 
L 54.109375 2.78125 
Q 49.265625 0.734375 44.1875 -0.34375 
Q 39.109375 -1.421875 33.890625 -1.421875 
Q 20.796875 -1.421875 13.15625 6.1875 
Q 5.515625 13.8125 5.515625 26.8125 
Q 5.515625 40.234375 12.765625 48.109375 
Q 20.015625 56 32.328125 56 
Q 43.359375 56 49.78125 48.890625 
Q 56.203125 41.796875 56.203125 29.59375 
z
M 47.21875 32.234375 
Q 47.125 39.59375 43.09375 43.984375 
Q 39.0625 48.390625 32.421875 48.390625 
Q 24.90625 48.390625 20.390625 44.140625 
Q 15.875 39.890625 15.1875 32.171875 
z
" id="DejaVuSans-101"/>
       <path id="DejaVuSans-32"/>
       <path d="M 44.28125 53.078125 
L 44.28125 44.578125 
Q 40.484375 46.53125 36.375 47.5 
Q 32.28125 48.484375 27.875 48.484375 
Q 21.1875 48.484375 17.84375 46.4375 
Q 14.5 44.390625 14.5 40.28125 
Q 14.5 37.15625 16.890625 35.375 
Q 19.28125 33.59375 26.515625 31.984375 
L 29.59375 31.296875 
Q 39.15625 29.25 43.1875 25.515625 
Q 47.21875 21.78125 47.21875 15.09375 
Q 47.21875 7.46875 41.1875 3.015625 
Q 35.15625 -1.421875 24.609375 -1.421875 
Q 20.21875 -1.421875 15.453125 -0.5625 
Q 10.6875 0.296875 5.421875 2 
L 5.421875 11.28125 
Q 10.40625 8.6875 15.234375 7.390625 
Q 20.0625 6.109375 24.8125 6.109375 
Q 31.15625 6.109375 34.5625 8.28125 
Q 37.984375 10.453125 37.984375 14.40625 
Q 37.984375 18.0625 35.515625 20.015625 
Q 33.0625 21.96875 24.703125 23.78125 
L 21.578125 24.515625 
Q 13.234375 26.265625 9.515625 29.90625 
Q 5.8125 33.546875 5.8125 39.890625 
Q 5.8125 47.609375 11.28125 51.796875 
Q 16.75 56 26.8125 56 
Q 31.78125 56 36.171875 55.265625 
Q 40.578125 54.546875 44.28125 53.078125 
z
" id="DejaVuSans-115"/>
       <path d="M 9.421875 54.6875 
L 18.40625 54.6875 
L 18.40625 0 
L 9.421875 0 
z
M 9.421875 75.984375 
L 18.40625 75.984375 
L 18.40625 64.59375 
L 9.421875 64.59375 
z
" id="DejaVuSans-105"/>
       <path d="M 5.515625 54.6875 
L 48.1875 54.6875 
L 48.1875 46.484375 
L 14.40625 7.171875 
L 48.1875 7.171875 
L 48.1875 0 
L 4.296875 0 
L 4.296875 8.203125 
L 38.09375 47.515625 
L 5.515625 47.515625 
z
" id="DejaVuSans-122"/>
       <path d="M 19.671875 64.796875 
L 19.671875 8.109375 
L 31.59375 8.109375 
Q 46.6875 8.109375 53.6875 14.9375 
Q 60.6875 21.78125 60.6875 36.53125 
Q 60.6875 51.171875 53.6875 57.984375 
Q 46.6875 64.796875 31.59375 64.796875 
z
M 9.8125 72.90625 
L 30.078125 72.90625 
Q 51.265625 72.90625 61.171875 64.09375 
Q 71.09375 55.28125 71.09375 36.53125 
Q 71.09375 17.671875 61.125 8.828125 
Q 51.171875 0 30.078125 0 
L 9.8125 0 
z
" id="DejaVuSans-68"/>
       <path d="M 31.78125 34.625 
Q 24.75 34.625 20.71875 30.859375 
Q 16.703125 27.09375 16.703125 20.515625 
Q 16.703125 13.921875 20.71875 10.15625 
Q 24.75 6.390625 31.78125 6.390625 
Q 38.8125 6.390625 42.859375 10.171875 
Q 46.921875 13.96875 46.921875 20.515625 
Q 46.921875 27.09375 42.890625 30.859375 
Q 38.875 34.625 31.78125 34.625 
z
M 21.921875 38.8125 
Q 15.578125 40.375 12.03125 44.71875 
Q 8.5 49.078125 8.5 55.328125 
Q 8.5 64.0625 14.71875 69.140625 
Q 20.953125 74.21875 31.78125 74.21875 
Q 42.671875 74.21875 48.875 69.140625 
Q 55.078125 64.0625 55.078125 55.328125 
Q 55.078125 49.078125 51.53125 44.71875 
Q 48 40.375 41.703125 38.8125 
Q 48.828125 37.15625 52.796875 32.3125 
Q 56.78125 27.484375 56.78125 20.515625 
Q 56.78125 9.90625 50.3125 4.234375 
Q 43.84375 -1.421875 31.78125 -1.421875 
Q 19.734375 -1.421875 13.25 4.234375 
Q 6.78125 9.90625 6.78125 20.515625 
Q 6.78125 27.484375 10.78125 32.3125 
Q 14.796875 37.15625 21.921875 38.8125 
z
M 18.3125 54.390625 
Q 18.3125 48.734375 21.84375 45.5625 
Q 25.390625 42.390625 31.78125 42.390625 
Q 38.140625 42.390625 41.71875 45.5625 
Q 45.3125 48.734375 45.3125 54.390625 
Q 45.3125 60.0625 41.71875 63.234375 
Q 38.140625 66.40625 31.78125 66.40625 
Q 25.390625 66.40625 21.84375 63.234375 
Q 18.3125 60.0625 18.3125 54.390625 
z
" id="DejaVuSans-56"/>
       <path d="M 50.984375 -16.609375 
L 50.984375 -23.578125 
L -0.984375 -23.578125 
L -0.984375 -16.609375 
z
" id="DejaVuSans-95"/>
       <path d="M -0.296875 72.90625 
L 61.375 72.90625 
L 61.375 64.59375 
L 35.5 64.59375 
L 35.5 0 
L 25.59375 0 
L 25.59375 64.59375 
L -0.296875 64.59375 
z
" id="DejaVuSans-84"/>
       <path d="M 37.109375 75.984375 
L 37.109375 68.5 
L 28.515625 68.5 
Q 23.6875 68.5 21.796875 66.546875 
Q 19.921875 64.59375 19.921875 59.515625 
L 19.921875 54.6875 
L 34.71875 54.6875 
L 34.71875 47.703125 
L 19.921875 47.703125 
L 19.921875 0 
L 10.890625 0 
L 10.890625 47.703125 
L 2.296875 47.703125 
L 2.296875 54.6875 
L 10.890625 54.6875 
L 10.890625 58.5 
Q 10.890625 67.625 15.140625 71.796875 
Q 19.390625 75.984375 28.609375 75.984375 
z
" id="DejaVuSans-102"/>
      </defs>
      <use xlink:href="#DejaVuSans-67"/>
      <use x="69.824219" xlink:href="#DejaVuSans-108"/>
      <use x="97.607422" xlink:href="#DejaVuSans-111"/>
      <use x="158.789062" xlink:href="#DejaVuSans-110"/>
      <use x="222.167969" xlink:href="#DejaVuSans-111"/>
      <use x="283.349609" xlink:href="#DejaVuSans-116"/>
      <use x="322.558594" xlink:href="#DejaVuSans-121"/>
      <use x="381.738281" xlink:href="#DejaVuSans-112"/>
      <use x="445.214844" xlink:href="#DejaVuSans-101"/>
      <use x="506.738281" xlink:href="#DejaVuSans-32"/>
      <use x="538.525391" xlink:href="#DejaVuSans-115"/>
      <use x="590.625" xlink:href="#DejaVuSans-105"/>
      <use x="618.408203" xlink:href="#DejaVuSans-122"/>
      <use x="670.898438" xlink:href="#DejaVuSans-101"/>
      <use x="732.421875" xlink:href="#DejaVuSans-32"/>
      <use x="764.208984" xlink:href="#DejaVuSans-105"/>
      <use x="791.992188" xlink:href="#DejaVuSans-110"/>
      <use x="855.371094" xlink:href="#DejaVuSans-32"/>
      <use x="887.158203" xlink:href="#DejaVuSans-67"/>
      <use x="956.982422" xlink:href="#DejaVuSans-68"/>
      <use x="1033.984375" xlink:href="#DejaVuSans-56"/>
      <use x="1097.607422" xlink:href="#DejaVuSans-95"/>
      <use x="1147.607422" xlink:href="#DejaVuSans-84"/>
      <use x="1191.691406" xlink:href="#DejaVuSans-101"/>
      <use x="1253.214844" xlink:href="#DejaVuSans-102"/>
      <use x="1288.419922" xlink:href="#DejaVuSans-102"/>
     </g>
    </g>
   </g>
   <g id="matplotlib.axis_2">
    <g id="ytick_1">
     <g id="line2d_7">
      <path clip-path="url(#p8a3d294d41)" d="M 48.613281 179.198438 
L 221.413281 179.198438 
" style="fill:none;stroke:#cccccc;stroke-linecap:square;stroke-width:0.8;"/>
     </g>
     <g id="line2d_8">
      <defs>
       <path d="M 0 0 
L -3.5 0 
" id="maf9d53527d" style="stroke:#000000;stroke-width:0.8;"/>
      </defs>
      <g>
       <use style="stroke:#000000;stroke-width:0.8;" x="48.613281" xlink:href="#maf9d53527d" y="179.198438"/>
      </g>
     </g>
     <g id="text_5">
      <!-- 0 -->
      <g transform="translate(32.705781 184.517344)scale(0.14 -0.14)">
       <use xlink:href="#DejaVuSans-48"/>
      </g>
     </g>
    </g>
    <g id="ytick_2">
     <g id="line2d_9">
      <path clip-path="url(#p8a3d294d41)" d="M 48.613281 118.275361 
L 221.413281 118.275361 
" style="fill:none;stroke:#cccccc;stroke-linecap:square;stroke-width:0.8;"/>
     </g>
     <g id="line2d_10">
      <g>
       <use style="stroke:#000000;stroke-width:0.8;" x="48.613281" xlink:href="#maf9d53527d" y="118.275361"/>
      </g>
     </g>
     <g id="text_6">
      <!-- 5 -->
      <g transform="translate(32.705781 123.594267)scale(0.14 -0.14)">
       <use xlink:href="#DejaVuSans-53"/>
      </g>
     </g>
    </g>
    <g id="ytick_3">
     <g id="line2d_11">
      <path clip-path="url(#p8a3d294d41)" d="M 48.613281 57.352284 
L 221.413281 57.352284 
" style="fill:none;stroke:#cccccc;stroke-linecap:square;stroke-width:0.8;"/>
     </g>
     <g id="line2d_12">
      <g>
       <use style="stroke:#000000;stroke-width:0.8;" x="48.613281" xlink:href="#maf9d53527d" y="57.352284"/>
      </g>
     </g>
     <g id="text_7">
      <!-- 10 -->
      <g transform="translate(23.798281 62.67119)scale(0.14 -0.14)">
       <use xlink:href="#DejaVuSans-49"/>
       <use x="63.623047" xlink:href="#DejaVuSans-48"/>
      </g>
     </g>
    </g>
    <g id="text_8">
     <!-- Clonotype size in CD8_Trm -->
     <g transform="translate(17.912031 153.226562)rotate(-90)scale(0.08 -0.08)">
      <defs>
       <path d="M 41.109375 46.296875 
Q 39.59375 47.171875 37.8125 47.578125 
Q 36.03125 48 33.890625 48 
Q 26.265625 48 22.1875 43.046875 
Q 18.109375 38.09375 18.109375 28.8125 
L 18.109375 0 
L 9.078125 0 
L 9.078125 54.6875 
L 18.109375 54.6875 
L 18.109375 46.1875 
Q 20.953125 51.171875 25.484375 53.578125 
Q 30.03125 56 36.53125 56 
Q 37.453125 56 38.578125 55.875 
Q 39.703125 55.765625 41.0625 55.515625 
z
" id="DejaVuSans-114"/>
       <path d="M 52 44.1875 
Q 55.375 50.25 60.0625 53.125 
Q 64.75 56 71.09375 56 
Q 79.640625 56 84.28125 50.015625 
Q 88.921875 44.046875 88.921875 33.015625 
L 88.921875 0 
L 79.890625 0 
L 79.890625 32.71875 
Q 79.890625 40.578125 77.09375 44.375 
Q 74.3125 48.1875 68.609375 48.1875 
Q 61.625 48.1875 57.5625 43.546875 
Q 53.515625 38.921875 53.515625 30.90625 
L 53.515625 0 
L 44.484375 0 
L 44.484375 32.71875 
Q 44.484375 40.625 41.703125 44.40625 
Q 38.921875 48.1875 33.109375 48.1875 
Q 26.21875 48.1875 22.15625 43.53125 
Q 18.109375 38.875 18.109375 30.90625 
L 18.109375 0 
L 9.078125 0 
L 9.078125 54.6875 
L 18.109375 54.6875 
L 18.109375 46.1875 
Q 21.1875 51.21875 25.484375 53.609375 
Q 29.78125 56 35.6875 56 
Q 41.65625 56 45.828125 52.96875 
Q 50 49.953125 52 44.1875 
z
" id="DejaVuSans-109"/>
      </defs>
      <use xlink:href="#DejaVuSans-67"/>
      <use x="69.824219" xlink:href="#DejaVuSans-108"/>
      <use x="97.607422" xlink:href="#DejaVuSans-111"/>
      <use x="158.789062" xlink:href="#DejaVuSans-110"/>
      <use x="222.167969" xlink:href="#DejaVuSans-111"/>
      <use x="283.349609" xlink:href="#DejaVuSans-116"/>
      <use x="322.558594" xlink:href="#DejaVuSans-121"/>
      <use x="381.738281" xlink:href="#DejaVuSans-112"/>
      <use x="445.214844" xlink:href="#DejaVuSans-101"/>
      <use x="506.738281" xlink:href="#DejaVuSans-32"/>
      <use x="538.525391" xlink:href="#DejaVuSans-115"/>
      <use x="590.625" xlink:href="#DejaVuSans-105"/>
      <use x="618.408203" xlink:href="#DejaVuSans-122"/>
      <use x="670.898438" xlink:href="#DejaVuSans-101"/>
      <use x="732.421875" xlink:href="#DejaVuSans-32"/>
      <use x="764.208984" xlink:href="#DejaVuSans-105"/>
      <use x="791.992188" xlink:href="#DejaVuSans-110"/>
      <use x="855.371094" xlink:href="#DejaVuSans-32"/>
      <use x="887.158203" xlink:href="#DejaVuSans-67"/>
      <use x="956.982422" xlink:href="#DejaVuSans-68"/>
      <use x="1033.984375" xlink:href="#DejaVuSans-56"/>
      <use x="1097.607422" xlink:href="#DejaVuSans-95"/>
      <use x="1147.607422" xlink:href="#DejaVuSans-84"/>
      <use x="1193.941406" xlink:href="#DejaVuSans-114"/>
      <use x="1233.304688" xlink:href="#DejaVuSans-109"/>
     </g>
    </g>
   </g>
   <g id="patch_3">
    <path d="M 48.613281 179.198438 
L 48.613281 20.798437 
" style="fill:none;stroke:#000000;stroke-linecap:square;stroke-linejoin:miter;stroke-width:0.8;"/>
   </g>
   <g id="patch_4">
    <path d="M 48.613281 179.198438 
L 221.413281 179.198438 
" style="fill:none;stroke:#000000;stroke-linecap:square;stroke-linejoin:miter;stroke-width:0.8;"/>
   </g>
   <g id="text_9">
    <!-- Repertoire overlap between CD8_Teff and CD8_Trm -->
    <g transform="translate(7.2 14.798437)scale(0.1 -0.1)">
     <defs>
      <path d="M 44.390625 34.1875 
Q 47.5625 33.109375 50.5625 29.59375 
Q 53.5625 26.078125 56.59375 19.921875 
L 66.609375 0 
L 56 0 
L 46.6875 18.703125 
Q 43.0625 26.03125 39.671875 28.421875 
Q 36.28125 30.8125 30.421875 30.8125 
L 19.671875 30.8125 
L 19.671875 0 
L 9.8125 0 
L 9.8125 72.90625 
L 32.078125 72.90625 
Q 44.578125 72.90625 50.734375 67.671875 
Q 56.890625 62.453125 56.890625 51.90625 
Q 56.890625 45.015625 53.6875 40.46875 
Q 50.484375 35.9375 44.390625 34.1875 
z
M 19.671875 64.796875 
L 19.671875 38.921875 
L 32.078125 38.921875 
Q 39.203125 38.921875 42.84375 42.21875 
Q 46.484375 45.515625 46.484375 51.90625 
Q 46.484375 58.296875 42.84375 61.546875 
Q 39.203125 64.796875 32.078125 64.796875 
z
" id="DejaVuSans-82"/>
      <path d="M 2.984375 54.6875 
L 12.5 54.6875 
L 29.59375 8.796875 
L 46.6875 54.6875 
L 56.203125 54.6875 
L 35.6875 0 
L 23.484375 0 
z
" id="DejaVuSans-118"/>
      <path d="M 34.28125 27.484375 
Q 23.390625 27.484375 19.1875 25 
Q 14.984375 22.515625 14.984375 16.5 
Q 14.984375 11.71875 18.140625 8.90625 
Q 21.296875 6.109375 26.703125 6.109375 
Q 34.1875 6.109375 38.703125 11.40625 
Q 43.21875 16.703125 43.21875 25.484375 
L 43.21875 27.484375 
z
M 52.203125 31.203125 
L 52.203125 0 
L 43.21875 0 
L 43.21875 8.296875 
Q 40.140625 3.328125 35.546875 0.953125 
Q 30.953125 -1.421875 24.3125 -1.421875 
Q 15.921875 -1.421875 10.953125 3.296875 
Q 6 8.015625 6 15.921875 
Q 6 25.140625 12.171875 29.828125 
Q 18.359375 34.515625 30.609375 34.515625 
L 43.21875 34.515625 
L 43.21875 35.40625 
Q 43.21875 41.609375 39.140625 45 
Q 35.0625 48.390625 27.6875 48.390625 
Q 23 48.390625 18.546875 47.265625 
Q 14.109375 46.140625 10.015625 43.890625 
L 10.015625 52.203125 
Q 14.9375 54.109375 19.578125 55.046875 
Q 24.21875 56 28.609375 56 
Q 40.484375 56 46.34375 49.84375 
Q 52.203125 43.703125 52.203125 31.203125 
z
" id="DejaVuSans-97"/>
      <path d="M 48.6875 27.296875 
Q 48.6875 37.203125 44.609375 42.84375 
Q 40.53125 48.484375 33.40625 48.484375 
Q 26.265625 48.484375 22.1875 42.84375 
Q 18.109375 37.203125 18.109375 27.296875 
Q 18.109375 17.390625 22.1875 11.75 
Q 26.265625 6.109375 33.40625 6.109375 
Q 40.53125 6.109375 44.609375 11.75 
Q 48.6875 17.390625 48.6875 27.296875 
z
M 18.109375 46.390625 
Q 20.953125 51.265625 25.265625 53.625 
Q 29.59375 56 35.59375 56 
Q 45.5625 56 51.78125 48.09375 
Q 58.015625 40.1875 58.015625 27.296875 
Q 58.015625 14.40625 51.78125 6.484375 
Q 45.5625 -1.421875 35.59375 -1.421875 
Q 29.59375 -1.421875 25.265625 0.953125 
Q 20.953125 3.328125 18.109375 8.203125 
L 18.109375 0 
L 9.078125 0 
L 9.078125 75.984375 
L 18.109375 75.984375 
z
" id="DejaVuSans-98"/>
      <path d="M 4.203125 54.6875 
L 13.1875 54.6875 
L 24.421875 12.015625 
L 35.59375 54.6875 
L 46.1875 54.6875 
L 57.421875 12.015625 
L 68.609375 54.6875 
L 77.59375 54.6875 
L 63.28125 0 
L 52.6875 0 
L 40.921875 44.828125 
L 29.109375 0 
L 18.5 0 
z
" id="DejaVuSans-119"/>
      <path d="M 45.40625 46.390625 
L 45.40625 75.984375 
L 54.390625 75.984375 
L 54.390625 0 
L 45.40625 0 
L 45.40625 8.203125 
Q 42.578125 3.328125 38.25 0.953125 
Q 33.9375 -1.421875 27.875 -1.421875 
Q 17.96875 -1.421875 11.734375 6.484375 
Q 5.515625 14.40625 5.515625 27.296875 
Q 5.515625 40.1875 11.734375 48.09375 
Q 17.96875 56 27.875 56 
Q 33.9375 56 38.25 53.625 
Q 42.578125 51.265625 45.40625 46.390625 
z
M 14.796875 27.296875 
Q 14.796875 17.390625 18.875 11.75 
Q 22.953125 6.109375 30.078125 6.109375 
Q 37.203125 6.109375 41.296875 11.75 
Q 45.40625 17.390625 45.40625 27.296875 
Q 45.40625 37.203125 41.296875 42.84375 
Q 37.203125 48.484375 30.078125 48.484375 
Q 22.953125 48.484375 18.875 42.84375 
Q 14.796875 37.203125 14.796875 27.296875 
z
" id="DejaVuSans-100"/>
     </defs>
     <use xlink:href="#DejaVuSans-82"/>
     <use x="64.982422" xlink:href="#DejaVuSans-101"/>
     <use x="126.505859" xlink:href="#DejaVuSans-112"/>
     <use x="189.982422" xlink:href="#DejaVuSans-101"/>
     <use x="251.505859" xlink:href="#DejaVuSans-114"/>
     <use x="292.619141" xlink:href="#DejaVuSans-116"/>
     <use x="331.828125" xlink:href="#DejaVuSans-111"/>
     <use x="393.009766" xlink:href="#DejaVuSans-105"/>
     <use x="420.792969" xlink:href="#DejaVuSans-114"/>
     <use x="459.65625" xlink:href="#DejaVuSans-101"/>
     <use x="521.179688" xlink:href="#DejaVuSans-32"/>
     <use x="552.966797" xlink:href="#DejaVuSans-111"/>
     <use x="614.148438" xlink:href="#DejaVuSans-118"/>
     <use x="673.328125" xlink:href="#DejaVuSans-101"/>
     <use x="734.851562" xlink:href="#DejaVuSans-114"/>
     <use x="775.964844" xlink:href="#DejaVuSans-108"/>
     <use x="803.748047" xlink:href="#DejaVuSans-97"/>
     <use x="865.027344" xlink:href="#DejaVuSans-112"/>
     <use x="928.503906" xlink:href="#DejaVuSans-32"/>
     <use x="960.291016" xlink:href="#DejaVuSans-98"/>
     <use x="1023.767578" xlink:href="#DejaVuSans-101"/>
     <use x="1085.291016" xlink:href="#DejaVuSans-116"/>
     <use x="1124.5" xlink:href="#DejaVuSans-119"/>
     <use x="1206.287109" xlink:href="#DejaVuSans-101"/>
     <use x="1267.810547" xlink:href="#DejaVuSans-101"/>
     <use x="1329.333984" xlink:href="#DejaVuSans-110"/>
     <use x="1392.712891" xlink:href="#DejaVuSans-32"/>
     <use x="1424.5" xlink:href="#DejaVuSans-67"/>
     <use x="1494.324219" xlink:href="#DejaVuSans-68"/>
     <use x="1571.326172" xlink:href="#DejaVuSans-56"/>
     <use x="1634.949219" xlink:href="#DejaVuSans-95"/>
     <use x="1684.949219" xlink:href="#DejaVuSans-84"/>
     <use x="1729.033203" xlink:href="#DejaVuSans-101"/>
     <use x="1790.556641" xlink:href="#DejaVuSans-102"/>
     <use x="1825.761719" xlink:href="#DejaVuSans-102"/>
     <use x="1860.966797" xlink:href="#DejaVuSans-32"/>
     <use x="1892.753906" xlink:href="#DejaVuSans-97"/>
     <use x="1954.033203" xlink:href="#DejaVuSans-110"/>
     <use x="2017.412109" xlink:href="#DejaVuSans-100"/>
     <use x="2080.888672" xlink:href="#DejaVuSans-32"/>
     <use x="2112.675781" xlink:href="#DejaVuSans-67"/>
     <use x="2182.5" xlink:href="#DejaVuSans-68"/>
     <use x="2259.501953" xlink:href="#DejaVuSans-56"/>
     <use x="2323.125" xlink:href="#DejaVuSans-95"/>
     <use x="2373.125" xlink:href="#DejaVuSans-84"/>
     <use x="2419.458984" xlink:href="#DejaVuSans-114"/>
     <use x="2458.822266" xlink:href="#DejaVuSans-109"/>
    </g>
   </g>
   <g id="legend_1"/>
  </g>
 </g>
 <defs>
  <clipPath id="p8a3d294d41">
   <rect height="158.4" width="172.8" x="48.613281" y="20.798437"/>
  </clipPath>
 </defs>
</svg>
