<?xml version="1.0" encoding="utf-8" standalone="no"?>
<!DOCTYPE svg PUBLIC "-//W3C//DTD SVG 1.1//EN"
  "http://www.w3.org/Graphics/SVG/1.1/DTD/svg11.dtd">
<!-- Created with matplotlib (https://matplotlib.org/) -->
<svg height="218.690313pt" version="1.1" viewBox="0 0 259.81 218.690313" width="259.81pt" xmlns="http://www.w3.org/2000/svg" xmlns:xlink="http://www.w3.org/1999/xlink">
 <metadata>
  <rdf:RDF xmlns:cc="http://creativecommons.org/ns#" xmlns:dc="http://purl.org/dc/elements/1.1/" xmlns:rdf="http://www.w3.org/1999/02/22-rdf-syntax-ns#">
   <cc:Work>
    <dc:type rdf:resource="http://purl.org/dc/dcmitype/StillImage"/>
    <dc:date>2021-03-17T11:24:02.663422</dc:date>
    <dc:format>image/svg+xml</dc:format>
    <dc:creator>
     <cc:Agent>
      <dc:title>Matplotlib v3.3.4, https://matplotlib.org/</dc:title>
     </cc:Agent>
    </dc:creator>
   </cc:Work>
  </rdf:RDF>
 </metadata>
 <defs>
  <style type="text/css">*{stroke-linecap:butt;stroke-linejoin:round;}</style>
 </defs>
 <g id="figure_1">
  <g id="patch_1">
   <path d="M 0 218.690313 
L 259.81 218.690313 
L 259.81 0 
L 0 0 
z
" style="fill:#ffffff;"/>
  </g>
  <g id="axes_1">
   <g id="patch_2">
    <path d="M 34.85 179.198438 
L 207.65 179.198438 
L 207.65 20.798438 
L 34.85 20.798438 
z
" style="fill:#ffffff;"/>
   </g>
   <g id="PathCollection_1">
    <path clip-path="url(#p7b7df435bc)" d="M 34.85 177.800289 
C 39.146781 177.800289 43.268156 176.09316 46.306439 173.054877 
C 49.344722 170.016594 51.051852 165.895219 51.051852 161.598438 
C 51.051852 157.301656 49.344722 153.180281 46.306439 150.141998 
C 43.268156 147.103715 39.146781 145.396586 34.85 145.396586 
C 30.553219 145.396586 26.431844 147.103715 23.393561 150.141998 
C 20.355278 153.180281 18.648148 157.301656 18.648148 161.598438 
C 18.648148 165.895219 20.355278 170.016594 23.393561 173.054877 
C 26.431844 176.09316 30.553219 177.800289 34.85 177.800289 
z
" style="fill:#1f77b4;fill-opacity:0.3;stroke:#1f77b4;stroke-opacity:0.3;"/>
    <path clip-path="url(#p7b7df435bc)" d="M 34.85 149.322446 
C 36.261944 149.322446 37.616248 148.761475 38.614643 147.76308 
C 39.613038 146.764685 40.174009 145.410381 40.174009 143.998438 
C 40.174009 142.586494 39.613038 141.23219 38.614643 140.233795 
C 37.616248 139.2354 36.261944 138.674429 34.85 138.674429 
C 33.438056 138.674429 32.083752 139.2354 31.085357 140.233795 
C 30.086962 141.23219 29.525991 142.586494 29.525991 143.998438 
C 29.525991 145.410381 30.086962 146.764685 31.085357 147.76308 
C 32.083752 148.761475 33.438056 149.322446 34.85 149.322446 
z
" style="fill:#1f77b4;fill-opacity:0.3;stroke:#1f77b4;stroke-opacity:0.3;"/>
    <path clip-path="url(#p7b7df435bc)" d="M 34.85 130.174754 
C 35.851491 130.174754 36.812098 129.776857 37.520259 129.068696 
C 38.22842 128.360535 38.626316 127.399928 38.626316 126.398438 
C 38.626316 125.396947 38.22842 124.43634 37.520259 123.728179 
C 36.812098 123.020018 35.851491 122.622121 34.85 122.622121 
C 33.848509 122.622121 32.887902 123.020018 32.179741 123.728179 
C 31.47158 124.43634 31.073684 125.396947 31.073684 126.398438 
C 31.073684 127.399928 31.47158 128.360535 32.179741 129.068696 
C 32.887902 129.776857 33.848509 130.174754 34.85 130.174754 
z
" style="fill:#1f77b4;fill-opacity:0.3;stroke:#1f77b4;stroke-opacity:0.3;"/>
    <path clip-path="url(#p7b7df435bc)" d="M 34.85 112.574754 
C 35.851491 112.574754 36.812098 112.176857 37.520259 111.468696 
C 38.22842 110.760535 38.626316 109.799928 38.626316 108.798438 
C 38.626316 107.796947 38.22842 106.83634 37.520259 106.128179 
C 36.812098 105.420018 35.851491 105.022121 34.85 105.022121 
C 33.848509 105.022121 32.887902 105.420018 32.179741 106.128179 
C 31.47158 106.83634 31.073684 107.796947 31.073684 108.798438 
C 31.073684 109.799928 31.47158 110.760535 32.179741 111.468696 
C 32.887902 112.176857 33.848509 112.574754 34.85 112.574754 
z
" style="fill:#1f77b4;fill-opacity:0.3;stroke:#1f77b4;stroke-opacity:0.3;"/>
    <path clip-path="url(#p7b7df435bc)" d="M 34.85 94.733971 
C 35.787635 94.733971 36.686992 94.361445 37.35 93.698438 
C 38.013008 93.03543 38.385534 92.136072 38.385534 91.198438 
C 38.385534 90.260803 38.013008 89.361445 37.35 88.698438 
C 36.686992 88.03543 35.787635 87.662904 34.85 87.662904 
C 33.912365 87.662904 33.013008 88.03543 32.35 88.698438 
C 31.686992 89.361445 31.314466 90.260803 31.314466 91.198438 
C 31.314466 92.136072 31.686992 93.03543 32.35 93.698438 
C 33.013008 94.361445 33.912365 94.733971 34.85 94.733971 
z
" style="fill:#1f77b4;fill-opacity:0.3;stroke:#1f77b4;stroke-opacity:0.3;"/>
    <path clip-path="url(#p7b7df435bc)" d="M 54.05 192.340403 
C 57.53529 192.340403 60.878301 190.955683 63.342773 188.491211 
C 65.807245 186.026738 67.191966 182.683728 67.191966 179.198438 
C 67.191966 175.713147 65.807245 172.370137 63.342773 169.905664 
C 60.878301 167.441192 57.53529 166.056472 54.05 166.056472 
C 50.56471 166.056472 47.221699 167.441192 44.757227 169.905664 
C 42.292755 172.370137 40.908034 175.713147 40.908034 179.198438 
C 40.908034 182.683728 42.292755 186.026738 44.757227 188.491211 
C 47.221699 190.955683 50.56471 192.340403 54.05 192.340403 
z
" style="fill:#1f77b4;fill-opacity:0.3;stroke:#1f77b4;stroke-opacity:0.3;"/>
    <path clip-path="url(#p7b7df435bc)" d="M 54.05 165.133971 
C 54.987635 165.133971 55.886992 164.761445 56.55 164.098438 
C 57.213008 163.43543 57.585534 162.536072 57.585534 161.598438 
C 57.585534 160.660803 57.213008 159.761445 56.55 159.098438 
C 55.886992 158.43543 54.987635 158.062904 54.05 158.062904 
C 53.112365 158.062904 52.213008 158.43543 51.55 159.098438 
C 50.886992 159.761445 50.514466 160.660803 50.514466 161.598438 
C 50.514466 162.536072 50.886992 163.43543 51.55 164.098438 
C 52.213008 164.761445 53.112365 165.133971 54.05 165.133971 
z
" style="fill:#1f77b4;fill-opacity:0.3;stroke:#1f77b4;stroke-opacity:0.3;"/>
    <path clip-path="url(#p7b7df435bc)" d="M 54.05 129.933971 
C 54.987635 129.933971 55.886992 129.561445 56.55 128.898438 
C 57.213008 128.23543 57.585534 127.336072 57.585534 126.398438 
C 57.585534 125.460803 57.213008 124.561445 56.55 123.898438 
C 55.886992 123.23543 54.987635 122.862904 54.05 122.862904 
C 53.112365 122.862904 52.213008 123.23543 51.55 123.898438 
C 50.886992 124.561445 50.514466 125.460803 50.514466 126.398438 
C 50.514466 127.336072 50.886992 128.23543 51.55 128.898438 
C 52.213008 129.561445 53.112365 129.933971 54.05 129.933971 
z
" style="fill:#1f77b4;fill-opacity:0.3;stroke:#1f77b4;stroke-opacity:0.3;"/>
    <path clip-path="url(#p7b7df435bc)" d="M 54.05 112.333971 
C 54.987635 112.333971 55.886992 111.961445 56.55 111.298438 
C 57.213008 110.63543 57.585534 109.736072 57.585534 108.798438 
C 57.585534 107.860803 57.213008 106.961445 56.55 106.298438 
C 55.886992 105.63543 54.987635 105.262904 54.05 105.262904 
C 53.112365 105.262904 52.213008 105.63543 51.55 106.298438 
C 50.886992 106.961445 50.514466 107.860803 50.514466 108.798438 
C 50.514466 109.736072 50.886992 110.63543 51.55 111.298438 
C 52.213008 111.961445 53.112365 112.333971 54.05 112.333971 
z
" style="fill:#1f77b4;fill-opacity:0.3;stroke:#1f77b4;stroke-opacity:0.3;"/>
    <path clip-path="url(#p7b7df435bc)" d="M 73.25 184.000872 
C 74.523621 184.000872 75.745248 183.494857 76.645834 182.594272 
C 77.54642 181.693686 78.052435 180.472058 78.052435 179.198438 
C 78.052435 177.924817 77.54642 176.703189 76.645834 175.802603 
C 75.745248 174.902018 74.523621 174.396003 73.25 174.396003 
C 71.976379 174.396003 70.754752 174.902018 69.854166 175.802603 
C 68.95358 176.703189 68.447565 177.924817 68.447565 179.198438 
C 68.447565 180.472058 68.95358 181.693686 69.854166 182.594272 
C 70.754752 183.494857 71.976379 184.000872 73.25 184.000872 
z
" style="fill:#1f77b4;fill-opacity:0.3;stroke:#1f77b4;stroke-opacity:0.3;"/>
    <path clip-path="url(#p7b7df435bc)" d="M 73.25 147.533971 
C 74.187635 147.533971 75.086992 147.161445 75.75 146.498438 
C 76.413008 145.83543 76.785534 144.936072 76.785534 143.998438 
C 76.785534 143.060803 76.413008 142.161445 75.75 141.498438 
C 75.086992 140.83543 74.187635 140.462904 73.25 140.462904 
C 72.312365 140.462904 71.413008 140.83543 70.75 141.498438 
C 70.086992 142.161445 69.714466 143.060803 69.714466 143.998438 
C 69.714466 144.936072 70.086992 145.83543 70.75 146.498438 
C 71.413008 147.161445 72.312365 147.533971 73.25 147.533971 
z
" style="fill:#1f77b4;fill-opacity:0.3;stroke:#1f77b4;stroke-opacity:0.3;"/>
    <path clip-path="url(#p7b7df435bc)" d="M 73.25 129.933971 
C 74.187635 129.933971 75.086992 129.561445 75.75 128.898438 
C 76.413008 128.23543 76.785534 127.336072 76.785534 126.398438 
C 76.785534 125.460803 76.413008 124.561445 75.75 123.898438 
C 75.086992 123.23543 74.187635 122.862904 73.25 122.862904 
C 72.312365 122.862904 71.413008 123.23543 70.75 123.898438 
C 70.086992 124.561445 69.714466 125.460803 69.714466 126.398438 
C 69.714466 127.336072 70.086992 128.23543 70.75 128.898438 
C 71.413008 129.561445 72.312365 129.933971 73.25 129.933971 
z
" style="fill:#1f77b4;fill-opacity:0.3;stroke:#1f77b4;stroke-opacity:0.3;"/>
    <path clip-path="url(#p7b7df435bc)" d="M 92.45 182.733971 
C 93.387635 182.733971 94.286992 182.361445 94.95 181.698438 
C 95.613008 181.03543 95.985534 180.136072 95.985534 179.198438 
C 95.985534 178.260803 95.613008 177.361445 94.95 176.698438 
C 94.286992 176.03543 93.387635 175.662904 92.45 175.662904 
C 91.512365 175.662904 90.613008 176.03543 89.95 176.698438 
C 89.286992 177.361445 88.914466 178.260803 88.914466 179.198438 
C 88.914466 180.136072 89.286992 181.03543 89.95 181.698438 
C 90.613008 182.361445 91.512365 182.733971 92.45 182.733971 
z
" style="fill:#1f77b4;fill-opacity:0.3;stroke:#1f77b4;stroke-opacity:0.3;"/>
    <path clip-path="url(#p7b7df435bc)" d="M 92.45 165.133971 
C 93.387635 165.133971 94.286992 164.761445 94.95 164.098438 
C 95.613008 163.43543 95.985534 162.536072 95.985534 161.598438 
C 95.985534 160.660803 95.613008 159.761445 94.95 159.098438 
C 94.286992 158.43543 93.387635 158.062904 92.45 158.062904 
C 91.512365 158.062904 90.613008 158.43543 89.95 159.098438 
C 89.286992 159.761445 88.914466 160.660803 88.914466 161.598438 
C 88.914466 162.536072 89.286992 163.43543 89.95 164.098438 
C 90.613008 164.761445 91.512365 165.133971 92.45 165.133971 
z
" style="fill:#1f77b4;fill-opacity:0.3;stroke:#1f77b4;stroke-opacity:0.3;"/>
    <path clip-path="url(#p7b7df435bc)" d="M 111.65 182.733971 
C 112.587635 182.733971 113.486992 182.361445 114.15 181.698438 
C 114.813008 181.03543 115.185534 180.136072 115.185534 179.198438 
C 115.185534 178.260803 114.813008 177.361445 114.15 176.698438 
C 113.486992 176.03543 112.587635 175.662904 111.65 175.662904 
C 110.712365 175.662904 109.813008 176.03543 109.15 176.698438 
C 108.486992 177.361445 108.114466 178.260803 108.114466 179.198438 
C 108.114466 180.136072 108.486992 181.03543 109.15 181.698438 
C 109.813008 182.361445 110.712365 182.733971 111.65 182.733971 
z
" style="fill:#1f77b4;fill-opacity:0.3;stroke:#1f77b4;stroke-opacity:0.3;"/>
    <path clip-path="url(#p7b7df435bc)" d="M 111.65 129.933971 
C 112.587635 129.933971 113.486992 129.561445 114.15 128.898438 
C 114.813008 128.23543 115.185534 127.336072 115.185534 126.398438 
C 115.185534 125.460803 114.813008 124.561445 114.15 123.898438 
C 113.486992 123.23543 112.587635 122.862904 111.65 122.862904 
C 110.712365 122.862904 109.813008 123.23543 109.15 123.898438 
C 108.486992 124.561445 108.114466 125.460803 108.114466 126.398438 
C 108.114466 127.336072 108.486992 128.23543 109.15 128.898438 
C 109.813008 129.561445 110.712365 129.933971 111.65 129.933971 
z
" style="fill:#1f77b4;fill-opacity:0.3;stroke:#1f77b4;stroke-opacity:0.3;"/>
    <path clip-path="url(#p7b7df435bc)" d="M 150.05 165.133971 
C 150.987635 165.133971 151.886992 164.761445 152.55 164.098438 
C 153.213008 163.43543 153.585534 162.536072 153.585534 161.598438 
C 153.585534 160.660803 153.213008 159.761445 152.55 159.098438 
C 151.886992 158.43543 150.987635 158.062904 150.05 158.062904 
C 149.112365 158.062904 148.213008 158.43543 147.55 159.098438 
C 146.886992 159.761445 146.514466 160.660803 146.514466 161.598438 
C 146.514466 162.536072 146.886992 163.43543 147.55 164.098438 
C 148.213008 164.761445 149.112365 165.133971 150.05 165.133971 
z
" style="fill:#1f77b4;fill-opacity:0.3;stroke:#1f77b4;stroke-opacity:0.3;"/>
    <path clip-path="url(#p7b7df435bc)" d="M 169.25 129.933971 
C 170.187635 129.933971 171.086992 129.561445 171.75 128.898438 
C 172.413008 128.23543 172.785534 127.336072 172.785534 126.398438 
C 172.785534 125.460803 172.413008 124.561445 171.75 123.898438 
C 171.086992 123.23543 170.187635 122.862904 169.25 122.862904 
C 168.312365 122.862904 167.413008 123.23543 166.75 123.898438 
C 166.086992 124.561445 165.714466 125.460803 165.714466 126.398438 
C 165.714466 127.336072 166.086992 128.23543 166.75 128.898438 
C 167.413008 129.561445 168.312365 129.933971 169.25 129.933971 
z
" style="fill:#1f77b4;fill-opacity:0.3;stroke:#1f77b4;stroke-opacity:0.3;"/>
    <path clip-path="url(#p7b7df435bc)" d="M 188.45 182.733971 
C 189.387635 182.733971 190.286992 182.361445 190.95 181.698438 
C 191.613008 181.03543 191.985534 180.136072 191.985534 179.198438 
C 191.985534 178.260803 191.613008 177.361445 190.95 176.698438 
C 190.286992 176.03543 189.387635 175.662904 188.45 175.662904 
C 187.512365 175.662904 186.613008 176.03543 185.95 176.698438 
C 185.286992 177.361445 184.914466 178.260803 184.914466 179.198438 
C 184.914466 180.136072 185.286992 181.03543 185.95 181.698438 
C 186.613008 182.361445 187.512365 182.733971 188.45 182.733971 
z
" style="fill:#1f77b4;fill-opacity:0.3;stroke:#1f77b4;stroke-opacity:0.3;"/>
   </g>
   <g id="matplotlib.axis_1">
    <g id="xtick_1">
     <g id="line2d_1">
      <path clip-path="url(#p7b7df435bc)" d="M 34.85 179.198438 
L 34.85 20.798438 
" style="fill:none;stroke:#cccccc;stroke-linecap:square;stroke-width:0.8;"/>
     </g>
     <g id="line2d_2">
      <defs>
       <path d="M 0 0 
L 0 3.5 
" id="mc868529a21" style="stroke:#000000;stroke-width:0.8;"/>
      </defs>
      <g>
       <use style="stroke:#000000;stroke-width:0.8;" x="34.85" xlink:href="#mc868529a21" y="179.198438"/>
      </g>
     </g>
     <g id="text_1">
      <!-- 0.0 -->
      <g transform="translate(23.717813 196.83625)scale(0.14 -0.14)">
       <defs>
        <path d="M 31.78125 66.40625 
Q 24.171875 66.40625 20.328125 58.90625 
Q 16.5 51.421875 16.5 36.375 
Q 16.5 21.390625 20.328125 13.890625 
Q 24.171875 6.390625 31.78125 6.390625 
Q 39.453125 6.390625 43.28125 13.890625 
Q 47.125 21.390625 47.125 36.375 
Q 47.125 51.421875 43.28125 58.90625 
Q 39.453125 66.40625 31.78125 66.40625 
z
M 31.78125 74.21875 
Q 44.046875 74.21875 50.515625 64.515625 
Q 56.984375 54.828125 56.984375 36.375 
Q 56.984375 17.96875 50.515625 8.265625 
Q 44.046875 -1.421875 31.78125 -1.421875 
Q 19.53125 -1.421875 13.0625 8.265625 
Q 6.59375 17.96875 6.59375 36.375 
Q 6.59375 54.828125 13.0625 64.515625 
Q 19.53125 74.21875 31.78125 74.21875 
z
" id="DejaVuSans-48"/>
        <path d="M 10.6875 12.40625 
L 21 12.40625 
L 21 0 
L 10.6875 0 
z
" id="DejaVuSans-46"/>
       </defs>
       <use xlink:href="#DejaVuSans-48"/>
       <use x="63.623047" xlink:href="#DejaVuSans-46"/>
       <use x="95.410156" xlink:href="#DejaVuSans-48"/>
      </g>
     </g>
    </g>
    <g id="xtick_2">
     <g id="line2d_3">
      <path clip-path="url(#p7b7df435bc)" d="M 82.85 179.198438 
L 82.85 20.798438 
" style="fill:none;stroke:#cccccc;stroke-linecap:square;stroke-width:0.8;"/>
     </g>
     <g id="line2d_4">
      <g>
       <use style="stroke:#000000;stroke-width:0.8;" x="82.85" xlink:href="#mc868529a21" y="179.198438"/>
      </g>
     </g>
     <g id="text_2">
      <!-- 2.5 -->
      <g transform="translate(71.717812 196.83625)scale(0.14 -0.14)">
       <defs>
        <path d="M 19.1875 8.296875 
L 53.609375 8.296875 
L 53.609375 0 
L 7.328125 0 
L 7.328125 8.296875 
Q 12.9375 14.109375 22.625 23.890625 
Q 32.328125 33.6875 34.8125 36.53125 
Q 39.546875 41.84375 41.421875 45.53125 
Q 43.3125 49.21875 43.3125 52.78125 
Q 43.3125 58.59375 39.234375 62.25 
Q 35.15625 65.921875 28.609375 65.921875 
Q 23.96875 65.921875 18.8125 64.3125 
Q 13.671875 62.703125 7.8125 59.421875 
L 7.8125 69.390625 
Q 13.765625 71.78125 18.9375 73 
Q 24.125 74.21875 28.421875 74.21875 
Q 39.75 74.21875 46.484375 68.546875 
Q 53.21875 62.890625 53.21875 53.421875 
Q 53.21875 48.921875 51.53125 44.890625 
Q 49.859375 40.875 45.40625 35.40625 
Q 44.1875 33.984375 37.640625 27.21875 
Q 31.109375 20.453125 19.1875 8.296875 
z
" id="DejaVuSans-50"/>
        <path d="M 10.796875 72.90625 
L 49.515625 72.90625 
L 49.515625 64.59375 
L 19.828125 64.59375 
L 19.828125 46.734375 
Q 21.96875 47.46875 24.109375 47.828125 
Q 26.265625 48.1875 28.421875 48.1875 
Q 40.625 48.1875 47.75 41.5 
Q 54.890625 34.8125 54.890625 23.390625 
Q 54.890625 11.625 47.5625 5.09375 
Q 40.234375 -1.421875 26.90625 -1.421875 
Q 22.3125 -1.421875 17.546875 -0.640625 
Q 12.796875 0.140625 7.71875 1.703125 
L 7.71875 11.625 
Q 12.109375 9.234375 16.796875 8.0625 
Q 21.484375 6.890625 26.703125 6.890625 
Q 35.15625 6.890625 40.078125 11.328125 
Q 45.015625 15.765625 45.015625 23.390625 
Q 45.015625 31 40.078125 35.4375 
Q 35.15625 39.890625 26.703125 39.890625 
Q 22.75 39.890625 18.8125 39.015625 
Q 14.890625 38.140625 10.796875 36.28125 
z
" id="DejaVuSans-53"/>
       </defs>
       <use xlink:href="#DejaVuSans-50"/>
       <use x="63.623047" xlink:href="#DejaVuSans-46"/>
       <use x="95.410156" xlink:href="#DejaVuSans-53"/>
      </g>
     </g>
    </g>
    <g id="xtick_3">
     <g id="line2d_5">
      <path clip-path="url(#p7b7df435bc)" d="M 130.85 179.198438 
L 130.85 20.798438 
" style="fill:none;stroke:#cccccc;stroke-linecap:square;stroke-width:0.8;"/>
     </g>
     <g id="line2d_6">
      <g>
       <use style="stroke:#000000;stroke-width:0.8;" x="130.85" xlink:href="#mc868529a21" y="179.198438"/>
      </g>
     </g>
     <g id="text_3">
      <!-- 5.0 -->
      <g transform="translate(119.717812 196.83625)scale(0.14 -0.14)">
       <use xlink:href="#DejaVuSans-53"/>
       <use x="63.623047" xlink:href="#DejaVuSans-46"/>
       <use x="95.410156" xlink:href="#DejaVuSans-48"/>
      </g>
     </g>
    </g>
    <g id="xtick_4">
     <g id="line2d_7">
      <path clip-path="url(#p7b7df435bc)" d="M 178.85 179.198438 
L 178.85 20.798438 
" style="fill:none;stroke:#cccccc;stroke-linecap:square;stroke-width:0.8;"/>
     </g>
     <g id="line2d_8">
      <g>
       <use style="stroke:#000000;stroke-width:0.8;" x="178.85" xlink:href="#mc868529a21" y="179.198438"/>
      </g>
     </g>
     <g id="text_4">
      <!-- 7.5 -->
      <g transform="translate(167.717812 196.83625)scale(0.14 -0.14)">
       <defs>
        <path d="M 8.203125 72.90625 
L 55.078125 72.90625 
L 55.078125 68.703125 
L 28.609375 0 
L 18.3125 0 
L 43.21875 64.59375 
L 8.203125 64.59375 
z
" id="DejaVuSans-55"/>
       </defs>
       <use xlink:href="#DejaVuSans-55"/>
       <use x="63.623047" xlink:href="#DejaVuSans-46"/>
       <use x="95.410156" xlink:href="#DejaVuSans-53"/>
      </g>
     </g>
    </g>
    <g id="text_5">
     <!-- Clonotype size in LN2 -->
     <g transform="translate(77.9975 209.826563)scale(0.08 -0.08)">
      <defs>
       <path d="M 64.40625 67.28125 
L 64.40625 56.890625 
Q 59.421875 61.53125 53.78125 63.8125 
Q 48.140625 66.109375 41.796875 66.109375 
Q 29.296875 66.109375 22.65625 58.46875 
Q 16.015625 50.828125 16.015625 36.375 
Q 16.015625 21.96875 22.65625 14.328125 
Q 29.296875 6.6875 41.796875 6.6875 
Q 48.140625 6.6875 53.78125 8.984375 
Q 59.421875 11.28125 64.40625 15.921875 
L 64.40625 5.609375 
Q 59.234375 2.09375 53.4375 0.328125 
Q 47.65625 -1.421875 41.21875 -1.421875 
Q 24.65625 -1.421875 15.125 8.703125 
Q 5.609375 18.84375 5.609375 36.375 
Q 5.609375 53.953125 15.125 64.078125 
Q 24.65625 74.21875 41.21875 74.21875 
Q 47.75 74.21875 53.53125 72.484375 
Q 59.328125 70.75 64.40625 67.28125 
z
" id="DejaVuSans-67"/>
       <path d="M 9.421875 75.984375 
L 18.40625 75.984375 
L 18.40625 0 
L 9.421875 0 
z
" id="DejaVuSans-108"/>
       <path d="M 30.609375 48.390625 
Q 23.390625 48.390625 19.1875 42.75 
Q 14.984375 37.109375 14.984375 27.296875 
Q 14.984375 17.484375 19.15625 11.84375 
Q 23.34375 6.203125 30.609375 6.203125 
Q 37.796875 6.203125 41.984375 11.859375 
Q 46.1875 17.53125 46.1875 27.296875 
Q 46.1875 37.015625 41.984375 42.703125 
Q 37.796875 48.390625 30.609375 48.390625 
z
M 30.609375 56 
Q 42.328125 56 49.015625 48.375 
Q 55.71875 40.765625 55.71875 27.296875 
Q 55.71875 13.875 49.015625 6.21875 
Q 42.328125 -1.421875 30.609375 -1.421875 
Q 18.84375 -1.421875 12.171875 6.21875 
Q 5.515625 13.875 5.515625 27.296875 
Q 5.515625 40.765625 12.171875 48.375 
Q 18.84375 56 30.609375 56 
z
" id="DejaVuSans-111"/>
       <path d="M 54.890625 33.015625 
L 54.890625 0 
L 45.90625 0 
L 45.90625 32.71875 
Q 45.90625 40.484375 42.875 44.328125 
Q 39.84375 48.1875 33.796875 48.1875 
Q 26.515625 48.1875 22.3125 43.546875 
Q 18.109375 38.921875 18.109375 30.90625 
L 18.109375 0 
L 9.078125 0 
L 9.078125 54.6875 
L 18.109375 54.6875 
L 18.109375 46.1875 
Q 21.34375 51.125 25.703125 53.5625 
Q 30.078125 56 35.796875 56 
Q 45.21875 56 50.046875 50.171875 
Q 54.890625 44.34375 54.890625 33.015625 
z
" id="DejaVuSans-110"/>
       <path d="M 18.3125 70.21875 
L 18.3125 54.6875 
L 36.8125 54.6875 
L 36.8125 47.703125 
L 18.3125 47.703125 
L 18.3125 18.015625 
Q 18.3125 11.328125 20.140625 9.421875 
Q 21.96875 7.515625 27.59375 7.515625 
L 36.8125 7.515625 
L 36.8125 0 
L 27.59375 0 
Q 17.1875 0 13.234375 3.875 
Q 9.28125 7.765625 9.28125 18.015625 
L 9.28125 47.703125 
L 2.6875 47.703125 
L 2.6875 54.6875 
L 9.28125 54.6875 
L 9.28125 70.21875 
z
" id="DejaVuSans-116"/>
       <path d="M 32.171875 -5.078125 
Q 28.375 -14.84375 24.75 -17.8125 
Q 21.140625 -20.796875 15.09375 -20.796875 
L 7.90625 -20.796875 
L 7.90625 -13.28125 
L 13.1875 -13.28125 
Q 16.890625 -13.28125 18.9375 -11.515625 
Q 21 -9.765625 23.484375 -3.21875 
L 25.09375 0.875 
L 2.984375 54.6875 
L 12.5 54.6875 
L 29.59375 11.921875 
L 46.6875 54.6875 
L 56.203125 54.6875 
z
" id="DejaVuSans-121"/>
       <path d="M 18.109375 8.203125 
L 18.109375 -20.796875 
L 9.078125 -20.796875 
L 9.078125 54.6875 
L 18.109375 54.6875 
L 18.109375 46.390625 
Q 20.953125 51.265625 25.265625 53.625 
Q 29.59375 56 35.59375 56 
Q 45.5625 56 51.78125 48.09375 
Q 58.015625 40.1875 58.015625 27.296875 
Q 58.015625 14.40625 51.78125 6.484375 
Q 45.5625 -1.421875 35.59375 -1.421875 
Q 29.59375 -1.421875 25.265625 0.953125 
Q 20.953125 3.328125 18.109375 8.203125 
z
M 48.6875 27.296875 
Q 48.6875 37.203125 44.609375 42.84375 
Q 40.53125 48.484375 33.40625 48.484375 
Q 26.265625 48.484375 22.1875 42.84375 
Q 18.109375 37.203125 18.109375 27.296875 
Q 18.109375 17.390625 22.1875 11.75 
Q 26.265625 6.109375 33.40625 6.109375 
Q 40.53125 6.109375 44.609375 11.75 
Q 48.6875 17.390625 48.6875 27.296875 
z
" id="DejaVuSans-112"/>
       <path d="M 56.203125 29.59375 
L 56.203125 25.203125 
L 14.890625 25.203125 
Q 15.484375 15.921875 20.484375 11.0625 
Q 25.484375 6.203125 34.421875 6.203125 
Q 39.59375 6.203125 44.453125 7.46875 
Q 49.3125 8.734375 54.109375 11.28125 
L 54.109375 2.78125 
Q 49.265625 0.734375 44.1875 -0.34375 
Q 39.109375 -1.421875 33.890625 -1.421875 
Q 20.796875 -1.421875 13.15625 6.1875 
Q 5.515625 13.8125 5.515625 26.8125 
Q 5.515625 40.234375 12.765625 48.109375 
Q 20.015625 56 32.328125 56 
Q 43.359375 56 49.78125 48.890625 
Q 56.203125 41.796875 56.203125 29.59375 
z
M 47.21875 32.234375 
Q 47.125 39.59375 43.09375 43.984375 
Q 39.0625 48.390625 32.421875 48.390625 
Q 24.90625 48.390625 20.390625 44.140625 
Q 15.875 39.890625 15.1875 32.171875 
z
" id="DejaVuSans-101"/>
       <path id="DejaVuSans-32"/>
       <path d="M 44.28125 53.078125 
L 44.28125 44.578125 
Q 40.484375 46.53125 36.375 47.5 
Q 32.28125 48.484375 27.875 48.484375 
Q 21.1875 48.484375 17.84375 46.4375 
Q 14.5 44.390625 14.5 40.28125 
Q 14.5 37.15625 16.890625 35.375 
Q 19.28125 33.59375 26.515625 31.984375 
L 29.59375 31.296875 
Q 39.15625 29.25 43.1875 25.515625 
Q 47.21875 21.78125 47.21875 15.09375 
Q 47.21875 7.46875 41.1875 3.015625 
Q 35.15625 -1.421875 24.609375 -1.421875 
Q 20.21875 -1.421875 15.453125 -0.5625 
Q 10.6875 0.296875 5.421875 2 
L 5.421875 11.28125 
Q 10.40625 8.6875 15.234375 7.390625 
Q 20.0625 6.109375 24.8125 6.109375 
Q 31.15625 6.109375 34.5625 8.28125 
Q 37.984375 10.453125 37.984375 14.40625 
Q 37.984375 18.0625 35.515625 20.015625 
Q 33.0625 21.96875 24.703125 23.78125 
L 21.578125 24.515625 
Q 13.234375 26.265625 9.515625 29.90625 
Q 5.8125 33.546875 5.8125 39.890625 
Q 5.8125 47.609375 11.28125 51.796875 
Q 16.75 56 26.8125 56 
Q 31.78125 56 36.171875 55.265625 
Q 40.578125 54.546875 44.28125 53.078125 
z
" id="DejaVuSans-115"/>
       <path d="M 9.421875 54.6875 
L 18.40625 54.6875 
L 18.40625 0 
L 9.421875 0 
z
M 9.421875 75.984375 
L 18.40625 75.984375 
L 18.40625 64.59375 
L 9.421875 64.59375 
z
" id="DejaVuSans-105"/>
       <path d="M 5.515625 54.6875 
L 48.1875 54.6875 
L 48.1875 46.484375 
L 14.40625 7.171875 
L 48.1875 7.171875 
L 48.1875 0 
L 4.296875 0 
L 4.296875 8.203125 
L 38.09375 47.515625 
L 5.515625 47.515625 
z
" id="DejaVuSans-122"/>
       <path d="M 9.8125 72.90625 
L 19.671875 72.90625 
L 19.671875 8.296875 
L 55.171875 8.296875 
L 55.171875 0 
L 9.8125 0 
z
" id="DejaVuSans-76"/>
       <path d="M 9.8125 72.90625 
L 23.09375 72.90625 
L 55.421875 11.921875 
L 55.421875 72.90625 
L 64.984375 72.90625 
L 64.984375 0 
L 51.703125 0 
L 19.390625 60.984375 
L 19.390625 0 
L 9.8125 0 
z
" id="DejaVuSans-78"/>
      </defs>
      <use xlink:href="#DejaVuSans-67"/>
      <use x="69.824219" xlink:href="#DejaVuSans-108"/>
      <use x="97.607422" xlink:href="#DejaVuSans-111"/>
      <use x="158.789062" xlink:href="#DejaVuSans-110"/>
      <use x="222.167969" xlink:href="#DejaVuSans-111"/>
      <use x="283.349609" xlink:href="#DejaVuSans-116"/>
      <use x="322.558594" xlink:href="#DejaVuSans-121"/>
      <use x="381.738281" xlink:href="#DejaVuSans-112"/>
      <use x="445.214844" xlink:href="#DejaVuSans-101"/>
      <use x="506.738281" xlink:href="#DejaVuSans-32"/>
      <use x="538.525391" xlink:href="#DejaVuSans-115"/>
      <use x="590.625" xlink:href="#DejaVuSans-105"/>
      <use x="618.408203" xlink:href="#DejaVuSans-122"/>
      <use x="670.898438" xlink:href="#DejaVuSans-101"/>
      <use x="732.421875" xlink:href="#DejaVuSans-32"/>
      <use x="764.208984" xlink:href="#DejaVuSans-105"/>
      <use x="791.992188" xlink:href="#DejaVuSans-110"/>
      <use x="855.371094" xlink:href="#DejaVuSans-32"/>
      <use x="887.158203" xlink:href="#DejaVuSans-76"/>
      <use x="942.871094" xlink:href="#DejaVuSans-78"/>
      <use x="1017.675781" xlink:href="#DejaVuSans-50"/>
     </g>
    </g>
   </g>
   <g id="matplotlib.axis_2">
    <g id="ytick_1">
     <g id="line2d_9">
      <path clip-path="url(#p7b7df435bc)" d="M 34.85 179.198438 
L 207.65 179.198438 
" style="fill:none;stroke:#cccccc;stroke-linecap:square;stroke-width:0.8;"/>
     </g>
     <g id="line2d_10">
      <defs>
       <path d="M 0 0 
L -3.5 0 
" id="mf98fe786ba" style="stroke:#000000;stroke-width:0.8;"/>
      </defs>
      <g>
       <use style="stroke:#000000;stroke-width:0.8;" x="34.85" xlink:href="#mf98fe786ba" y="179.198438"/>
      </g>
     </g>
     <g id="text_6">
      <!-- 0 -->
      <g transform="translate(18.9425 184.517344)scale(0.14 -0.14)">
       <use xlink:href="#DejaVuSans-48"/>
      </g>
     </g>
    </g>
    <g id="ytick_2">
     <g id="line2d_11">
      <path clip-path="url(#p7b7df435bc)" d="M 34.85 143.998438 
L 207.65 143.998438 
" style="fill:none;stroke:#cccccc;stroke-linecap:square;stroke-width:0.8;"/>
     </g>
     <g id="line2d_12">
      <g>
       <use style="stroke:#000000;stroke-width:0.8;" x="34.85" xlink:href="#mf98fe786ba" y="143.998438"/>
      </g>
     </g>
     <g id="text_7">
      <!-- 2 -->
      <g transform="translate(18.9425 149.317344)scale(0.14 -0.14)">
       <use xlink:href="#DejaVuSans-50"/>
      </g>
     </g>
    </g>
    <g id="ytick_3">
     <g id="line2d_13">
      <path clip-path="url(#p7b7df435bc)" d="M 34.85 108.798438 
L 207.65 108.798438 
" style="fill:none;stroke:#cccccc;stroke-linecap:square;stroke-width:0.8;"/>
     </g>
     <g id="line2d_14">
      <g>
       <use style="stroke:#000000;stroke-width:0.8;" x="34.85" xlink:href="#mf98fe786ba" y="108.798438"/>
      </g>
     </g>
     <g id="text_8">
      <!-- 4 -->
      <g transform="translate(18.9425 114.117344)scale(0.14 -0.14)">
       <defs>
        <path d="M 37.796875 64.3125 
L 12.890625 25.390625 
L 37.796875 25.390625 
z
M 35.203125 72.90625 
L 47.609375 72.90625 
L 47.609375 25.390625 
L 58.015625 25.390625 
L 58.015625 17.1875 
L 47.609375 17.1875 
L 47.609375 0 
L 37.796875 0 
L 37.796875 17.1875 
L 4.890625 17.1875 
L 4.890625 26.703125 
z
" id="DejaVuSans-52"/>
       </defs>
       <use xlink:href="#DejaVuSans-52"/>
      </g>
     </g>
    </g>
    <g id="ytick_4">
     <g id="line2d_15">
      <path clip-path="url(#p7b7df435bc)" d="M 34.85 73.598438 
L 207.65 73.598438 
" style="fill:none;stroke:#cccccc;stroke-linecap:square;stroke-width:0.8;"/>
     </g>
     <g id="line2d_16">
      <g>
       <use style="stroke:#000000;stroke-width:0.8;" x="34.85" xlink:href="#mf98fe786ba" y="73.598438"/>
      </g>
     </g>
     <g id="text_9">
      <!-- 6 -->
      <g transform="translate(18.9425 78.917344)scale(0.14 -0.14)">
       <defs>
        <path d="M 33.015625 40.375 
Q 26.375 40.375 22.484375 35.828125 
Q 18.609375 31.296875 18.609375 23.390625 
Q 18.609375 15.53125 22.484375 10.953125 
Q 26.375 6.390625 33.015625 6.390625 
Q 39.65625 6.390625 43.53125 10.953125 
Q 47.40625 15.53125 47.40625 23.390625 
Q 47.40625 31.296875 43.53125 35.828125 
Q 39.65625 40.375 33.015625 40.375 
z
M 52.59375 71.296875 
L 52.59375 62.3125 
Q 48.875 64.0625 45.09375 64.984375 
Q 41.3125 65.921875 37.59375 65.921875 
Q 27.828125 65.921875 22.671875 59.328125 
Q 17.53125 52.734375 16.796875 39.40625 
Q 19.671875 43.65625 24.015625 45.921875 
Q 28.375 48.1875 33.59375 48.1875 
Q 44.578125 48.1875 50.953125 41.515625 
Q 57.328125 34.859375 57.328125 23.390625 
Q 57.328125 12.15625 50.6875 5.359375 
Q 44.046875 -1.421875 33.015625 -1.421875 
Q 20.359375 -1.421875 13.671875 8.265625 
Q 6.984375 17.96875 6.984375 36.375 
Q 6.984375 53.65625 15.1875 63.9375 
Q 23.390625 74.21875 37.203125 74.21875 
Q 40.921875 74.21875 44.703125 73.484375 
Q 48.484375 72.75 52.59375 71.296875 
z
" id="DejaVuSans-54"/>
       </defs>
       <use xlink:href="#DejaVuSans-54"/>
      </g>
     </g>
    </g>
    <g id="ytick_5">
     <g id="line2d_17">
      <path clip-path="url(#p7b7df435bc)" d="M 34.85 38.398438 
L 207.65 38.398438 
" style="fill:none;stroke:#cccccc;stroke-linecap:square;stroke-width:0.8;"/>
     </g>
     <g id="line2d_18">
      <g>
       <use style="stroke:#000000;stroke-width:0.8;" x="34.85" xlink:href="#mf98fe786ba" y="38.398438"/>
      </g>
     </g>
     <g id="text_10">
      <!-- 8 -->
      <g transform="translate(18.9425 43.717344)scale(0.14 -0.14)">
       <defs>
        <path d="M 31.78125 34.625 
Q 24.75 34.625 20.71875 30.859375 
Q 16.703125 27.09375 16.703125 20.515625 
Q 16.703125 13.921875 20.71875 10.15625 
Q 24.75 6.390625 31.78125 6.390625 
Q 38.8125 6.390625 42.859375 10.171875 
Q 46.921875 13.96875 46.921875 20.515625 
Q 46.921875 27.09375 42.890625 30.859375 
Q 38.875 34.625 31.78125 34.625 
z
M 21.921875 38.8125 
Q 15.578125 40.375 12.03125 44.71875 
Q 8.5 49.078125 8.5 55.328125 
Q 8.5 64.0625 14.71875 69.140625 
Q 20.953125 74.21875 31.78125 74.21875 
Q 42.671875 74.21875 48.875 69.140625 
Q 55.078125 64.0625 55.078125 55.328125 
Q 55.078125 49.078125 51.53125 44.71875 
Q 48 40.375 41.703125 38.8125 
Q 48.828125 37.15625 52.796875 32.3125 
Q 56.78125 27.484375 56.78125 20.515625 
Q 56.78125 9.90625 50.3125 4.234375 
Q 43.84375 -1.421875 31.78125 -1.421875 
Q 19.734375 -1.421875 13.25 4.234375 
Q 6.78125 9.90625 6.78125 20.515625 
Q 6.78125 27.484375 10.78125 32.3125 
Q 14.796875 37.15625 21.921875 38.8125 
z
M 18.3125 54.390625 
Q 18.3125 48.734375 21.84375 45.5625 
Q 25.390625 42.390625 31.78125 42.390625 
Q 38.140625 42.390625 41.71875 45.5625 
Q 45.3125 48.734375 45.3125 54.390625 
Q 45.3125 60.0625 41.71875 63.234375 
Q 38.140625 66.40625 31.78125 66.40625 
Q 25.390625 66.40625 21.84375 63.234375 
Q 18.3125 60.0625 18.3125 54.390625 
z
" id="DejaVuSans-56"/>
       </defs>
       <use xlink:href="#DejaVuSans-56"/>
      </g>
     </g>
    </g>
    <g id="text_11">
     <!-- Clonotype size in LT2 -->
     <g transform="translate(13.27875 142.151563)rotate(-90)scale(0.08 -0.08)">
      <defs>
       <path d="M -0.296875 72.90625 
L 61.375 72.90625 
L 61.375 64.59375 
L 35.5 64.59375 
L 35.5 0 
L 25.59375 0 
L 25.59375 64.59375 
L -0.296875 64.59375 
z
" id="DejaVuSans-84"/>
      </defs>
      <use xlink:href="#DejaVuSans-67"/>
      <use x="69.824219" xlink:href="#DejaVuSans-108"/>
      <use x="97.607422" xlink:href="#DejaVuSans-111"/>
      <use x="158.789062" xlink:href="#DejaVuSans-110"/>
      <use x="222.167969" xlink:href="#DejaVuSans-111"/>
      <use x="283.349609" xlink:href="#DejaVuSans-116"/>
      <use x="322.558594" xlink:href="#DejaVuSans-121"/>
      <use x="381.738281" xlink:href="#DejaVuSans-112"/>
      <use x="445.214844" xlink:href="#DejaVuSans-101"/>
      <use x="506.738281" xlink:href="#DejaVuSans-32"/>
      <use x="538.525391" xlink:href="#DejaVuSans-115"/>
      <use x="590.625" xlink:href="#DejaVuSans-105"/>
      <use x="618.408203" xlink:href="#DejaVuSans-122"/>
      <use x="670.898438" xlink:href="#DejaVuSans-101"/>
      <use x="732.421875" xlink:href="#DejaVuSans-32"/>
      <use x="764.208984" xlink:href="#DejaVuSans-105"/>
      <use x="791.992188" xlink:href="#DejaVuSans-110"/>
      <use x="855.371094" xlink:href="#DejaVuSans-32"/>
      <use x="887.158203" xlink:href="#DejaVuSans-76"/>
      <use x="929.121094" xlink:href="#DejaVuSans-84"/>
      <use x="990.205078" xlink:href="#DejaVuSans-50"/>
     </g>
    </g>
   </g>
   <g id="patch_3">
    <path d="M 34.85 179.198438 
L 34.85 20.798438 
" style="fill:none;stroke:#000000;stroke-linecap:square;stroke-linejoin:miter;stroke-width:0.8;"/>
   </g>
   <g id="patch_4">
    <path d="M 34.85 179.198438 
L 207.65 179.198438 
" style="fill:none;stroke:#000000;stroke-linecap:square;stroke-linejoin:miter;stroke-width:0.8;"/>
   </g>
   <g id="text_12">
    <!-- Repertoire overlap between LN2 and LT2 -->
    <g transform="translate(19.396094 14.798438)scale(0.1 -0.1)">
     <defs>
      <path d="M 44.390625 34.1875 
Q 47.5625 33.109375 50.5625 29.59375 
Q 53.5625 26.078125 56.59375 19.921875 
L 66.609375 0 
L 56 0 
L 46.6875 18.703125 
Q 43.0625 26.03125 39.671875 28.421875 
Q 36.28125 30.8125 30.421875 30.8125 
L 19.671875 30.8125 
L 19.671875 0 
L 9.8125 0 
L 9.8125 72.90625 
L 32.078125 72.90625 
Q 44.578125 72.90625 50.734375 67.671875 
Q 56.890625 62.453125 56.890625 51.90625 
Q 56.890625 45.015625 53.6875 40.46875 
Q 50.484375 35.9375 44.390625 34.1875 
z
M 19.671875 64.796875 
L 19.671875 38.921875 
L 32.078125 38.921875 
Q 39.203125 38.921875 42.84375 42.21875 
Q 46.484375 45.515625 46.484375 51.90625 
Q 46.484375 58.296875 42.84375 61.546875 
Q 39.203125 64.796875 32.078125 64.796875 
z
" id="DejaVuSans-82"/>
      <path d="M 41.109375 46.296875 
Q 39.59375 47.171875 37.8125 47.578125 
Q 36.03125 48 33.890625 48 
Q 26.265625 48 22.1875 43.046875 
Q 18.109375 38.09375 18.109375 28.8125 
L 18.109375 0 
L 9.078125 0 
L 9.078125 54.6875 
L 18.109375 54.6875 
L 18.109375 46.1875 
Q 20.953125 51.171875 25.484375 53.578125 
Q 30.03125 56 36.53125 56 
Q 37.453125 56 38.578125 55.875 
Q 39.703125 55.765625 41.0625 55.515625 
z
" id="DejaVuSans-114"/>
      <path d="M 2.984375 54.6875 
L 12.5 54.6875 
L 29.59375 8.796875 
L 46.6875 54.6875 
L 56.203125 54.6875 
L 35.6875 0 
L 23.484375 0 
z
" id="DejaVuSans-118"/>
      <path d="M 34.28125 27.484375 
Q 23.390625 27.484375 19.1875 25 
Q 14.984375 22.515625 14.984375 16.5 
Q 14.984375 11.71875 18.140625 8.90625 
Q 21.296875 6.109375 26.703125 6.109375 
Q 34.1875 6.109375 38.703125 11.40625 
Q 43.21875 16.703125 43.21875 25.484375 
L 43.21875 27.484375 
z
M 52.203125 31.203125 
L 52.203125 0 
L 43.21875 0 
L 43.21875 8.296875 
Q 40.140625 3.328125 35.546875 0.953125 
Q 30.953125 -1.421875 24.3125 -1.421875 
Q 15.921875 -1.421875 10.953125 3.296875 
Q 6 8.015625 6 15.921875 
Q 6 25.140625 12.171875 29.828125 
Q 18.359375 34.515625 30.609375 34.515625 
L 43.21875 34.515625 
L 43.21875 35.40625 
Q 43.21875 41.609375 39.140625 45 
Q 35.0625 48.390625 27.6875 48.390625 
Q 23 48.390625 18.546875 47.265625 
Q 14.109375 46.140625 10.015625 43.890625 
L 10.015625 52.203125 
Q 14.9375 54.109375 19.578125 55.046875 
Q 24.21875 56 28.609375 56 
Q 40.484375 56 46.34375 49.84375 
Q 52.203125 43.703125 52.203125 31.203125 
z
" id="DejaVuSans-97"/>
      <path d="M 48.6875 27.296875 
Q 48.6875 37.203125 44.609375 42.84375 
Q 40.53125 48.484375 33.40625 48.484375 
Q 26.265625 48.484375 22.1875 42.84375 
Q 18.109375 37.203125 18.109375 27.296875 
Q 18.109375 17.390625 22.1875 11.75 
Q 26.265625 6.109375 33.40625 6.109375 
Q 40.53125 6.109375 44.609375 11.75 
Q 48.6875 17.390625 48.6875 27.296875 
z
M 18.109375 46.390625 
Q 20.953125 51.265625 25.265625 53.625 
Q 29.59375 56 35.59375 56 
Q 45.5625 56 51.78125 48.09375 
Q 58.015625 40.1875 58.015625 27.296875 
Q 58.015625 14.40625 51.78125 6.484375 
Q 45.5625 -1.421875 35.59375 -1.421875 
Q 29.59375 -1.421875 25.265625 0.953125 
Q 20.953125 3.328125 18.109375 8.203125 
L 18.109375 0 
L 9.078125 0 
L 9.078125 75.984375 
L 18.109375 75.984375 
z
" id="DejaVuSans-98"/>
      <path d="M 4.203125 54.6875 
L 13.1875 54.6875 
L 24.421875 12.015625 
L 35.59375 54.6875 
L 46.1875 54.6875 
L 57.421875 12.015625 
L 68.609375 54.6875 
L 77.59375 54.6875 
L 63.28125 0 
L 52.6875 0 
L 40.921875 44.828125 
L 29.109375 0 
L 18.5 0 
z
" id="DejaVuSans-119"/>
      <path d="M 45.40625 46.390625 
L 45.40625 75.984375 
L 54.390625 75.984375 
L 54.390625 0 
L 45.40625 0 
L 45.40625 8.203125 
Q 42.578125 3.328125 38.25 0.953125 
Q 33.9375 -1.421875 27.875 -1.421875 
Q 17.96875 -1.421875 11.734375 6.484375 
Q 5.515625 14.40625 5.515625 27.296875 
Q 5.515625 40.1875 11.734375 48.09375 
Q 17.96875 56 27.875 56 
Q 33.9375 56 38.25 53.625 
Q 42.578125 51.265625 45.40625 46.390625 
z
M 14.796875 27.296875 
Q 14.796875 17.390625 18.875 11.75 
Q 22.953125 6.109375 30.078125 6.109375 
Q 37.203125 6.109375 41.296875 11.75 
Q 45.40625 17.390625 45.40625 27.296875 
Q 45.40625 37.203125 41.296875 42.84375 
Q 37.203125 48.484375 30.078125 48.484375 
Q 22.953125 48.484375 18.875 42.84375 
Q 14.796875 37.203125 14.796875 27.296875 
z
" id="DejaVuSans-100"/>
     </defs>
     <use xlink:href="#DejaVuSans-82"/>
     <use x="64.982422" xlink:href="#DejaVuSans-101"/>
     <use x="126.505859" xlink:href="#DejaVuSans-112"/>
     <use x="189.982422" xlink:href="#DejaVuSans-101"/>
     <use x="251.505859" xlink:href="#DejaVuSans-114"/>
     <use x="292.619141" xlink:href="#DejaVuSans-116"/>
     <use x="331.828125" xlink:href="#DejaVuSans-111"/>
     <use x="393.009766" xlink:href="#DejaVuSans-105"/>
     <use x="420.792969" xlink:href="#DejaVuSans-114"/>
     <use x="459.65625" xlink:href="#DejaVuSans-101"/>
     <use x="521.179688" xlink:href="#DejaVuSans-32"/>
     <use x="552.966797" xlink:href="#DejaVuSans-111"/>
     <use x="614.148438" xlink:href="#DejaVuSans-118"/>
     <use x="673.328125" xlink:href="#DejaVuSans-101"/>
     <use x="734.851562" xlink:href="#DejaVuSans-114"/>
     <use x="775.964844" xlink:href="#DejaVuSans-108"/>
     <use x="803.748047" xlink:href="#DejaVuSans-97"/>
     <use x="865.027344" xlink:href="#DejaVuSans-112"/>
     <use x="928.503906" xlink:href="#DejaVuSans-32"/>
     <use x="960.291016" xlink:href="#DejaVuSans-98"/>
     <use x="1023.767578" xlink:href="#DejaVuSans-101"/>
     <use x="1085.291016" xlink:href="#DejaVuSans-116"/>
     <use x="1124.5" xlink:href="#DejaVuSans-119"/>
     <use x="1206.287109" xlink:href="#DejaVuSans-101"/>
     <use x="1267.810547" xlink:href="#DejaVuSans-101"/>
     <use x="1329.333984" xlink:href="#DejaVuSans-110"/>
     <use x="1392.712891" xlink:href="#DejaVuSans-32"/>
     <use x="1424.5" xlink:href="#DejaVuSans-76"/>
     <use x="1480.212891" xlink:href="#DejaVuSans-78"/>
     <use x="1555.017578" xlink:href="#DejaVuSans-50"/>
     <use x="1618.640625" xlink:href="#DejaVuSans-32"/>
     <use x="1650.427734" xlink:href="#DejaVuSans-97"/>
     <use x="1711.707031" xlink:href="#DejaVuSans-110"/>
     <use x="1775.085938" xlink:href="#DejaVuSans-100"/>
     <use x="1838.5625" xlink:href="#DejaVuSans-32"/>
     <use x="1870.349609" xlink:href="#DejaVuSans-76"/>
     <use x="1912.3125" xlink:href="#DejaVuSans-84"/>
     <use x="1973.396484" xlink:href="#DejaVuSans-50"/>
    </g>
   </g>
   <g id="legend_1"/>
  </g>
 </g>
 <defs>
  <clipPath id="p7b7df435bc">
   <rect height="158.4" width="172.8" x="34.85" y="20.798438"/>
  </clipPath>
 </defs>
</svg>
